{"glyphs":{"0":{"ha":674,"x_min":0,"x_max":0,"o":"m 345 819 b 513 441 446 819 513 654 b 332 46 513 228 452 46 b 161 434 231 46 161 221 b 345 819 161 647 231 819 z m 337 869 b 41 433 150 869 41 669 b 337 -4 41 197 153 -4 b 633 433 524 -4 633 197 b 337 869 633 669 527 869 z "},"1":{"ha":674,"x_min":0,"x_max":0,"o":"m 303 157 b 295 57 303 117 302 79 b 208 35 291 42 224 35 b 208 -4 203 28 201 3 b 353 3 264 -1 300 3 b 504 -4 406 3 448 -1 b 504 35 511 3 509 28 b 417 57 487 35 421 42 b 410 157 410 79 410 117 l 410 718 b 421 849 410 800 421 849 b 407 871 420 856 416 871 l 405 871 b 169 761 401 871 280 811 b 166 753 165 760 166 755 b 180 730 166 743 173 735 b 275 757 201 738 254 757 b 303 705 293 757 303 745 z "},"2":{"ha":674,"x_min":0,"x_max":0,"o":"m 615 203 b 588 212 610 208 593 212 b 572 203 580 212 574 210 b 458 99 543 133 512 99 l 189 99 b 485 439 250 167 389 321 b 562 644 532 498 562 567 b 328 871 562 760 458 871 b 78 688 185 871 87 722 b 104 666 78 682 93 666 b 298 783 120 693 189 783 b 447 618 385 783 447 712 b 382 415 447 552 437 496 b 59 19 303 300 173 145 b 73 0 59 14 67 3 l 542 0 b 615 203 550 24 588 137 z "},"3":{"ha":674,"x_min":0,"x_max":0,"o":"m 351 871 b 125 739 245 871 168 802 b 142 709 125 727 134 709 b 294 799 154 719 208 799 b 427 673 371 799 427 745 b 215 472 427 556 323 496 b 212 458 212 468 212 464 b 220 431 212 448 215 438 b 302 449 237 435 273 449 b 475 258 391 449 475 368 b 315 47 475 102 387 47 b 215 81 279 47 241 56 b 139 141 193 103 177 141 b 82 76 109 141 82 115 b 109 24 82 54 101 30 b 248 -7 153 3 211 -7 b 592 296 417 -7 592 110 b 402 514 592 429 479 503 b 528 697 450 543 528 609 b 351 871 528 808 420 871 z "},"4":{"ha":674,"x_min":0,"x_max":0,"o":"m 519 873 b 478 840 508 873 486 850 l 36 262 b 50 236 36 254 40 241 l 432 236 l 432 3 b 481 -8 432 -7 448 -8 b 539 -1 534 -8 539 -1 l 539 236 l 633 236 b 638 258 635 240 638 245 b 619 313 638 286 627 313 l 539 313 l 539 849 b 519 873 539 860 532 873 z m 432 711 l 432 313 l 128 313 z "},"5":{"ha":674,"x_min":0,"x_max":0,"o":"m 337 536 b 193 510 300 536 231 525 b 242 754 210 586 226 673 l 356 754 b 513 762 427 754 475 758 b 554 859 538 791 554 850 b 538 873 554 865 546 868 b 413 861 538 873 469 861 l 212 861 b 134 458 197 779 163 610 b 144 439 134 449 139 439 b 258 460 166 450 230 460 b 475 258 416 460 475 342 b 315 47 475 100 387 47 b 215 81 279 47 241 56 b 139 141 193 103 177 141 b 82 76 109 141 82 115 b 109 24 82 54 101 30 b 248 -7 153 3 211 -7 b 592 296 417 -7 592 110 b 337 536 592 411 497 536 z "},"6":{"ha":674,"x_min":0,"x_max":0,"o":"m 189 415 b 321 469 233 464 282 469 b 492 250 444 469 492 365 b 343 37 492 127 429 37 b 183 323 235 37 183 201 b 189 415 183 355 184 387 z m 359 536 b 199 475 313 536 247 514 b 576 838 260 715 463 802 b 560 878 576 846 572 878 b 197 658 446 848 293 764 b 66 298 111 564 66 437 b 332 -8 66 152 168 -8 b 608 275 487 -8 608 123 b 359 536 608 373 549 536 z "},"7":{"ha":674,"x_min":0,"x_max":0,"o":"m 522 859 l 109 859 b 52 655 100 815 75 728 b 79 647 58 651 74 647 b 96 655 87 647 94 648 b 193 760 116 727 139 760 l 538 760 b 153 18 538 760 292 229 b 212 -7 153 5 192 -7 b 226 -3 219 -7 223 -5 l 584 760 b 622 850 602 798 622 833 b 614 863 622 857 622 863 b 522 859 606 863 557 859 z "},"8":{"ha":674,"x_min":0,"x_max":0,"o":"m 336 37 b 189 213 264 37 189 102 b 296 401 189 300 221 354 b 301 403 297 403 300 403 b 309 400 305 403 307 401 b 483 187 328 389 483 300 b 336 37 483 95 426 37 z m 336 825 b 469 659 418 825 469 738 b 377 494 469 585 433 530 b 369 491 373 491 372 491 b 361 494 366 491 363 492 b 220 675 309 524 220 571 b 336 825 220 757 271 825 z m 345 872 b 119 651 225 872 119 766 b 258 439 119 551 201 473 b 258 431 260 438 262 434 b 81 209 205 397 81 328 b 334 -12 81 77 184 -12 b 593 227 469 -12 593 91 b 415 458 593 324 496 412 b 415 467 411 461 410 465 b 567 673 477 506 567 567 b 345 872 567 799 465 872 z "},"9":{"ha":674,"x_min":0,"x_max":0,"o":"m 485 454 b 352 400 440 406 391 400 b 182 620 230 400 182 505 b 330 833 182 742 245 833 b 490 547 439 833 490 669 b 485 454 490 514 489 483 z m 97 31 b 113 -8 97 23 101 -8 b 477 212 227 22 380 106 b 607 571 562 305 607 433 b 341 878 607 718 505 878 b 67 594 186 878 67 746 b 314 334 67 496 124 334 b 474 395 360 334 427 355 b 97 31 413 155 211 68 z "}," ":{"ha":294,"x_min":0,"x_max":0,"o":""},"!":{"ha":327,"x_min":0,"x_max":0,"o":"m 88 61 b 164 -15 88 20 123 -15 b 237 61 205 -15 237 20 b 164 134 237 102 205 134 b 88 61 123 134 88 102 z m 170 871 b 102 792 126 871 102 830 b 142 231 102 723 123 449 b 160 216 146 222 153 218 b 182 233 172 217 176 222 b 229 792 210 572 229 754 b 170 871 229 827 212 871 z "},"\"":{"ha":380,"x_min":0,"x_max":0,"o":"m 286 948 b 216 853 243 948 216 891 b 263 650 216 815 235 747 b 275 642 266 644 271 642 b 302 667 286 647 298 659 b 321 930 311 738 321 891 b 286 948 311 944 302 948 z m 123 948 b 53 853 80 948 53 891 b 100 650 53 815 72 747 b 113 642 103 644 109 642 b 140 667 123 647 136 659 b 159 930 148 738 159 891 b 123 948 148 944 140 948 z "},"#":{"ha":651,"x_min":0,"x_max":0,"o":"m 442 308 l 473 500 l 562 500 b 570 567 579 509 589 567 l 483 567 l 507 716 b 490 720 503 719 502 720 b 460 703 464 720 464 715 l 438 567 l 265 567 l 289 716 b 271 720 285 719 283 720 b 241 703 245 720 245 715 l 220 567 l 127 567 b 115 500 110 562 99 500 l 209 500 l 178 308 l 91 308 b 77 241 73 302 61 241 l 168 241 l 144 92 b 159 87 144 92 145 87 b 190 104 179 87 189 99 l 212 241 l 386 241 l 362 92 b 377 87 362 92 363 87 b 410 104 397 87 408 99 l 431 241 l 524 241 b 533 308 541 250 552 308 z m 397 308 l 223 308 l 254 500 l 427 500 z "},"$":{"ha":675,"x_min":0,"x_max":0,"o":"m 396 926 l 387 865 b 349 867 376 867 362 867 b 94 637 218 867 94 776 b 307 385 94 511 209 442 l 251 49 b 118 228 151 90 125 197 b 103 235 115 233 110 235 b 69 224 94 235 75 229 b 100 24 69 209 84 102 b 241 -5 141 16 189 3 l 233 -58 b 281 -71 233 -68 269 -71 l 290 -12 b 335 -14 305 -14 320 -14 b 608 225 475 -14 608 81 b 381 476 608 354 467 422 b 372 481 378 477 374 480 l 423 796 b 518 647 477 760 513 692 b 537 640 522 643 532 640 b 562 646 547 640 555 642 b 545 830 560 681 562 761 b 434 859 496 841 467 852 l 444 917 b 396 926 444 926 407 926 z m 351 359 b 494 190 429 317 494 285 b 338 33 494 88 419 33 b 298 35 324 33 311 34 z m 327 509 b 198 678 259 551 198 595 b 340 822 198 741 227 822 b 378 817 354 822 366 819 z "},"%":{"ha":905,"x_min":0,"x_max":0,"o":"m 252 842 b 368 646 324 842 368 736 b 266 475 368 567 345 475 b 141 673 198 475 141 579 b 252 842 141 753 172 842 z m 258 875 b 54 656 137 875 54 777 b 258 441 54 537 145 441 b 457 656 381 441 457 548 b 258 875 457 774 376 875 z m 644 392 b 758 195 716 392 758 286 b 658 24 758 117 736 24 b 532 222 590 24 532 129 b 644 392 532 302 564 392 z m 650 425 b 445 206 529 425 445 327 b 648 -9 445 87 536 -9 b 848 206 773 -9 848 98 b 650 425 848 324 768 425 z m 811 846 b 768 863 799 859 807 863 b 741 846 760 863 747 854 l 87 -1 b 111 -16 88 -4 92 -16 b 156 0 127 -16 151 -7 z "},"&":{"ha":926,"x_min":0,"x_max":0,"o":"m 551 129 b 381 54 507 83 435 54 b 189 233 282 54 189 106 b 328 426 189 331 255 376 b 551 129 328 426 463 218 z m 425 841 b 522 719 486 841 522 780 b 388 522 522 614 472 571 b 317 736 345 601 317 670 b 425 841 317 799 366 841 z m 418 890 b 218 704 304 890 218 807 b 297 475 218 610 259 540 b 72 214 183 416 72 345 b 335 -4 72 77 176 -4 b 582 98 425 -4 517 41 b 738 0 582 98 658 0 b 886 99 842 0 880 87 b 854 123 886 109 869 123 b 784 61 848 106 812 61 b 651 167 751 61 712 103 b 792 369 734 263 785 365 b 886 392 807 378 863 392 b 887 430 890 392 891 427 b 738 423 825 427 785 423 l 631 423 b 629 392 625 418 625 400 b 690 368 639 389 690 395 b 613 209 690 354 663 285 b 412 479 545 285 469 382 b 614 738 515 543 614 616 b 418 890 614 836 537 890 z "},"'":{"ha":217,"x_min":0,"x_max":0,"o":"m 123 948 b 53 853 80 948 53 891 b 100 650 53 815 72 747 b 113 642 103 644 109 642 b 140 667 123 647 136 659 b 159 930 148 738 159 891 b 123 948 148 944 140 948 z "},"(":{"ha":355,"x_min":0,"x_max":0,"o":"m 149 387 b 347 948 149 601 220 836 b 321 975 349 948 331 970 b 50 387 163 850 50 651 b 321 -203 50 123 163 -79 b 347 -176 331 -198 349 -176 b 149 387 220 -64 149 174 z "},")":{"ha":355,"x_min":0,"x_max":0,"o":"m 305 387 b 34 975 305 651 193 850 b 8 948 24 970 7 948 b 206 387 136 836 206 601 b 8 -176 206 174 136 -64 b 34 -203 7 -176 24 -198 b 305 387 193 -79 305 123 z "},"*":{"ha":601,"x_min":0,"x_max":0,"o":"m 410 831 b 327 705 366 783 362 743 b 309 697 321 700 316 696 b 296 712 302 699 296 712 b 254 864 273 760 281 804 b 184 895 239 895 212 909 b 176 819 160 882 160 849 b 270 700 209 762 244 745 b 273 681 274 693 275 688 b 258 670 270 674 258 670 b 100 677 205 663 165 685 b 49 620 66 673 43 650 b 119 589 53 591 87 582 b 262 642 184 602 212 631 b 279 637 269 643 275 643 b 283 620 285 632 283 620 b 228 471 274 568 240 534 b 266 406 221 437 236 410 b 317 463 294 401 313 429 b 312 613 324 528 307 562 b 320 631 313 620 312 627 b 339 627 327 633 339 627 b 463 529 385 602 406 560 b 537 545 492 513 524 518 b 498 612 549 571 529 598 b 353 652 438 639 400 631 b 339 666 346 655 340 659 b 346 685 338 673 346 685 b 477 772 384 722 430 728 b 486 848 503 795 507 826 b 410 831 465 868 433 857 z "},"+":{"ha":735,"x_min":0,"x_max":0,"o":"m 328 643 l 328 372 l 62 372 b 42 309 49 361 42 315 b 50 296 42 296 50 296 l 328 296 l 328 19 b 346 7 328 14 336 7 b 404 22 359 7 388 9 l 404 296 l 671 296 b 693 355 682 307 693 334 b 681 372 693 366 686 372 l 404 372 l 404 650 b 387 658 404 650 400 658 b 328 643 377 658 350 651 z "},",":{"ha":273,"x_min":0,"x_max":0,"o":"m 144 167 b 64 100 95 167 64 129 b 109 -9 64 47 109 35 b 23 -160 109 -96 50 -140 b 43 -189 23 -168 34 -189 b 203 62 113 -151 203 -15 b 179 157 203 114 189 141 b 144 167 170 163 155 167 z "},"-":{"ha":511,"x_min":0,"x_max":0,"o":"m 96 354 b 79 285 87 334 79 311 b 88 270 79 273 81 270 b 415 285 212 275 351 281 b 433 358 426 308 433 335 b 423 370 433 369 429 370 b 96 354 378 369 96 354 z "},".":{"ha":281,"x_min":0,"x_max":0,"o":"m 65 61 b 141 -15 65 20 100 -15 b 214 61 182 -15 214 20 b 141 134 214 102 182 134 b 65 61 100 134 65 102 z "},"/":{"ha":560,"x_min":0,"x_max":0,"o":"m 500 1032 b 446 1012 468 1032 448 1016 l 41 -38 b 65 -47 41 -38 45 -47 b 118 -16 96 -47 114 -26 l 518 1020 b 500 1032 517 1024 511 1032 z "},":":{"ha":307,"x_min":0,"x_max":0,"o":"m 79 61 b 155 -15 79 20 114 -15 b 228 61 195 -15 228 20 b 155 134 228 102 195 134 b 79 61 114 134 79 102 z m 79 511 b 155 435 79 471 114 435 b 228 511 195 435 228 471 b 155 585 228 552 195 585 b 79 511 114 585 79 552 z "},";":{"ha":315,"x_min":0,"x_max":0,"o":"m 172 167 b 92 100 123 167 92 129 b 137 -9 92 47 137 35 b 52 -160 137 -96 79 -140 b 72 -189 52 -168 62 -189 b 232 62 141 -151 232 -15 b 208 157 232 114 217 141 b 172 167 198 163 183 167 z m 83 511 b 159 435 83 471 118 435 b 232 511 199 435 232 471 b 159 585 232 552 199 585 b 83 511 118 585 83 552 z "},"<":{"ha":667,"x_min":0,"x_max":0,"o":"m 602 47 b 598 56 602 54 598 56 l 149 283 l 591 507 b 595 519 591 507 597 511 b 572 583 586 570 576 583 b 566 581 571 583 568 582 l 65 327 b 41 294 52 320 41 309 b 65 240 41 271 45 251 l 574 -18 b 581 -20 576 -19 579 -20 b 602 47 589 -20 602 38 z "},"=":{"ha":766,"x_min":0,"x_max":0,"o":"m 650 163 b 667 237 669 172 686 237 l 121 237 b 99 163 102 231 83 163 z m 650 358 b 667 433 669 368 686 433 l 121 433 b 99 358 102 426 83 358 z "},">":{"ha":669,"x_min":0,"x_max":0,"o":"m 65 47 b 88 -20 65 37 80 -20 b 95 -18 90 -20 92 -19 l 604 240 b 627 294 624 251 627 271 b 604 327 627 309 617 320 l 102 581 b 95 583 99 582 96 583 b 73 518 90 583 73 543 b 77 507 73 509 77 507 l 518 283 l 69 56 b 65 47 69 56 65 53 z "},"?":{"ha":483,"x_min":0,"x_max":0,"o":"m 85 61 b 161 -15 85 20 121 -15 b 235 61 202 -15 235 20 b 161 134 235 102 202 134 b 85 61 121 134 85 102 z m 136 743 b 252 772 171 743 180 772 b 353 661 304 772 353 731 b 235 522 353 595 301 564 b 119 354 184 490 119 454 b 130 231 119 317 123 259 b 148 216 134 222 141 218 b 170 233 160 217 164 222 b 178 328 170 264 165 307 b 283 412 186 343 247 391 b 420 620 385 471 420 528 b 153 871 420 779 243 871 b 88 861 125 871 102 868 b 76 811 81 852 76 831 b 136 743 76 766 117 743 z "},"@":{"ha":1015,"x_min":0,"x_max":0,"o":"m 567 784 b 66 231 252 784 66 496 b 301 -160 66 39 176 -114 b 354 -168 319 -167 338 -168 b 403 -144 370 -168 403 -155 b 301 -106 377 -140 350 -134 b 121 231 203 -49 121 72 b 567 730 121 467 290 730 b 911 362 803 730 911 545 b 728 49 911 193 814 49 b 663 110 692 49 663 66 b 667 144 663 117 666 138 l 750 572 b 651 590 724 582 699 590 b 263 176 465 590 263 374 b 392 -7 263 81 308 -7 b 583 170 471 -7 557 119 b 574 107 579 159 574 123 b 686 -9 574 24 620 -9 b 966 366 845 -9 966 159 b 567 784 966 578 833 784 z m 594 528 b 650 510 612 528 637 524 l 623 372 b 433 72 597 241 500 72 b 363 205 385 72 363 121 b 594 528 363 361 490 528 z "},"A":{"ha":850,"x_min":0,"x_max":0,"o":"m 129 189 b 65 61 110 140 92 96 b -16 35 52 43 0 35 b -16 -4 -20 26 -20 0 b 129 3 46 -1 66 3 b 260 -4 189 3 206 -1 b 258 35 263 4 262 31 b 164 73 247 35 164 41 b 183 170 164 91 167 122 b 244 335 206 235 244 335 b 251 339 244 335 248 339 b 397 343 312 343 342 343 b 532 342 431 343 496 345 b 540 336 536 342 540 336 b 632 72 540 336 632 113 b 627 53 632 64 631 57 b 551 35 614 42 567 35 b 549 -4 544 28 543 3 b 707 3 612 -1 644 3 b 856 -4 766 3 802 -1 b 853 35 857 0 860 26 b 761 81 842 35 774 49 b 727 171 758 87 746 121 l 450 895 b 442 899 446 897 446 899 b 391 860 430 899 397 873 b 129 189 308 648 129 189 z m 395 735 l 514 407 b 510 400 514 407 513 400 b 396 396 468 397 438 396 b 273 399 365 396 308 397 b 270 404 270 399 270 404 z "},"B":{"ha":808,"x_min":0,"x_max":0,"o":"m 279 450 l 362 450 b 614 239 571 450 614 340 b 399 39 614 73 500 39 b 292 64 349 39 312 42 b 279 156 282 73 279 137 z m 279 502 l 279 735 b 286 837 279 776 279 821 b 354 850 292 849 338 850 b 563 661 480 850 563 781 b 393 502 563 583 515 502 z m 414 894 b 221 891 334 894 274 891 b 61 898 168 891 117 895 b 61 859 54 891 56 865 b 155 837 77 859 151 852 b 161 736 161 815 161 777 l 161 157 b 155 57 161 117 161 79 b 61 35 151 42 77 35 b 61 -4 56 28 54 3 l 373 -4 b 658 69 477 -3 593 15 b 749 270 724 125 749 193 b 549 488 749 404 616 486 b 549 495 545 491 547 494 b 686 692 597 513 686 587 b 414 894 686 846 537 894 z "},"C":{"ha":914,"x_min":0,"x_max":0,"o":"m 524 905 b 65 437 256 905 65 690 b 518 -8 65 197 250 -8 b 810 53 643 -8 735 11 b 857 248 829 69 857 221 b 814 259 845 256 827 260 b 731 102 804 214 784 149 b 552 37 692 66 635 37 b 199 465 316 37 199 254 b 530 860 199 655 330 860 b 796 662 757 860 788 704 b 812 658 800 659 804 658 b 842 675 826 658 844 667 b 811 876 842 689 811 876 b 524 905 711 898 613 905 z "},"D":{"ha":963,"x_min":0,"x_max":0,"o":"m 281 734 b 288 834 281 773 281 812 b 381 849 292 848 365 849 b 760 425 576 849 760 731 b 400 39 760 160 593 39 b 289 58 350 39 300 43 b 281 156 282 66 281 137 z m 418 892 b 221 891 358 892 274 891 b 61 898 168 891 117 895 b 61 859 54 891 56 865 b 155 837 77 859 151 852 b 161 736 161 815 161 777 l 161 157 b 155 57 161 117 161 79 b 61 35 151 42 77 35 b 61 -4 56 28 54 3 l 400 -4 b 894 453 783 -4 894 222 b 418 892 894 704 715 892 z "},"E":{"ha":796,"x_min":0,"x_max":0,"o":"m 221 891 b 61 898 168 891 117 895 b 61 859 54 891 56 865 b 155 837 77 859 151 852 b 161 736 161 815 161 777 l 161 157 b 155 57 161 117 161 79 b 61 35 151 42 77 35 b 61 -4 56 28 54 3 b 222 0 114 -4 159 0 b 685 -5 403 0 537 -5 b 758 220 694 54 732 146 b 724 228 754 224 738 228 b 705 220 715 228 707 225 b 620 83 684 161 663 109 b 449 46 582 60 513 46 l 384 46 b 288 60 327 46 305 46 b 279 153 279 66 279 133 l 279 411 b 377 423 279 423 339 423 b 521 412 429 423 506 422 b 559 323 533 404 538 400 b 581 312 562 316 571 312 b 602 317 590 312 600 315 l 602 574 b 579 581 598 578 589 581 b 559 571 570 581 560 578 b 410 473 536 481 540 473 l 338 473 b 279 481 308 473 279 475 l 279 735 b 286 831 279 772 279 810 b 380 846 290 845 363 846 l 496 846 b 654 719 568 846 624 827 b 673 709 655 712 663 709 b 697 716 682 709 693 712 b 658 901 685 777 667 833 b 221 891 510 901 349 891 z "},"F":{"ha":726,"x_min":0,"x_max":0,"o":"m 221 891 b 61 898 168 891 117 895 b 61 859 54 891 56 865 b 155 837 77 859 151 852 b 161 736 161 815 161 777 l 161 157 b 155 57 161 117 161 79 b 61 35 151 42 77 35 b 61 -4 56 28 54 3 b 221 3 114 -4 157 3 b 393 -4 274 3 338 -1 b 393 35 400 3 399 28 b 286 57 377 35 290 42 b 279 157 279 79 279 117 l 279 411 b 377 423 279 423 339 423 b 521 412 429 423 506 422 b 559 323 533 404 538 400 b 581 312 562 316 571 312 b 602 317 590 312 600 315 l 602 574 b 579 581 598 578 589 581 b 559 571 570 581 560 578 b 410 473 536 481 540 473 l 338 473 b 279 481 308 473 279 475 l 279 735 b 286 831 279 772 279 810 b 380 846 290 845 363 846 l 496 846 b 654 719 568 846 624 827 b 673 709 655 712 663 709 b 697 716 682 709 693 712 b 658 901 685 777 667 833 b 221 891 510 901 349 891 z "},"G":{"ha":977,"x_min":0,"x_max":0,"o":"m 726 237 l 726 100 b 716 80 726 91 724 84 b 552 37 675 60 623 37 b 199 465 315 37 199 254 b 530 860 199 655 330 860 b 796 662 757 860 788 704 b 812 658 800 659 804 658 b 842 675 826 658 844 667 b 811 876 842 689 811 876 b 524 905 711 898 613 905 b 65 437 256 905 65 690 b 518 -8 65 197 250 -8 b 829 62 697 -8 770 31 b 856 87 852 75 856 79 b 842 141 856 100 842 113 l 842 237 b 849 338 842 278 842 316 b 937 359 853 353 921 359 b 937 399 943 366 944 392 b 785 392 882 396 838 392 b 627 399 732 392 682 396 b 627 359 620 392 621 366 b 719 338 643 359 715 353 b 726 237 726 316 726 278 z "},"H":{"ha":985,"x_min":0,"x_max":0,"o":"m 221 891 b 61 898 168 891 117 895 b 61 854 54 891 56 861 b 155 833 77 854 151 848 b 161 732 161 811 161 773 l 161 161 b 155 61 161 121 161 83 b 61 39 151 46 77 39 b 61 -4 56 33 54 3 b 221 3 117 -1 168 3 b 380 -4 274 3 324 -1 b 380 39 387 3 385 33 b 286 61 363 39 290 46 b 279 161 279 83 279 121 l 279 430 b 281 433 279 430 279 431 b 495 441 286 435 307 441 b 703 435 564 441 639 437 b 705 430 703 435 705 433 l 705 161 b 699 61 705 121 705 83 b 605 39 694 46 621 39 b 605 -4 600 33 598 3 b 765 3 661 -1 712 3 b 924 -4 818 3 868 -1 b 924 39 930 3 929 33 b 830 61 907 39 834 46 b 823 161 823 83 823 121 l 823 732 b 830 833 823 773 823 811 b 924 854 834 848 907 854 b 924 898 929 861 930 891 b 765 891 868 895 818 891 b 605 898 712 891 661 895 b 605 854 598 891 600 861 b 699 833 621 854 694 848 b 705 732 705 811 705 773 l 705 496 b 703 491 705 494 703 491 b 495 487 642 490 559 487 b 282 491 419 487 349 490 b 279 495 282 491 279 492 l 279 732 b 286 833 279 773 279 811 b 380 854 290 848 363 854 b 380 898 385 861 387 891 b 221 891 324 895 274 891 z "},"I":{"ha":439,"x_min":0,"x_max":0,"o":"m 221 891 b 61 898 168 891 117 895 b 61 859 54 891 56 865 b 155 837 77 859 151 852 b 161 736 161 815 161 777 l 161 157 b 155 57 161 117 161 79 b 61 35 151 42 77 35 b 61 -4 56 28 54 3 b 221 3 117 -1 168 3 b 380 -4 274 3 324 -1 b 380 35 387 3 385 28 b 286 57 363 35 290 42 b 279 157 279 79 279 117 l 279 736 b 286 837 279 777 279 815 b 380 859 290 852 363 859 b 380 898 385 865 387 891 b 221 891 324 895 274 891 z "},"J":{"ha":425,"x_min":0,"x_max":0,"o":"m 214 891 b 54 898 161 891 110 895 b 54 859 47 891 49 865 b 148 837 71 859 144 852 b 155 736 155 815 155 777 l 155 157 b 50 -244 155 -171 107 -244 b -11 -216 27 -244 4 -229 b -76 -176 -30 -198 -52 -176 b -141 -252 -119 -176 -141 -210 b -130 -283 -141 -262 -137 -277 b -45 -308 -114 -296 -65 -308 b 273 164 138 -308 273 -175 l 273 736 b 279 837 273 777 273 815 b 373 859 283 852 357 859 b 373 898 378 865 380 891 b 214 891 317 895 267 891 z "},"K":{"ha":891,"x_min":0,"x_max":0,"o":"m 221 891 b 61 898 168 891 117 895 b 61 854 54 891 56 861 b 155 833 77 854 151 848 b 161 732 161 811 161 773 l 161 161 b 155 61 161 121 161 83 b 61 39 151 46 77 39 b 61 -4 56 33 54 3 b 221 3 117 -1 168 3 b 380 -4 274 3 324 -1 b 380 39 387 3 385 33 b 286 61 363 39 290 46 b 279 161 279 83 279 121 l 279 414 b 292 416 282 415 288 416 b 304 412 297 416 301 416 b 609 69 457 237 581 98 b 701 11 647 31 682 18 b 894 -4 728 1 803 -4 b 895 35 895 -1 902 28 b 747 98 821 41 781 66 b 400 483 643 197 530 331 b 400 494 397 487 397 490 b 713 806 518 608 597 678 b 848 856 760 856 836 854 b 850 898 854 856 853 890 b 704 890 796 895 764 890 b 548 898 654 890 598 895 b 548 856 544 886 544 864 b 624 826 560 856 624 860 b 605 784 624 812 613 795 b 433 600 564 731 538 704 b 279 463 377 545 308 480 l 279 732 b 286 833 279 773 279 811 b 380 854 290 848 363 854 b 380 898 385 861 387 891 b 221 891 324 895 274 891 z "},"L":{"ha":765,"x_min":0,"x_max":0,"o":"m 279 157 l 279 736 b 286 837 279 777 279 815 b 380 859 290 852 363 859 b 380 898 385 865 387 891 b 221 891 324 895 274 891 b 61 898 168 891 117 895 b 61 859 54 891 56 865 b 155 837 77 859 151 852 b 161 736 161 815 161 777 l 161 157 b 155 57 161 117 161 79 b 61 35 151 42 77 35 b 61 -4 56 28 54 3 b 222 0 114 -4 159 0 b 685 -5 403 0 537 -5 b 758 220 694 54 732 146 b 724 228 754 224 738 228 b 705 220 715 228 707 225 b 620 83 684 148 654 106 b 461 46 582 57 513 46 l 384 46 b 288 60 327 46 305 46 b 279 157 279 66 279 137 z "},"M":{"ha":1230,"x_min":0,"x_max":0,"o":"m 220 891 b 80 898 157 891 142 895 b 80 859 77 895 77 859 b 175 830 96 859 170 846 b 180 776 180 815 180 795 b 161 127 180 751 174 453 b 145 60 160 99 157 77 b 35 35 133 42 52 35 b 35 -4 30 24 33 -1 b 194 3 98 -1 132 3 b 338 -4 254 3 283 -1 b 335 35 339 0 342 27 b 228 60 324 35 236 39 b 222 102 224 71 222 90 b 240 792 222 115 235 496 l 571 0 b 583 -3 575 -1 579 -4 b 635 66 598 0 629 54 b 921 784 739 328 810 505 b 928 793 924 791 925 793 b 940 766 937 793 940 772 b 958 186 948 547 952 381 b 960 107 958 165 960 126 b 948 50 960 88 958 56 b 860 35 932 41 876 35 b 860 -4 854 24 857 -1 b 1023 3 922 -1 960 3 b 1184 -4 1082 3 1130 -1 b 1181 35 1185 0 1188 23 b 1086 58 1171 35 1093 39 b 1070 190 1074 91 1072 137 b 1057 783 1066 366 1059 689 b 1063 834 1057 799 1058 822 b 1160 859 1070 848 1141 859 b 1156 898 1160 859 1157 894 b 1004 892 1122 895 1051 892 b 897 898 978 892 940 895 b 837 735 897 898 861 798 b 629 201 758 534 709 407 b 623 195 628 197 624 195 b 617 198 621 195 618 195 b 330 898 521 439 357 812 b 220 891 300 895 266 891 z "},"N":{"ha":1053,"x_min":0,"x_max":0,"o":"m 194 895 b 56 902 149 895 118 899 b 56 863 52 895 49 878 b 161 836 72 863 152 852 b 175 743 174 815 175 795 l 175 155 b 161 62 175 103 174 83 b 56 35 152 46 72 35 b 56 -4 49 20 52 3 b 201 3 118 -1 138 3 b 355 -4 260 3 301 -1 b 353 35 358 4 359 26 b 251 62 331 35 259 49 b 237 156 237 84 237 107 l 237 772 l 829 24 b 876 -7 848 0 869 -7 b 894 1 880 -7 892 -5 b 891 189 891 72 891 110 l 891 741 b 905 833 891 792 892 812 b 1010 860 914 849 994 860 b 1010 899 1017 875 1015 892 b 865 892 948 897 928 892 b 709 899 806 892 764 897 b 712 860 707 891 705 869 b 815 833 734 860 807 846 b 829 739 829 811 829 788 l 829 304 l 829 225 b 297 898 678 435 366 789 b 194 895 278 897 235 895 z "},"O":{"ha":1015,"x_min":0,"x_max":0,"o":"m 486 859 b 814 419 696 859 814 629 b 528 33 814 236 731 33 b 201 475 317 33 201 264 b 486 859 201 656 282 859 z m 506 905 b 66 445 267 905 66 699 b 506 -14 66 176 267 -14 b 948 445 745 -14 948 191 b 506 905 948 715 745 905 z "},"P":{"ha":743,"x_min":0,"x_max":0,"o":"m 703 650 b 414 894 703 807 557 894 b 221 891 334 894 274 891 b 61 898 168 891 117 895 b 61 859 54 891 56 865 b 155 837 77 859 151 852 b 161 736 161 815 161 777 l 161 157 b 155 57 161 117 161 79 b 61 35 151 42 77 35 b 61 -4 56 28 54 3 b 221 3 117 -1 168 3 b 380 -4 274 3 324 -1 b 380 35 387 3 385 28 b 286 57 363 35 290 42 b 279 157 279 79 279 117 l 279 735 b 286 837 279 776 279 821 b 354 850 292 849 338 850 b 578 627 505 850 578 761 b 385 415 578 491 494 415 b 334 425 365 415 349 420 b 327 418 328 426 327 420 b 346 388 327 401 342 391 b 404 377 359 381 389 377 b 703 650 582 377 703 484 z "},"Q":{"ha":1013,"x_min":0,"x_max":0,"o":"m 486 859 b 814 419 696 859 814 629 b 528 33 814 236 731 33 b 201 475 317 33 201 264 b 486 859 201 656 282 859 z m 506 905 b 66 445 267 905 66 699 b 397 0 66 218 209 47 b 826 -184 574 -45 681 -184 b 1051 -115 909 -184 977 -155 b 1050 -111 1051 -114 1051 -113 b 1025 -102 1046 -106 1035 -102 b 929 -110 1016 -104 983 -110 b 632 5 789 -110 762 -57 b 948 445 812 62 948 237 b 506 905 948 715 745 905 z "},"R":{"ha":842,"x_min":0,"x_max":0,"o":"m 414 894 b 221 891 334 894 274 891 b 61 898 168 891 117 895 b 61 859 54 891 56 865 b 155 837 77 859 151 852 b 161 736 161 815 161 777 l 161 157 b 155 57 161 117 161 79 b 61 35 151 42 77 35 b 61 -4 56 28 54 3 b 221 3 117 -1 168 3 b 380 -4 274 3 324 -1 b 380 35 387 3 385 28 b 286 57 363 35 290 42 b 279 157 279 79 279 117 l 279 410 l 351 410 b 392 393 370 410 384 406 b 608 72 477 260 587 99 b 696 12 640 30 677 19 b 875 -4 723 3 784 -4 b 876 35 876 -1 883 28 b 723 117 802 41 762 65 b 505 435 633 235 576 316 b 689 659 595 467 689 562 b 414 894 689 814 537 894 z m 563 647 b 353 452 563 528 458 452 l 279 452 l 279 735 b 286 837 279 776 279 821 b 354 850 292 849 338 850 b 563 647 505 850 563 765 z "},"S":{"ha":681,"x_min":0,"x_max":0,"o":"m 354 903 b 88 665 218 903 88 808 b 324 393 88 528 220 454 b 505 198 418 339 505 311 b 342 33 505 92 430 33 b 117 240 179 33 127 189 b 102 252 115 247 111 252 b 66 236 90 252 75 244 b 95 26 66 220 79 106 b 339 -14 161 12 247 -14 b 623 235 484 -14 623 85 b 387 496 623 369 476 439 b 197 707 297 553 197 598 b 345 857 197 772 233 857 b 534 663 460 857 526 731 b 549 658 538 659 545 658 b 578 673 559 658 579 663 b 559 865 575 709 570 795 b 354 903 469 886 438 903 z "},"T":{"ha":849,"x_min":0,"x_max":0,"o":"m 689 897 l 159 897 b 83 916 137 897 99 907 b 52 920 75 920 60 924 b 16 686 42 837 31 758 b 42 677 20 682 30 675 b 61 684 49 677 58 680 b 191 849 80 779 123 849 l 366 849 l 366 157 b 359 57 366 117 366 79 b 266 35 355 42 282 35 b 266 -4 260 28 259 3 b 426 3 321 -1 373 3 b 585 -4 479 3 529 -1 b 585 35 591 3 590 28 b 491 57 568 35 495 42 b 484 157 484 79 484 117 l 484 849 l 656 849 b 787 684 724 849 768 779 b 806 677 789 680 799 677 b 831 686 818 675 827 682 b 796 920 817 758 806 837 b 770 917 788 924 784 924 b 689 897 754 909 711 897 z "},"U":{"ha":981,"x_min":0,"x_max":0,"o":"m 199 891 b 39 898 146 891 95 895 b 39 859 33 891 34 865 b 133 837 56 859 129 852 b 140 736 140 815 140 777 l 140 340 b 240 84 140 232 178 144 b 481 -5 300 27 384 -5 b 836 374 693 -5 836 103 l 836 741 b 849 833 836 792 837 812 b 955 860 859 849 939 860 b 955 899 962 875 959 892 b 810 892 892 897 872 892 b 659 899 750 892 713 897 b 662 860 656 891 655 869 b 760 833 684 860 751 846 b 773 739 773 811 773 788 l 773 372 b 510 73 769 138 650 73 b 324 152 430 73 366 99 b 258 401 281 206 258 289 l 258 736 b 264 837 258 777 258 815 b 358 859 269 852 342 859 b 358 898 363 865 365 891 b 199 891 302 895 252 891 z "},"V":{"ha":865,"x_min":0,"x_max":0,"o":"m 149 891 b -8 898 87 891 54 895 b -8 859 -11 895 -11 859 b 79 827 8 859 64 849 b 141 697 102 792 121 750 b 399 19 243 437 307 260 b 412 -3 401 14 407 -3 b 464 43 430 -3 449 7 b 727 686 570 296 628 437 b 795 823 747 738 779 804 b 882 859 818 850 871 859 b 884 898 886 859 888 891 b 751 891 830 895 814 891 b 610 897 701 891 661 894 b 610 857 604 890 604 860 b 700 804 627 857 700 848 b 675 709 700 780 688 741 b 458 175 594 500 467 193 b 256 722 454 186 301 600 b 233 814 240 768 233 800 b 315 859 233 852 304 859 b 317 898 320 860 320 890 b 149 891 263 895 209 891 z "},"W":{"ha":1221,"x_min":0,"x_max":0,"o":"m 160 891 b -5 898 98 891 57 895 b -5 859 -8 895 -8 859 b 73 831 11 859 54 849 b 122 722 99 807 106 776 b 339 19 205 454 260 270 b 353 -3 340 14 347 -3 b 404 43 370 -3 397 19 b 608 689 476 283 532 439 b 830 19 608 690 764 216 b 844 -3 831 14 838 -3 b 895 43 861 -3 888 19 b 1089 720 967 286 1015 464 b 1138 823 1105 776 1119 807 b 1223 859 1165 846 1213 859 b 1226 898 1227 859 1230 891 b 1099 891 1172 895 1161 891 b 952 898 1048 891 1002 895 b 952 859 945 891 945 861 b 1044 806 968 859 1044 849 b 1028 711 1044 781 1036 743 b 886 205 978 519 944 412 b 670 876 795 475 680 846 b 654 898 663 891 659 898 b 605 853 639 898 613 879 b 400 201 564 720 464 411 b 243 726 343 393 274 613 b 222 814 229 773 222 804 b 304 859 222 852 293 859 b 307 898 309 860 309 890 b 160 891 252 895 220 891 z "},"X":{"ha":906,"x_min":0,"x_max":0,"o":"m 216 891 b 46 898 149 891 113 895 b 46 859 39 891 39 859 b 122 837 62 859 99 850 b 212 743 160 815 180 792 b 403 450 212 743 350 532 b 137 95 305 320 240 227 b -8 35 99 46 3 35 b -11 -4 -11 31 -15 4 b 156 3 43 -1 85 3 b 309 -4 206 3 259 -1 b 307 35 312 0 312 27 b 202 68 231 35 202 52 b 209 90 202 76 208 85 b 434 408 229 127 353 300 l 640 90 b 647 73 643 85 647 77 b 568 35 647 47 583 35 b 568 -4 562 35 562 3 b 766 3 644 -1 690 3 b 906 -4 822 3 852 -1 b 905 35 907 -1 910 28 b 772 90 860 35 798 50 l 505 488 b 754 803 602 618 650 678 b 875 857 793 850 864 857 b 878 897 883 865 882 890 b 728 890 845 894 799 890 b 589 897 678 890 643 892 b 591 857 585 887 586 859 b 682 822 667 857 682 834 b 677 800 682 819 682 808 b 479 533 643 746 560 642 l 321 774 b 305 815 311 791 305 804 b 387 859 305 850 368 859 b 389 898 393 859 392 890 b 216 891 335 895 282 891 z "},"Y":{"ha":811,"x_min":0,"x_max":0,"o":"m 354 157 b 347 57 354 117 354 79 b 254 35 343 42 270 35 b 254 -4 248 28 247 3 b 414 3 309 -1 361 3 b 572 -4 467 3 517 -1 b 572 35 579 3 578 28 b 479 57 556 35 483 42 b 472 157 472 79 472 117 b 473 366 472 157 473 285 b 480 408 473 378 472 393 b 694 803 538 517 643 712 b 815 857 726 857 804 857 b 818 897 819 857 821 888 b 669 890 764 894 739 890 b 533 897 618 890 583 894 b 536 857 530 892 532 857 b 631 821 612 857 631 834 b 627 800 631 812 628 804 b 450 449 606 751 517 568 l 262 774 b 245 815 251 792 245 804 b 327 859 245 850 308 859 b 330 898 334 859 332 890 b 156 891 275 895 222 891 b -14 898 90 891 53 895 b -14 859 -20 891 -20 859 b 62 837 3 859 39 850 b 152 743 100 815 123 793 b 345 400 232 600 266 543 b 354 362 351 387 354 372 z "},"Z":{"ha":859,"x_min":0,"x_max":0,"o":"m 293 849 l 624 849 l 47 19 b 72 0 42 11 57 0 l 751 0 b 817 221 768 69 784 114 b 784 233 811 227 798 233 b 765 229 777 233 766 232 b 693 96 750 190 732 136 b 567 47 665 68 625 47 l 213 47 b 787 880 213 47 784 869 b 762 910 787 891 768 909 b 477 897 648 902 591 897 l 214 897 b 103 907 178 897 132 903 b 58 677 95 815 81 739 b 94 666 62 673 81 666 b 109 671 100 666 106 667 b 293 849 138 783 201 849 z "},"[":{"ha":351,"x_min":0,"x_max":0,"o":"m 133 974 b 107 943 109 974 107 944 l 107 -156 b 133 -187 107 -157 109 -187 b 340 -195 244 -187 340 -195 b 345 -183 340 -195 345 -191 b 331 -161 345 -175 339 -164 b 172 -130 279 -144 172 -130 l 172 917 b 331 948 172 917 279 930 b 345 970 339 951 345 962 b 340 982 345 978 340 982 b 133 974 340 982 244 974 z "},"\\":{"ha":544,"x_min":0,"x_max":0,"o":"m 42 1017 b 441 -19 161 711 290 373 b 469 -38 445 -28 460 -38 b 500 -23 486 -38 499 -28 b 107 1005 500 -15 107 1005 b 69 1027 103 1016 84 1027 b 42 1017 60 1027 46 1024 z "},"]":{"ha":353,"x_min":0,"x_max":0,"o":"m 220 974 b 12 982 109 974 12 982 b 8 970 12 982 8 978 b 22 948 8 962 14 951 b 180 917 73 930 180 917 l 180 -130 b 22 -161 180 -130 73 -144 b 8 -183 14 -164 8 -175 b 12 -195 8 -191 12 -195 b 220 -187 12 -195 109 -187 b 245 -156 244 -187 245 -157 l 245 943 b 220 974 245 944 244 974 z "},"^":{"ha":529,"x_min":0,"x_max":0,"o":"m 252 875 b 232 857 245 875 237 868 b 83 595 178 750 141 697 b 104 574 83 582 96 574 b 252 749 167 639 252 749 b 401 574 252 749 339 639 b 422 595 410 574 422 582 b 274 857 363 697 328 750 b 252 875 269 868 259 875 z "},"_":{"ha":685,"x_min":0,"x_max":0,"o":"m 19 -45 b 28 -58 19 -58 28 -58 l 632 -58 b 640 -50 632 -58 637 -58 b 654 11 648 -20 654 -1 b 648 18 654 16 651 18 l 39 18 b 19 -45 26 18 19 -45 z "},"`":{"ha":464,"x_min":0,"x_max":0,"o":"m 206 928 b 157 888 159 928 157 895 b 362 711 157 845 349 711 b 374 728 372 711 374 720 b 243 917 374 736 286 863 b 206 928 241 918 225 928 z "},"a":{"ha":585,"x_min":0,"x_max":0,"o":"m 254 62 b 163 157 202 62 163 107 b 245 263 163 209 197 244 b 372 302 270 273 335 292 l 372 118 b 254 62 372 104 301 62 z m 327 591 b 80 480 228 591 122 519 b 71 448 75 473 71 453 b 117 391 71 420 88 391 b 180 456 151 391 172 410 b 255 540 190 509 208 540 b 372 410 321 540 372 471 l 372 373 b 355 339 372 349 369 345 b 118 254 316 321 194 281 b 50 145 88 243 50 201 b 209 -11 50 57 119 -11 b 376 80 256 -11 359 64 b 458 -8 384 38 419 -8 b 560 43 487 -8 544 28 b 567 69 564 50 567 61 b 562 80 567 73 566 80 b 517 62 557 77 541 62 b 475 126 486 62 475 90 l 475 406 b 327 591 475 510 404 591 z "},"b":{"ha":675,"x_min":0,"x_max":0,"o":"m 286 -9 b 621 316 479 -9 621 138 b 373 594 621 439 536 594 b 209 521 321 594 229 536 b 201 534 201 514 201 528 l 201 802 b 216 920 201 876 216 920 b 201 941 216 929 208 941 b 8 887 144 916 76 894 b 7 852 3 886 5 852 b 90 827 45 852 81 846 b 96 757 96 811 96 774 l 96 149 b 80 49 96 122 92 76 b 98 19 80 42 91 19 b 186 11 129 30 156 19 b 286 -9 214 3 266 -9 z m 308 514 b 507 263 429 514 507 420 b 327 37 507 153 425 37 b 201 133 267 37 201 75 l 201 463 b 208 477 201 469 203 473 b 308 514 220 490 273 514 z "},"c":{"ha":574,"x_min":0,"x_max":0,"o":"m 518 524 b 505 562 518 537 510 556 b 382 594 472 583 430 594 b 53 263 241 594 53 461 b 327 -11 53 122 163 -11 b 525 104 433 -11 500 65 b 533 129 529 111 533 122 b 522 148 533 140 524 148 b 378 79 505 127 453 79 b 159 308 256 79 159 149 b 311 534 159 450 239 534 b 388 509 346 534 359 528 b 467 458 411 494 437 458 b 518 524 490 458 518 475 z "},"d":{"ha":699,"x_min":0,"x_max":0,"o":"m 376 594 b 53 279 254 594 53 457 b 292 -11 53 114 168 -11 b 472 71 357 -11 452 49 b 476 62 475 73 476 69 l 476 15 b 487 -11 476 5 479 -11 b 663 27 488 -11 593 23 b 674 47 670 27 674 45 b 670 64 674 52 673 62 b 590 88 666 65 601 64 b 581 221 582 107 581 168 l 581 802 b 595 920 581 876 595 920 b 581 941 595 929 587 941 b 388 887 524 916 456 894 b 387 852 382 886 385 852 b 469 827 425 852 461 846 b 476 757 476 811 476 776 l 476 609 b 469 581 476 593 475 581 b 376 594 456 586 404 594 z m 332 537 b 476 471 408 537 476 502 l 476 127 b 358 73 476 106 419 73 b 167 312 235 73 167 184 b 332 537 167 426 229 537 z "},"e":{"ha":583,"x_min":0,"x_max":0,"o":"m 157 387 b 298 545 155 387 184 545 b 410 418 381 545 410 457 b 378 387 410 393 395 387 z m 151 336 b 492 346 167 336 450 343 b 525 410 518 347 525 370 b 321 594 525 464 484 594 b 54 271 202 594 54 453 b 326 -11 54 111 165 -11 b 524 104 431 -11 499 65 b 532 129 528 111 532 122 b 521 148 532 140 522 148 b 372 76 503 127 446 76 b 150 327 255 76 150 160 b 151 336 150 330 150 333 z "},"f":{"ha":418,"x_min":0,"x_max":0,"o":"m 365 945 b 130 594 282 945 130 791 b 130 586 130 594 130 601 l 80 586 b 45 543 79 585 45 548 b 52 530 45 538 47 530 l 130 530 l 130 157 b 123 57 130 117 130 79 b 38 35 119 42 54 35 b 38 -4 33 28 31 3 b 182 3 94 -1 129 3 b 332 -4 235 3 277 -1 b 332 35 339 3 338 28 b 241 57 316 35 245 42 b 235 157 235 79 235 117 l 235 530 l 382 530 b 401 571 395 543 401 559 b 395 586 401 579 401 586 l 235 586 l 235 736 b 309 864 233 821 267 864 b 349 852 327 864 334 860 b 388 837 363 844 374 837 b 442 891 406 837 442 842 b 429 929 442 905 434 924 b 365 945 408 943 406 945 z "},"g":{"ha":632,"x_min":0,"x_max":0,"o":"m 292 555 b 418 381 376 555 418 465 b 302 227 418 307 377 227 b 172 396 220 227 172 313 b 292 555 172 473 214 555 z m 346 -5 b 525 -110 475 -5 525 -71 b 320 -255 525 -184 414 -255 b 138 -103 205 -255 138 -191 b 220 -12 138 -68 189 -30 b 346 -5 229 -7 321 -5 z m 408 91 l 248 91 b 167 138 194 91 167 125 b 217 198 167 160 193 184 b 293 186 231 193 270 186 b 522 385 423 186 522 290 b 484 509 522 448 491 502 b 490 513 484 511 486 513 b 579 507 490 513 545 509 b 610 563 593 515 610 552 b 597 576 610 568 606 574 l 452 556 b 420 566 439 559 446 556 b 297 595 396 575 355 595 b 68 391 167 595 68 498 b 180 217 68 324 114 254 b 64 125 156 202 87 152 b 175 -1 64 57 127 14 b 31 -142 129 -24 31 -83 b 266 -308 31 -254 156 -309 b 618 -52 454 -307 618 -163 b 408 91 618 24 515 91 z "},"h":{"ha":700,"x_min":0,"x_max":0,"o":"m 416 594 b 233 495 351 594 260 525 b 229 492 232 494 231 492 b 225 495 227 492 225 494 l 225 802 b 240 920 225 876 240 920 b 225 941 240 929 232 941 b 33 887 168 916 100 894 b 31 852 27 886 30 852 b 114 827 69 852 106 846 b 121 757 121 811 121 774 l 121 157 b 114 57 121 117 121 79 b 28 35 110 42 45 35 b 28 -4 23 28 22 3 b 172 3 84 -1 119 3 b 317 -4 225 3 262 -1 b 317 35 324 3 323 28 b 232 57 301 35 236 42 b 225 157 225 79 225 117 l 225 441 b 354 515 225 453 304 515 b 487 293 460 515 487 461 l 487 157 b 480 57 487 117 487 79 b 395 35 476 42 411 35 b 395 -4 389 28 388 3 b 538 3 450 -1 486 3 b 684 -4 591 3 628 -1 b 684 35 690 3 689 28 b 598 57 667 35 602 42 b 591 157 591 79 591 117 l 591 307 b 416 594 591 503 563 594 z "},"i":{"ha":366,"x_min":0,"x_max":0,"o":"m 245 441 l 245 486 b 255 575 245 499 254 566 b 240 597 255 582 247 597 b 46 540 186 568 115 549 b 46 505 41 533 43 507 b 134 480 56 505 125 503 b 141 410 141 464 141 427 l 141 157 b 134 57 141 117 141 79 b 49 35 130 42 65 35 b 49 -4 43 28 42 3 b 193 3 104 -1 140 3 b 338 -4 245 3 282 -1 b 338 35 345 3 343 28 b 252 57 321 35 256 42 b 245 157 245 79 245 117 z m 115 804 b 183 736 115 766 145 736 b 251 804 221 736 251 766 b 183 872 251 842 221 872 b 115 804 145 872 115 842 z "},"j":{"ha":324,"x_min":0,"x_max":0,"o":"m 125 61 b -23 -283 125 -164 54 -228 b -23 -293 -24 -285 -24 -290 b -5 -313 -20 -300 -12 -309 b 229 92 87 -275 229 -168 l 229 439 l 229 486 b 239 575 229 503 237 566 b 224 597 239 582 231 597 b 30 540 170 568 99 549 b 30 505 24 533 27 507 b 118 480 39 505 109 503 b 125 410 125 464 125 427 z m 90 804 b 157 736 90 766 119 736 b 225 804 195 736 225 766 b 157 872 225 842 195 872 b 90 804 119 872 90 842 z "},"k":{"ha":703,"x_min":0,"x_max":0,"o":"m 225 157 l 225 277 b 245 264 225 277 240 271 b 439 54 323 180 439 54 b 606 -5 460 33 526 -5 b 694 3 643 -5 685 -1 b 693 35 699 9 696 31 b 568 72 658 34 604 43 b 324 338 536 99 426 228 b 544 506 404 406 529 495 b 648 537 572 526 629 537 b 648 576 652 543 654 568 b 529 570 618 572 575 570 b 399 576 486 570 438 572 b 396 537 392 574 389 547 b 461 514 408 536 461 534 b 336 401 461 500 407 461 b 225 319 290 362 248 327 l 225 802 b 240 920 225 876 240 920 b 225 941 240 929 232 941 b 33 887 168 916 100 894 b 31 852 27 886 30 852 b 114 827 69 852 106 846 b 121 757 121 811 121 776 l 121 157 b 114 57 121 117 121 79 b 28 35 110 42 45 35 b 28 -4 23 28 22 3 b 172 3 84 -1 119 3 b 317 -4 225 3 262 -1 b 317 35 324 3 323 28 b 232 57 301 35 236 42 b 225 157 225 79 225 117 z "},"l":{"ha":346,"x_min":0,"x_max":0,"o":"m 121 757 l 121 157 b 114 57 121 117 121 79 b 28 35 110 42 45 35 b 28 -4 23 28 22 3 b 172 3 84 -1 119 3 b 317 -4 225 3 262 -1 b 317 35 324 3 323 28 b 232 57 301 35 236 42 b 225 157 225 79 225 117 l 225 802 b 240 920 225 876 240 920 b 225 941 240 929 232 941 b 33 887 168 916 100 894 b 31 852 27 886 30 852 b 114 827 69 852 106 846 b 121 757 121 811 121 776 z "},"m":{"ha":1072,"x_min":0,"x_max":0,"o":"m 433 594 b 254 502 359 594 288 530 b 250 499 252 500 251 499 b 247 505 247 499 247 503 b 255 575 247 515 254 566 b 240 597 255 582 247 597 b 46 540 186 568 115 549 b 46 505 41 533 43 507 b 134 480 56 505 125 503 b 141 404 141 464 141 422 l 141 157 b 134 57 141 117 141 79 b 49 35 130 42 65 35 b 49 -4 43 28 42 3 b 193 3 104 -1 140 3 b 338 -4 245 3 282 -1 b 338 35 345 3 343 28 b 252 57 321 35 256 42 b 245 157 245 79 245 117 l 245 441 b 372 515 245 458 311 515 b 499 296 469 515 499 461 l 499 157 b 492 57 499 117 499 79 b 407 35 488 42 423 35 b 407 -4 401 28 400 3 b 551 3 463 -1 498 3 b 696 -4 604 3 640 -1 b 696 35 703 3 701 28 b 610 57 680 35 614 42 b 604 157 604 79 604 117 l 604 324 b 598 420 604 349 602 395 b 597 438 598 423 597 437 b 730 515 597 448 663 515 b 857 302 840 515 857 437 l 857 157 b 850 57 857 117 857 79 b 765 35 846 42 781 35 b 765 -4 760 28 758 3 b 909 3 821 -1 856 3 b 1054 -4 962 3 998 -1 b 1054 35 1061 3 1059 28 b 968 57 1038 35 972 42 b 962 157 962 79 962 117 l 962 307 b 787 594 962 503 933 594 b 587 481 722 594 647 536 b 433 594 566 563 513 594 z "},"n":{"ha":722,"x_min":0,"x_max":0,"o":"m 437 594 b 254 495 372 594 281 525 b 250 492 252 494 251 492 b 247 498 247 492 247 496 b 255 575 247 509 254 566 b 240 597 255 582 247 597 b 46 540 186 568 115 549 b 46 505 41 533 43 507 b 134 480 56 505 125 503 b 141 404 141 464 141 422 l 141 157 b 134 57 141 117 141 79 b 49 35 130 42 65 35 b 49 -4 43 28 42 3 b 193 3 104 -1 140 3 b 338 -4 245 3 282 -1 b 338 35 345 3 343 28 b 252 57 321 35 256 42 b 245 157 245 79 245 117 l 245 441 b 374 515 245 453 324 515 b 507 293 480 515 507 461 l 507 157 b 500 57 507 117 507 79 b 415 35 496 42 431 35 b 415 -4 410 28 408 3 b 559 3 471 -1 506 3 b 704 -4 612 3 648 -1 b 704 35 711 3 709 28 b 618 57 688 35 623 42 b 612 157 612 79 612 117 l 612 307 b 437 594 612 503 583 594 z "},"o":{"ha":690,"x_min":0,"x_max":0,"o":"m 330 551 b 518 269 450 551 518 400 b 361 35 518 153 476 35 b 172 316 239 35 172 184 b 330 551 172 433 214 551 z m 345 595 b 56 289 180 595 56 464 b 347 -9 56 119 168 -9 b 635 300 511 -9 635 125 b 345 595 635 469 524 595 z "},"p":{"ha":692,"x_min":0,"x_max":0,"o":"m 393 594 b 228 517 339 594 262 545 b 224 514 227 515 225 514 b 221 519 221 514 221 518 b 231 575 221 530 229 566 b 216 597 231 582 222 597 b 22 540 161 568 91 549 b 22 505 16 533 19 507 b 110 480 31 505 100 503 b 117 410 117 464 117 427 l 117 -145 b 110 -245 117 -186 117 -224 b 24 -267 106 -260 41 -267 b 24 -307 19 -274 18 -300 b 168 -300 80 -304 115 -300 b 313 -307 221 -300 258 -304 b 313 -267 320 -300 319 -274 b 228 -245 297 -267 232 -260 b 221 -145 221 -224 221 -186 l 221 -14 b 227 4 221 -3 227 4 b 321 -11 248 -3 286 -11 b 639 315 475 -11 639 140 b 393 594 639 431 562 594 z m 335 514 b 525 264 438 514 525 426 b 347 37 525 155 460 37 b 221 136 300 37 221 65 l 221 461 b 335 514 221 480 279 514 z "},"q":{"ha":674,"x_min":0,"x_max":0,"o":"m 347 545 b 473 450 407 545 473 509 l 473 126 b 365 72 473 106 419 72 b 167 319 252 72 167 159 b 347 545 167 401 220 545 z m 388 594 b 53 270 243 594 53 456 b 294 -9 53 149 138 -9 b 464 68 353 -9 444 50 b 473 54 471 73 473 61 l 473 -146 b 467 -247 473 -187 473 -225 b 381 -269 463 -262 397 -269 b 381 -308 376 -275 374 -301 b 525 -301 437 -305 472 -301 b 670 -308 578 -301 614 -305 b 670 -269 677 -301 675 -275 b 585 -247 654 -269 589 -262 b 578 -146 578 -225 578 -187 l 578 434 b 594 534 578 461 582 507 b 576 564 594 541 585 564 b 549 560 568 562 557 560 b 388 594 505 560 429 594 z "},"r":{"ha":519,"x_min":0,"x_max":0,"o":"m 411 593 b 251 448 350 593 278 506 b 245 450 250 446 245 445 b 255 575 245 465 254 566 b 240 597 255 582 247 597 b 46 540 186 568 115 549 b 46 505 41 533 43 507 b 134 480 56 505 125 503 b 141 410 141 464 141 427 l 141 157 b 134 57 141 117 141 79 b 49 35 130 42 65 35 b 49 -4 43 28 42 3 b 201 3 104 -1 148 3 b 369 -4 254 3 313 -1 b 369 35 376 3 374 28 b 252 57 353 35 256 42 b 245 157 245 79 245 117 l 245 366 b 354 488 245 397 296 488 b 404 472 378 488 392 480 b 454 446 419 463 435 446 b 499 517 468 446 499 467 b 494 553 499 532 496 545 b 411 593 481 575 446 593 z "},"s":{"ha":500,"x_min":0,"x_max":0,"o":"m 264 593 b 68 427 164 593 68 528 b 171 282 68 355 117 313 b 336 126 250 236 336 209 b 239 28 336 64 294 28 b 92 157 167 28 109 100 b 80 160 88 160 84 160 b 56 152 73 160 61 156 b 79 11 56 117 68 39 b 237 -15 138 0 175 -15 b 446 172 347 -15 446 62 b 290 338 446 258 351 301 b 172 465 229 374 172 395 b 269 551 172 514 203 551 b 382 426 327 551 369 476 b 406 419 389 420 399 419 b 419 426 412 419 419 420 b 403 575 418 475 412 533 b 264 593 343 582 317 593 z "},"t":{"ha":422,"x_min":0,"x_max":0,"o":"m 217 586 l 217 764 b 195 762 217 769 202 769 b 113 671 193 758 138 701 l 113 586 l 62 586 b 27 543 61 585 27 548 b 34 530 27 538 30 530 l 113 530 l 113 137 b 254 -9 113 20 184 -9 b 393 65 320 -9 374 43 b 399 85 395 66 399 77 b 395 95 399 90 397 94 b 307 64 385 88 347 64 b 217 175 247 64 217 103 l 217 530 l 380 530 b 399 571 392 543 399 559 b 392 586 399 579 399 586 z "},"u":{"ha":699,"x_min":0,"x_max":0,"o":"m 475 434 l 475 141 b 350 66 475 109 410 66 b 214 277 255 66 214 133 l 214 418 l 214 476 b 224 570 214 515 218 559 b 209 597 224 576 216 597 b 23 570 160 582 92 572 b 23 534 18 563 19 538 b 99 507 41 534 85 532 b 110 434 110 487 110 452 l 110 260 b 279 -9 110 146 136 -9 b 472 80 349 -9 434 39 b 475 73 472 80 475 80 l 475 11 b 486 -11 475 1 479 -11 b 662 27 487 -11 591 23 b 673 49 669 27 673 46 b 669 64 673 53 671 62 b 589 88 665 65 595 62 b 579 191 581 126 579 176 l 579 414 l 579 476 b 589 564 579 515 583 553 b 574 597 589 571 581 597 b 388 570 525 582 457 572 b 388 534 382 563 384 538 b 464 507 406 534 450 532 b 475 434 475 487 475 452 z "},"v":{"ha":642,"x_min":0,"x_max":0,"o":"m 138 576 b 3 583 83 576 58 581 b 3 544 -3 570 0 551 b 77 517 19 544 64 545 b 298 -9 152 363 210 199 b 311 -15 300 -12 305 -15 b 346 8 319 -15 342 -3 b 549 498 425 201 469 307 b 635 544 566 536 624 544 b 639 583 640 544 644 575 b 513 576 585 581 564 576 b 403 583 457 576 445 581 b 403 544 396 576 396 544 b 481 500 449 544 481 528 b 473 457 481 491 480 473 b 353 149 422 330 353 149 l 203 515 b 202 521 202 518 202 519 b 269 544 202 541 259 544 b 274 583 275 544 277 575 b 138 576 220 581 190 576 z "},"w":{"ha":978,"x_min":0,"x_max":0,"o":"m 137 576 b 3 583 81 576 58 581 b 3 544 -1 575 -1 552 b 76 514 19 544 64 543 b 296 -9 165 312 212 201 b 308 -15 297 -12 302 -15 b 342 11 323 -15 340 7 l 488 382 l 639 -9 b 655 -15 640 -12 647 -15 b 684 8 663 -15 680 -3 b 880 495 762 197 806 307 b 972 544 897 536 962 544 b 977 583 981 551 978 579 b 852 576 922 581 903 576 b 734 583 796 576 789 581 b 734 544 727 576 728 548 b 815 499 765 541 815 538 b 808 467 815 494 814 481 b 689 163 788 410 742 294 b 566 486 614 355 576 449 b 562 500 563 492 562 496 b 629 544 562 533 587 544 b 631 583 635 549 633 575 b 490 576 576 581 541 576 b 366 583 434 576 422 581 b 366 544 359 576 359 548 b 426 518 382 544 411 540 b 458 444 444 492 458 453 b 349 159 458 431 418 334 b 209 492 273 338 225 449 b 202 513 205 505 202 511 b 270 544 202 541 259 544 b 273 583 275 547 275 575 b 137 576 218 581 189 576 z "},"x":{"ha":646,"x_min":0,"x_max":0,"o":"m 167 576 b 33 583 114 576 77 579 b 31 544 28 575 28 544 b 122 514 58 544 107 537 b 279 279 122 514 269 296 b 146 88 273 270 146 88 b 18 35 115 46 61 42 b 15 -4 14 28 12 7 b 142 3 66 -1 91 3 b 271 -4 195 3 218 -1 b 273 35 277 3 275 35 b 198 65 241 38 198 39 b 206 91 198 72 199 80 b 304 237 244 151 278 198 b 411 68 340 183 411 68 b 414 60 412 65 414 62 b 357 35 414 43 376 37 b 355 -4 353 35 351 5 b 506 3 414 -1 448 3 b 633 -4 556 3 583 -1 b 635 35 637 1 637 35 b 530 84 595 35 557 45 b 368 326 530 84 381 305 b 503 514 380 340 454 446 b 608 544 521 537 582 543 b 609 583 610 544 610 576 b 500 576 590 581 549 576 b 363 583 445 576 419 581 b 363 544 359 578 361 545 b 439 518 372 543 439 545 b 343 362 439 491 380 419 l 254 505 b 247 521 250 511 247 517 b 301 544 247 541 279 544 b 304 583 308 552 305 578 b 167 576 274 581 222 576 z "},"y":{"ha":636,"x_min":0,"x_max":0,"o":"m 138 576 b 3 583 83 576 28 581 b 3 544 0 581 0 544 b 76 517 19 544 62 545 b 290 3 156 343 214 197 b 225 -134 286 -12 247 -106 b 71 -212 171 -208 134 -212 b 54 -251 64 -220 54 -235 b 114 -309 54 -300 88 -309 b 232 -233 159 -309 201 -279 b 339 8 281 -161 305 -75 b 543 498 418 201 463 307 b 629 544 559 536 618 544 b 632 583 635 544 637 575 b 518 576 605 581 570 576 b 396 583 463 576 416 581 b 396 544 389 576 389 544 b 475 500 442 544 475 528 b 467 457 475 491 473 473 b 347 149 415 330 347 149 l 203 515 b 201 521 202 518 201 519 b 269 544 201 541 259 544 b 274 583 275 544 277 575 b 138 576 251 581 190 576 z "},"z":{"ha":606,"x_min":0,"x_max":0,"o":"m 201 585 b 80 595 152 585 80 595 b 58 435 76 524 64 456 b 73 431 58 433 65 431 b 103 444 87 431 100 438 b 206 538 114 468 129 538 l 396 537 l 47 37 b 46 27 46 35 46 28 b 66 0 46 16 57 3 l 507 0 b 568 161 528 62 568 161 b 533 178 562 170 544 178 b 524 170 528 178 525 176 b 374 47 507 111 457 47 l 184 47 b 544 563 184 52 544 563 b 540 595 544 570 547 585 b 374 585 484 589 448 585 z "},"{":{"ha":301,"x_min":0,"x_max":0,"o":"m 141 519 b 38 406 141 448 91 419 b 35 391 35 403 35 396 b 38 376 35 385 35 378 b 141 262 91 362 141 334 b 110 160 141 227 125 194 b 79 47 94 125 79 90 b 224 -195 79 -84 165 -172 b 245 -170 235 -195 245 -182 b 138 -18 209 -152 138 -87 b 172 106 138 34 156 68 b 203 232 189 140 203 178 b 104 391 203 320 140 377 b 203 549 140 404 203 461 b 172 675 203 604 189 642 b 138 799 156 713 138 747 b 245 951 138 868 209 933 b 224 977 245 963 235 977 b 79 734 165 954 79 865 b 110 621 79 692 94 656 b 141 519 125 587 141 555 z "},"|":{"ha":278,"x_min":0,"x_max":0,"o":"m 174 -144 l 172 1039 b 161 1047 172 1039 174 1047 b 111 1038 157 1047 134 1044 b 104 1027 103 1035 104 1027 l 104 -156 b 111 -167 104 -161 102 -167 b 174 -144 114 -167 174 -155 z "},"}":{"ha":302,"x_min":0,"x_max":0,"o":"m 77 977 b 56 951 66 977 56 963 b 163 799 92 933 163 868 b 129 675 163 747 145 713 b 98 549 113 642 98 604 b 197 391 98 461 161 404 b 98 232 161 377 98 320 b 129 106 98 178 113 140 b 163 -18 145 68 163 34 b 56 -170 163 -87 92 -152 b 77 -195 56 -182 66 -195 b 222 47 136 -172 222 -84 b 191 160 222 90 208 125 b 160 262 176 194 160 227 b 263 376 160 334 210 362 b 266 391 266 380 266 384 b 263 406 266 396 264 403 b 160 519 210 419 160 448 b 191 621 160 555 176 587 b 222 734 208 656 222 692 b 77 977 222 865 136 954 z "},"~":{"ha":773,"x_min":0,"x_max":0,"o":"m 368 376 b 533 339 418 357 467 339 b 707 445 617 339 707 400 b 694 468 707 456 703 464 b 572 408 655 437 625 408 b 414 444 509 408 461 426 b 252 480 365 461 316 480 b 76 374 180 480 76 425 b 88 351 76 363 80 355 b 212 411 121 381 159 411 b 368 376 273 411 320 393 z "}," ":{"ha":294,"x_min":0,"x_max":0,"o":""},"¡":{"ha":292,"x_min":0,"x_max":0,"o":"m 72 507 b 145 434 72 467 104 434 b 221 507 186 434 221 467 b 145 583 221 548 186 583 b 72 507 104 583 72 548 z m 140 -302 b 208 -224 183 -302 208 -262 b 167 338 208 -155 186 119 b 148 353 163 346 155 350 b 126 335 136 351 132 346 b 80 -224 98 -4 80 -186 b 140 -302 80 -259 98 -302 z "},"¢":{"ha":605,"x_min":0,"x_max":0,"o":"m 369 640 l 256 -52 b 294 -61 256 -61 282 -61 l 407 632 b 369 640 407 642 380 640 z m 526 524 b 513 562 526 537 518 556 b 391 594 480 583 438 594 b 61 263 250 594 61 461 b 335 -11 61 122 171 -11 b 533 104 441 -11 509 65 b 541 129 537 111 541 122 b 530 148 541 140 532 148 b 387 79 513 127 461 79 b 167 308 264 79 167 149 b 319 534 167 450 247 534 b 396 509 354 534 368 528 b 475 458 419 494 445 458 b 526 524 498 458 526 475 z "},"£":{"ha":647,"x_min":0,"x_max":0,"o":"m 426 863 b 170 541 298 863 164 726 b 179 464 170 526 174 497 l 106 464 b 75 415 94 464 66 423 l 187 415 b 201 313 194 369 201 327 b 127 127 201 247 165 165 b 60 22 107 107 60 61 b 81 -8 60 9 71 -8 b 157 66 104 14 115 66 b 395 -11 228 66 279 -11 b 593 146 500 -11 578 103 b 597 167 595 155 597 161 b 579 189 597 178 581 189 b 444 79 567 164 518 79 b 229 142 323 79 304 142 b 182 132 214 142 201 141 b 302 369 216 163 302 267 b 299 415 302 384 301 399 l 505 415 b 517 464 513 420 536 449 l 292 464 b 274 623 284 512 274 563 b 366 800 274 716 296 800 b 414 777 384 800 393 796 b 486 727 434 758 456 727 b 537 792 509 727 537 743 b 524 830 537 806 529 825 b 426 863 491 852 473 863 z "},"¤":{"ha":779,"x_min":0,"x_max":0,"o":"m 399 206 b 237 433 313 206 237 308 b 376 628 237 534 293 628 b 536 399 461 628 536 524 b 399 206 536 297 481 206 z m 540 617 b 388 673 498 652 446 673 b 250 631 336 673 289 658 l 179 705 b 119 650 146 696 109 661 l 190 574 b 138 416 157 530 138 476 b 179 278 138 366 153 319 l 106 209 b 161 149 115 176 151 138 l 233 217 b 388 163 275 183 330 163 b 532 210 442 163 491 180 l 602 136 b 662 191 635 145 673 180 l 589 270 b 633 416 617 312 633 362 b 594 556 633 467 618 515 l 675 632 b 620 692 666 665 631 703 z "},"¥":{"ha":911,"x_min":0,"x_max":0,"o":"m 408 296 l 408 237 l 302 237 b 275 187 290 237 267 195 l 408 187 l 408 157 b 401 57 408 117 408 79 b 308 35 397 42 324 35 b 308 -4 302 28 301 3 b 468 3 363 -1 415 3 b 627 -4 521 3 571 -1 b 627 35 633 3 632 28 b 533 57 610 35 537 42 b 526 157 526 79 526 117 b 527 187 526 157 526 169 l 644 187 b 658 237 652 193 677 222 l 527 237 b 528 296 527 256 527 276 l 644 296 b 658 346 652 301 677 331 l 528 346 b 534 378 528 356 528 367 b 749 773 593 487 697 682 b 869 827 780 827 859 827 b 872 867 873 827 875 859 b 723 860 818 864 793 860 b 583 867 673 860 633 864 b 586 827 581 863 582 827 b 688 793 662 827 688 802 b 684 773 688 785 685 777 b 505 422 665 727 571 541 l 316 745 b 300 785 305 762 300 774 b 381 829 300 821 362 829 b 384 868 388 829 387 860 b 210 861 330 865 277 861 b 41 868 144 861 107 865 b 41 829 34 861 34 829 b 117 807 57 829 94 821 b 206 713 155 785 178 764 b 399 370 286 570 320 513 b 407 346 403 362 405 354 l 302 346 b 275 296 290 346 267 304 z "},"¦":{"ha":290,"x_min":0,"x_max":0,"o":"m 180 543 l 180 1036 b 170 1044 180 1036 182 1044 b 118 1038 165 1044 141 1044 b 111 1027 110 1035 111 1027 l 111 533 b 118 522 111 528 109 522 b 180 543 121 522 180 532 z m 111 -156 b 118 -167 111 -161 109 -167 b 180 -146 121 -167 180 -157 l 180 347 b 170 355 180 347 182 355 b 118 349 165 355 141 355 b 111 338 110 346 111 338 z "},"§":{"ha":598,"x_min":0,"x_max":0,"o":"m 187 -106 b 387 -31 274 -106 343 -76 b 366 -47 379 -38 372 -43 b 374 -4 369 -31 366 -19 b 420 45 388 19 420 45 b 435 69 426 54 431 62 b 437 92 436 77 437 85 b 277 326 437 190 342 266 b 125 597 203 393 125 484 b 164 710 125 646 142 673 b 213 811 169 748 186 783 b 52 537 154 758 52 626 b 209 260 52 420 138 326 b 374 35 273 202 374 98 b 264 -38 374 -16 307 -38 b 221 -27 244 -38 232 -33 b 172 -11 208 -20 195 -11 b 123 -60 151 -11 123 -41 b 132 -95 123 -68 125 -81 b 187 -106 151 -103 168 -106 z m 387 -31 b 435 69 414 -3 430 32 b 475 183 458 107 475 134 b 323 454 475 296 396 387 b 163 688 258 514 163 590 b 164 710 163 695 163 703 b 179 735 169 718 174 726 b 225 784 179 735 212 761 b 233 827 233 799 231 811 b 213 811 227 823 221 818 b 412 886 256 856 325 886 b 468 875 431 886 449 883 b 476 840 475 861 476 848 b 427 791 476 821 449 791 b 378 807 404 791 392 800 b 335 818 368 812 355 818 b 225 745 293 818 225 796 b 391 519 225 682 327 578 b 548 243 461 454 548 359 b 387 -31 548 154 446 22 z "},"¨":{"ha":511,"x_min":0,"x_max":0,"o":"m 381 764 b 316 701 347 764 316 735 b 380 639 316 667 346 639 b 444 700 414 639 444 666 b 381 764 444 734 415 764 z m 133 764 b 68 701 99 764 68 735 b 132 639 68 667 98 639 b 195 700 165 639 195 666 b 133 764 195 734 167 764 z "},"©":{"ha":894,"x_min":0,"x_max":0,"o":"m 618 374 b 591 378 617 377 595 378 b 571 334 589 378 587 349 b 473 308 553 317 514 308 b 331 468 411 308 331 358 b 461 609 331 543 388 609 b 587 537 557 609 583 555 b 597 534 590 536 593 534 b 618 547 606 534 618 540 b 597 629 618 552 597 629 b 445 655 551 647 486 655 b 254 456 332 655 254 564 b 448 264 254 349 338 264 b 591 290 505 264 548 273 b 618 374 601 294 618 370 z m 121 464 b 448 792 121 644 267 792 b 776 464 628 792 776 644 b 448 136 776 283 628 136 b 121 464 267 136 121 283 z m 76 464 b 446 94 76 259 241 94 b 818 464 651 94 818 259 b 446 834 818 669 651 834 b 76 464 241 834 76 669 z "},"ª":{"ha":468,"x_min":0,"x_max":0,"o":"m 205 388 b 141 454 170 388 141 419 b 199 522 141 490 165 509 b 286 549 216 529 260 541 l 286 434 b 205 388 286 425 237 388 z m 255 754 b 84 678 186 754 113 705 b 77 655 80 674 77 659 b 110 616 77 636 90 616 b 153 661 133 616 148 628 b 206 713 160 697 174 713 b 286 629 258 713 286 671 l 286 604 b 275 581 286 587 285 585 b 111 521 248 568 164 540 b 64 446 91 513 64 484 b 174 338 64 385 111 338 b 289 400 206 338 278 389 b 346 339 294 372 319 339 b 416 376 366 339 406 365 b 422 393 419 380 422 388 b 418 400 422 396 420 400 b 387 388 415 399 403 388 b 358 433 365 388 358 407 l 358 627 b 255 754 358 699 308 754 z "},"«":{"ha":654,"x_min":0,"x_max":0,"o":"m 281 334 b 288 312 281 326 285 316 b 571 96 465 205 570 98 b 601 113 593 103 598 109 b 400 335 593 141 463 279 b 601 557 463 391 593 529 b 571 574 598 562 593 567 b 288 358 570 572 465 465 b 281 334 282 346 281 347 z m 37 334 b 43 312 37 326 41 316 b 327 96 221 205 326 98 b 357 113 349 103 354 109 b 156 335 349 141 218 279 b 357 557 218 391 349 529 b 327 574 354 562 349 567 b 43 358 326 572 221 465 b 37 334 38 346 37 347 z "},"¬":{"ha":796,"x_min":0,"x_max":0,"o":"m 700 570 l 81 570 b 61 507 68 570 61 507 b 69 494 61 494 69 494 l 618 494 l 618 218 b 636 209 623 210 636 209 b 700 229 663 209 699 228 z "},"®":{"ha":894,"x_min":0,"x_max":0,"o":"m 438 750 b 357 749 404 750 378 749 b 279 751 335 749 302 750 b 279 732 277 749 277 735 b 319 723 286 732 317 730 b 321 681 321 713 321 697 l 321 441 b 319 399 321 423 321 408 b 279 389 317 392 286 389 b 279 370 277 387 277 373 b 354 373 302 372 332 373 b 427 370 376 373 404 372 b 427 389 430 373 430 387 b 388 399 420 389 389 392 b 385 441 385 408 385 423 l 385 547 l 406 547 b 423 540 414 547 419 545 b 518 401 460 484 510 412 b 555 377 532 384 547 380 b 647 370 566 373 609 370 b 648 389 647 372 651 387 b 583 420 617 392 601 399 b 486 556 545 467 515 506 b 560 650 525 571 560 609 b 438 750 560 715 490 750 z m 495 636 b 410 571 495 591 458 571 l 385 571 l 385 678 b 388 722 385 696 385 715 b 416 727 391 727 410 727 b 495 636 480 727 495 688 z m 121 552 b 448 879 121 732 267 879 b 776 552 628 879 776 732 b 448 224 776 372 628 224 b 121 552 267 224 121 372 z m 76 552 b 446 180 76 347 241 180 b 818 552 651 180 818 347 b 446 922 818 757 651 922 b 76 552 241 922 76 757 z "},"¯":{"ha":458,"x_min":0,"x_max":0,"o":"m 378 675 b 387 732 392 690 396 726 l 83 732 b 75 675 71 724 61 681 z "},"°":{"ha":372,"x_min":0,"x_max":0,"o":"m 102 727 b 186 810 102 773 140 810 b 269 727 232 810 269 773 b 186 643 269 681 232 643 b 102 727 140 643 102 681 z m 52 727 b 186 593 52 654 113 593 b 319 727 259 593 319 654 b 186 860 319 800 259 860 b 52 727 113 860 52 800 z "},"±":{"ha":743,"x_min":0,"x_max":0,"o":"m 66 84 b 46 22 53 73 46 27 b 54 8 46 8 54 8 l 675 8 b 697 68 686 19 697 46 b 685 84 697 79 690 84 z m 66 490 b 46 427 53 479 46 433 b 54 414 46 414 54 414 l 332 414 l 332 137 b 350 125 332 132 340 125 b 408 140 363 125 392 127 l 408 414 l 675 414 b 697 473 686 425 697 452 b 685 490 697 484 690 490 l 408 490 l 408 768 b 391 776 408 768 404 776 b 332 761 381 776 354 769 l 332 490 z "},"²":{"ha":486,"x_min":0,"x_max":0,"o":"m 434 488 b 415 496 430 494 419 496 b 408 492 411 495 410 495 b 327 419 400 479 382 419 l 164 419 b 334 595 229 486 297 552 b 396 732 374 644 396 688 b 235 878 396 818 330 878 b 77 773 172 878 109 827 b 100 750 76 766 95 745 b 218 817 125 780 157 817 b 308 719 275 817 308 776 b 244 567 308 670 282 617 b 53 361 189 492 107 420 b 69 345 50 355 61 345 l 384 345 b 434 488 403 389 419 449 z "},"³":{"ha":431,"x_min":0,"x_max":0,"o":"m 220 876 b 85 795 148 876 104 823 b 98 773 84 793 91 776 b 193 823 106 781 142 823 b 262 754 228 823 262 789 b 136 633 262 688 202 647 b 136 620 134 631 134 625 b 142 605 137 614 140 608 b 197 616 149 606 172 616 b 294 499 247 616 294 566 b 197 376 294 416 254 376 b 144 396 176 376 157 382 b 95 435 127 412 118 435 b 53 391 73 435 53 418 b 69 358 53 373 69 358 b 160 338 83 346 130 338 b 381 524 278 338 381 404 b 259 659 381 613 294 659 b 338 772 289 673 338 712 b 220 876 338 841 277 876 z "},"´":{"ha":353,"x_min":0,"x_max":0,"o":"m 236 928 b 199 917 217 928 201 918 b 68 728 156 863 68 736 b 80 711 68 720 71 711 b 285 888 94 711 285 845 b 236 928 285 895 283 928 z "},"µ":{"ha":734,"x_min":0,"x_max":0,"o":"m 195 302 b 202 334 195 302 201 326 b 233 543 228 454 233 518 b 161 593 233 560 175 593 b 129 566 145 593 136 576 b 129 404 130 514 129 422 b 134 277 129 373 134 309 b 106 -258 118 136 106 -233 b 178 -308 106 -275 164 -308 b 210 -281 194 -308 203 -292 b 187 137 180 -121 190 103 b 273 -12 194 96 216 -12 b 483 193 368 -12 442 98 b 571 -5 486 156 506 -4 b 697 103 625 -5 680 43 b 693 118 697 107 696 113 b 681 130 689 125 685 130 b 612 90 671 118 647 90 b 517 264 549 90 517 168 b 530 334 517 264 528 320 b 562 543 549 454 562 518 b 490 593 562 560 503 593 b 457 566 473 593 464 576 b 457 404 458 514 457 422 l 457 308 b 264 87 423 210 355 87 b 195 302 216 87 195 195 z "},"¶":{"ha":656,"x_min":0,"x_max":0,"o":"m 437 452 b 359 445 431 448 368 445 l 359 821 b 397 829 368 829 384 829 b 437 822 411 829 431 827 z m 435 396 l 437 157 b 433 57 437 117 437 79 b 397 49 431 49 407 49 b 363 57 392 49 365 47 b 359 157 359 79 359 117 l 359 391 b 435 396 381 392 416 395 z m 490 406 b 532 419 500 407 517 412 b 571 469 541 423 570 456 b 557 477 571 475 564 477 b 491 460 557 477 498 458 l 491 732 b 495 819 491 802 492 810 b 572 846 502 836 552 846 b 574 886 579 850 581 879 b 410 879 574 886 500 879 b 278 884 330 879 358 884 b 46 636 167 884 46 784 b 307 389 46 541 133 389 l 307 157 b 300 57 307 117 307 79 b 217 31 296 42 228 31 b 214 -5 210 26 212 3 b 403 3 269 -3 340 3 b 585 -5 488 3 499 -3 b 585 31 587 -3 587 31 b 496 57 568 31 500 42 b 490 157 490 79 490 117 z "},"·":{"ha":304,"x_min":0,"x_max":0,"o":"m 73 358 b 152 278 73 315 109 278 b 231 358 195 278 231 315 b 152 437 231 401 195 437 b 73 358 109 437 73 401 z "},"¸":{"ha":313,"x_min":0,"x_max":0,"o":"m 152 -37 l 176 -5 l 148 -5 b 104 -75 137 -24 117 -54 b 118 -92 102 -80 115 -92 b 153 -83 132 -87 138 -83 b 195 -129 171 -83 195 -96 b 137 -174 195 -152 175 -174 b 87 -156 115 -174 103 -156 b 68 -175 79 -156 68 -165 b 72 -194 68 -183 71 -187 b 118 -206 80 -199 102 -206 b 245 -103 189 -206 245 -167 b 186 -37 245 -68 221 -37 z "},"¹":{"ha":396,"x_min":0,"x_max":0,"o":"m 167 703 l 167 458 b 159 396 167 445 165 414 b 83 377 155 387 99 377 b 83 343 76 377 76 347 b 218 347 136 345 165 347 b 349 343 271 347 296 345 b 349 378 353 349 353 378 b 278 397 338 378 282 388 b 267 461 269 419 267 434 l 267 743 b 279 853 267 796 279 853 b 263 884 278 857 271 884 l 260 884 b 57 784 256 884 201 844 b 53 773 54 783 53 777 b 65 750 53 765 57 754 b 141 772 92 760 125 772 b 167 703 156 772 167 765 z "},"º":{"ha":526,"x_min":0,"x_max":0,"o":"m 254 719 b 381 530 342 719 381 618 b 277 368 381 456 351 368 b 145 557 187 368 145 468 b 254 719 145 633 175 719 z m 266 751 b 52 541 145 751 52 656 b 266 335 52 429 148 335 b 475 547 384 335 475 434 b 266 751 475 659 384 751 z "},"»":{"ha":654,"x_min":0,"x_max":0,"o":"m 376 334 b 369 358 376 347 374 346 b 85 574 191 465 87 572 b 56 557 64 567 58 562 b 256 335 64 529 194 391 b 56 113 194 279 64 141 b 85 96 58 109 64 103 b 369 312 87 98 191 205 b 376 334 372 316 376 326 z m 620 334 b 613 358 620 347 618 346 b 330 574 435 465 331 572 b 300 557 308 567 302 562 b 500 335 308 529 438 391 b 300 113 438 279 308 141 b 330 96 302 109 308 103 b 613 312 331 98 435 205 b 620 334 616 316 620 326 z "},"¼":{"ha":948,"x_min":0,"x_max":0,"o":"m 822 552 b 795 536 811 552 800 543 l 517 165 b 530 144 518 151 524 145 l 754 144 l 754 3 b 798 -4 761 -3 780 -4 b 838 0 817 -4 836 -3 l 838 144 l 890 144 b 882 198 901 163 894 187 l 834 198 l 834 536 b 822 552 834 543 830 552 z m 754 205 l 600 205 b 754 414 661 283 699 343 z m 236 724 b 247 844 236 777 247 844 b 229 865 247 853 239 863 b 46 757 114 798 72 773 b 64 732 49 749 56 736 b 129 753 91 742 114 753 b 152 705 142 753 152 731 l 152 453 b 141 391 152 439 148 408 b 73 370 137 381 90 370 b 73 340 68 365 66 345 b 198 345 126 342 145 345 b 315 340 251 345 262 342 b 313 370 316 343 320 363 b 245 389 302 370 248 380 b 236 456 239 410 236 429 z m 252 -18 b 296 3 274 -22 292 -5 l 764 860 b 753 873 764 864 761 872 b 711 863 730 878 712 867 l 237 -5 b 252 -18 237 -5 237 -15 z "},"½":{"ha":1017,"x_min":0,"x_max":0,"o":"m 772 532 b 614 427 709 532 646 481 b 637 404 613 420 632 399 b 755 471 662 434 694 471 b 845 373 812 471 845 430 b 769 206 845 319 812 262 b 590 15 715 137 642 71 b 606 -1 587 9 598 -1 l 921 -1 b 971 142 940 43 956 103 b 952 151 967 148 956 151 b 945 146 948 149 947 149 b 864 73 937 133 920 73 l 701 73 b 871 250 766 140 834 206 b 933 387 911 298 933 342 b 772 532 933 472 867 532 z m 240 724 b 251 844 240 777 251 844 b 233 865 251 853 243 863 b 50 757 118 798 76 773 b 68 732 53 749 60 736 b 133 753 95 742 118 753 b 156 705 146 753 156 731 l 156 453 b 145 391 156 439 152 408 b 77 370 141 381 94 370 b 77 340 72 365 71 345 b 202 345 130 342 149 345 b 319 340 255 345 266 342 b 317 370 320 343 324 363 b 250 389 307 370 252 380 b 240 456 243 410 240 429 z m 765 860 b 754 873 765 864 762 872 b 712 863 731 878 713 867 l 239 -5 b 254 -18 239 -5 239 -15 b 297 3 275 -22 293 -5 z "},"¾":{"ha":949,"x_min":0,"x_max":0,"o":"m 823 552 b 796 536 812 552 802 543 l 518 165 b 532 144 519 151 525 145 l 755 144 l 755 3 b 799 -4 762 -3 781 -4 b 840 0 818 -4 837 -3 l 840 144 l 891 144 b 883 198 902 163 895 187 l 836 198 l 836 536 b 823 552 836 543 831 552 z m 755 205 l 601 205 b 755 414 662 283 700 343 z m 214 876 b 80 795 142 876 99 823 b 92 773 79 793 85 776 b 187 823 100 781 137 823 b 256 754 222 823 256 789 b 130 633 256 688 197 647 b 130 621 129 631 129 625 b 137 605 132 614 134 608 b 191 616 144 606 167 616 b 289 499 241 616 289 566 b 191 376 289 416 248 376 b 138 396 171 376 152 382 b 90 435 122 412 113 435 b 47 391 68 435 47 418 b 64 358 47 373 64 358 b 155 338 77 346 125 338 b 376 524 273 338 376 404 b 254 659 376 613 289 659 b 332 772 283 673 332 712 b 214 876 332 841 271 876 z m 772 860 b 761 873 772 864 769 872 b 719 863 738 878 720 867 l 245 -5 b 260 -18 245 -5 245 -15 b 304 3 282 -22 300 -5 z "},"¿":{"ha":468,"x_min":0,"x_max":0,"o":"m 391 507 b 315 583 391 548 355 583 b 241 507 274 583 241 548 b 315 434 241 467 274 434 b 391 507 355 434 391 467 z m 346 338 b 328 353 342 346 335 350 b 307 335 316 351 312 346 b 298 240 307 304 311 262 b 193 156 290 225 229 178 b 56 -52 91 98 56 41 b 323 -302 56 -210 233 -302 b 388 -293 351 -302 374 -300 b 400 -243 395 -283 400 -263 b 340 -175 400 -198 359 -175 b 224 -203 305 -175 296 -203 b 123 -92 172 -203 123 -163 b 241 46 123 -27 175 4 b 357 214 292 79 357 114 b 346 338 357 251 353 309 z "},"À":{"ha":850,"x_min":0,"x_max":0,"o":"m 129 189 b 65 61 110 140 92 96 b -16 35 52 43 0 35 b -16 -4 -20 26 -20 0 b 129 3 46 -1 66 3 b 260 -4 189 3 206 -1 b 258 35 263 4 262 31 b 164 73 247 35 164 41 b 183 170 164 91 167 122 b 244 335 206 235 244 335 b 251 339 244 335 248 339 b 397 343 312 343 342 343 b 532 342 431 343 496 345 b 540 336 536 342 540 336 b 632 72 540 336 632 113 b 627 53 632 64 631 57 b 551 35 614 42 567 35 b 549 -4 544 28 543 3 b 707 3 612 -1 644 3 b 856 -4 766 3 802 -1 b 853 35 857 0 860 26 b 761 81 842 35 774 49 b 727 171 758 87 746 121 l 450 895 b 442 899 446 897 446 899 b 391 860 430 899 397 873 b 129 189 308 648 129 189 z m 395 735 l 514 407 b 510 400 514 407 513 400 b 396 396 468 397 438 396 b 273 399 365 396 308 397 b 270 404 270 399 270 404 z m 481 1000 b 317 1164 481 1009 365 1128 b 293 1168 312 1166 304 1168 b 231 1127 240 1168 231 1143 b 473 987 231 1080 450 987 b 481 1000 477 987 481 996 z "},"Á":{"ha":850,"x_min":0,"x_max":0,"o":"m 129 189 b 65 61 110 140 92 96 b -16 35 52 43 0 35 b -16 -4 -20 26 -20 0 b 129 3 46 -1 66 3 b 260 -4 189 3 206 -1 b 258 35 263 4 262 31 b 164 73 247 35 164 41 b 183 170 164 91 167 122 b 244 335 206 235 244 335 b 251 339 244 335 248 339 b 397 343 312 343 342 343 b 532 342 431 343 496 345 b 540 336 536 342 540 336 b 632 72 540 336 632 113 b 627 53 632 64 631 57 b 551 35 614 42 567 35 b 549 -4 544 28 543 3 b 707 3 612 -1 644 3 b 856 -4 766 3 802 -1 b 853 35 857 0 860 26 b 761 81 842 35 774 49 b 727 171 758 87 746 121 l 450 895 b 442 899 446 897 446 899 b 391 860 430 899 397 873 b 129 189 308 648 129 189 z m 395 735 l 514 407 b 510 400 514 407 513 400 b 396 396 468 397 438 396 b 273 399 365 396 308 397 b 270 404 270 399 270 404 z m 365 1000 b 373 987 365 996 369 987 b 616 1127 396 987 616 1080 b 553 1168 616 1143 606 1168 b 529 1164 543 1168 534 1166 b 365 1000 481 1128 365 1009 z "},"Â":{"ha":850,"x_min":0,"x_max":0,"o":"m 129 189 b 65 61 110 140 92 96 b -16 35 52 43 0 35 b -16 -4 -20 26 -20 0 b 129 3 46 -1 66 3 b 260 -4 189 3 206 -1 b 258 35 263 4 262 31 b 164 73 247 35 164 41 b 183 170 164 91 167 122 b 244 335 206 235 244 335 b 251 339 244 335 248 339 b 397 343 312 343 342 343 b 532 342 431 343 496 345 b 540 336 536 342 540 336 b 632 72 540 336 632 113 b 627 53 632 64 631 57 b 551 35 614 42 567 35 b 549 -4 544 28 543 3 b 707 3 612 -1 644 3 b 856 -4 766 3 802 -1 b 853 35 857 0 860 26 b 761 81 842 35 774 49 b 727 171 758 87 746 121 l 450 895 b 442 899 446 897 446 899 b 391 860 430 899 397 873 b 129 189 308 648 129 189 z m 395 735 l 514 407 b 510 400 514 407 513 400 b 396 396 468 397 438 396 b 273 399 365 396 308 397 b 270 404 270 399 270 404 z m 441 1165 b 425 1154 435 1165 430 1160 b 285 1009 369 1093 343 1070 b 300 986 285 1001 292 986 l 441 1073 b 582 986 441 1073 559 1001 b 595 1009 590 986 595 1001 b 457 1154 537 1072 511 1096 b 441 1165 452 1160 446 1165 z "},"Ã":{"ha":850,"x_min":0,"x_max":0,"o":"m 129 189 b 65 61 110 140 92 96 b -16 35 52 43 0 35 b -16 -4 -20 26 -20 0 b 129 3 46 -1 66 3 b 260 -4 189 3 206 -1 b 258 35 263 4 262 31 b 164 73 247 35 164 41 b 183 170 164 91 167 122 b 244 335 206 235 244 335 b 251 339 244 335 248 339 b 397 343 312 343 342 343 b 532 342 431 343 496 345 b 540 336 536 342 540 336 b 632 72 540 336 632 113 b 627 53 632 64 631 57 b 551 35 614 42 567 35 b 549 -4 544 28 543 3 b 707 3 612 -1 644 3 b 856 -4 766 3 802 -1 b 853 35 857 0 860 26 b 761 81 842 35 774 49 b 727 171 758 87 746 121 l 450 895 b 442 899 446 897 446 899 b 391 860 430 899 397 873 b 129 189 308 648 129 189 z m 395 735 l 514 407 b 510 400 514 407 513 400 b 396 396 468 397 438 396 b 273 399 365 396 308 397 b 270 404 270 399 270 404 z m 366 1100 b 273 1051 330 1100 298 1082 b 254 1004 263 1039 254 1021 b 262 989 254 998 256 989 b 349 1040 271 994 294 1040 b 433 1008 376 1040 404 1024 b 524 978 460 993 487 978 b 617 1028 560 978 591 997 b 636 1076 627 1040 636 1058 b 628 1089 636 1081 633 1089 b 540 1038 618 1084 594 1038 b 457 1070 518 1038 486 1054 b 366 1100 430 1085 403 1100 z "},"Ä":{"ha":850,"x_min":0,"x_max":0,"o":"m 496 1055 b 564 987 496 1017 526 987 b 632 1055 602 987 632 1017 b 564 1123 632 1093 602 1123 b 496 1055 526 1123 496 1093 z m 251 1055 b 319 987 251 1017 281 987 b 387 1055 357 987 387 1017 b 319 1123 387 1093 357 1123 b 251 1055 281 1123 251 1093 z m 129 189 b 65 61 110 140 92 96 b -16 35 52 43 0 35 b -16 -4 -20 26 -20 0 b 129 3 46 -1 66 3 b 260 -4 189 3 206 -1 b 258 35 263 4 262 31 b 164 73 247 35 164 41 b 183 170 164 91 167 122 b 244 335 206 235 244 335 b 251 339 244 335 248 339 b 397 343 312 343 342 343 b 532 342 431 343 496 345 b 540 336 536 342 540 336 b 632 72 540 336 632 113 b 627 53 632 64 631 57 b 551 35 614 42 567 35 b 549 -4 544 28 543 3 b 707 3 612 -1 644 3 b 856 -4 766 3 802 -1 b 853 35 857 0 860 26 b 761 81 842 35 774 49 b 727 171 758 87 746 121 l 450 895 b 442 899 446 897 446 899 b 391 860 430 899 397 873 b 129 189 308 648 129 189 z m 395 735 l 514 407 b 510 400 514 407 513 400 b 396 396 468 397 438 396 b 273 399 365 396 308 397 b 270 404 270 399 270 404 z "},"Å":{"ha":850,"x_min":0,"x_max":0,"o":"m 129 189 b 65 61 110 140 92 96 b -16 35 52 43 0 35 b -16 -4 -20 26 -20 0 b 129 3 46 -1 66 3 b 260 -4 189 3 206 -1 b 258 35 263 4 262 31 b 164 73 247 35 164 41 b 183 170 164 91 167 122 b 244 335 206 235 244 335 b 251 339 244 335 248 339 b 397 343 312 343 342 343 b 532 342 431 343 496 345 b 540 336 536 342 540 336 b 632 72 540 336 632 113 b 627 53 632 64 631 57 b 551 35 614 42 567 35 b 549 -4 544 28 543 3 b 707 3 612 -1 644 3 b 856 -4 766 3 802 -1 b 853 35 857 0 860 26 b 761 81 842 35 774 49 b 727 171 758 87 746 121 l 450 895 b 442 899 446 897 446 899 b 391 860 430 899 397 873 b 129 189 308 648 129 189 z m 395 735 l 514 407 b 510 400 514 407 513 400 b 396 396 468 397 438 396 b 273 399 365 396 308 397 b 270 404 270 399 270 404 z m 361 1020 b 437 1095 361 1062 396 1095 b 510 1020 477 1095 510 1062 b 437 944 510 978 477 944 b 361 1020 396 944 361 978 z m 316 1020 b 437 898 316 954 372 898 b 555 1020 502 898 555 954 b 437 1141 555 1086 502 1141 b 316 1020 372 1141 316 1086 z "},"Æ":{"ha":1217,"x_min":0,"x_max":0,"o":"m 642 0 b 1104 -5 822 0 956 -5 b 1177 220 1114 54 1152 146 b 1143 228 1173 224 1157 228 b 1124 220 1134 228 1126 225 b 1039 83 1103 161 1082 109 b 868 46 1001 60 932 46 l 803 46 b 707 60 746 46 724 46 b 699 153 699 66 699 133 l 699 411 b 796 423 699 423 758 423 b 940 412 848 423 925 422 b 978 323 952 404 958 400 b 1000 312 981 316 990 312 b 1021 317 1009 312 1019 315 l 1021 574 b 998 581 1017 578 1008 581 b 978 571 989 581 979 578 b 829 473 955 481 959 473 l 757 473 b 699 481 727 473 699 475 l 699 735 b 705 831 699 772 699 810 b 799 846 709 845 783 846 l 916 846 b 1073 719 987 846 1043 827 b 1092 709 1074 712 1082 709 b 1116 716 1101 709 1112 712 b 1077 901 1104 777 1086 833 b 642 891 929 901 769 891 b 484 892 551 891 484 892 b 484 853 481 890 477 861 b 545 819 500 853 545 844 b 536 792 545 810 540 799 l 160 186 b 58 61 133 141 92 83 b -19 35 39 49 -3 35 b -19 -4 -23 26 -23 0 b 122 3 43 -1 60 3 b 254 -4 182 3 199 -1 b 251 35 256 4 255 31 b 164 71 240 35 164 38 b 218 175 164 88 191 133 b 317 338 260 241 317 338 b 324 342 317 338 321 342 b 463 349 387 346 407 349 b 583 346 496 349 559 347 l 583 183 b 574 66 583 160 582 98 b 484 35 567 50 500 35 b 484 -4 481 35 479 3 b 642 0 484 -4 551 0 z m 583 403 b 469 400 557 401 511 400 b 362 401 438 400 397 400 b 361 407 359 401 361 407 b 583 768 361 407 555 723 z "},"Ç":{"ha":914,"x_min":0,"x_max":0,"o":"m 515 -37 l 545 0 l 511 0 b 460 -81 499 -23 475 -57 b 476 -102 457 -88 473 -102 b 518 -91 492 -95 500 -91 b 567 -145 538 -91 567 -107 b 498 -198 567 -172 543 -198 b 439 -178 472 -198 458 -178 b 416 -199 430 -178 416 -189 b 422 -222 416 -209 420 -214 b 476 -236 431 -229 457 -236 b 627 -115 559 -236 627 -190 b 556 -37 627 -73 598 -37 z m 525 905 b 66 437 258 905 66 690 b 519 -8 66 197 251 -8 b 811 53 644 -8 736 11 b 859 248 830 69 859 221 b 815 259 846 256 829 260 b 732 102 806 214 785 149 b 553 37 693 66 636 37 b 201 465 317 37 201 254 b 532 860 201 655 331 860 b 798 662 758 860 789 704 b 814 658 802 659 806 658 b 844 675 827 658 845 667 b 812 876 844 689 812 876 b 525 905 712 898 614 905 z "},"È":{"ha":796,"x_min":0,"x_max":0,"o":"m 221 891 b 61 898 168 891 117 895 b 61 859 54 891 56 865 b 155 837 77 859 151 852 b 161 736 161 815 161 777 l 161 157 b 155 57 161 117 161 79 b 61 35 151 42 77 35 b 61 -4 56 28 54 3 b 222 0 114 -4 159 0 b 685 -5 403 0 537 -5 b 758 220 694 54 732 146 b 724 228 754 224 738 228 b 705 220 715 228 707 225 b 620 83 684 161 663 109 b 449 46 582 60 513 46 l 384 46 b 288 60 327 46 305 46 b 279 153 279 66 279 133 l 279 411 b 377 423 279 423 339 423 b 521 412 429 423 506 422 b 559 323 533 404 538 400 b 581 312 562 316 571 312 b 602 317 590 312 600 315 l 602 574 b 579 581 598 578 589 581 b 559 571 570 581 560 578 b 410 473 536 481 540 473 l 338 473 b 279 481 308 473 279 475 l 279 735 b 286 831 279 772 279 810 b 380 846 290 845 363 846 l 496 846 b 654 719 568 846 624 827 b 673 709 655 712 663 709 b 697 716 682 709 693 712 b 658 901 685 777 667 833 b 221 891 510 901 349 891 z m 465 1000 b 301 1164 465 1009 349 1128 b 277 1168 296 1166 288 1168 b 214 1127 224 1168 214 1143 b 457 987 214 1080 434 987 b 465 1000 461 987 465 996 z "},"É":{"ha":796,"x_min":0,"x_max":0,"o":"m 221 891 b 61 898 168 891 117 895 b 61 859 54 891 56 865 b 155 837 77 859 151 852 b 161 736 161 815 161 777 l 161 157 b 155 57 161 117 161 79 b 61 35 151 42 77 35 b 61 -4 56 28 54 3 b 222 0 114 -4 159 0 b 685 -5 403 0 537 -5 b 758 220 694 54 732 146 b 724 228 754 224 738 228 b 705 220 715 228 707 225 b 620 83 684 161 663 109 b 449 46 582 60 513 46 l 384 46 b 288 60 327 46 305 46 b 279 153 279 66 279 133 l 279 411 b 377 423 279 423 339 423 b 521 412 429 423 506 422 b 559 323 533 404 538 400 b 581 312 562 316 571 312 b 602 317 590 312 600 315 l 602 574 b 579 581 598 578 589 581 b 559 571 570 581 560 578 b 410 473 536 481 540 473 l 338 473 b 279 481 308 473 279 475 l 279 735 b 286 831 279 772 279 810 b 380 846 290 845 363 846 l 496 846 b 654 719 568 846 624 827 b 673 709 655 712 663 709 b 697 716 682 709 693 712 b 658 901 685 777 667 833 b 221 891 510 901 349 891 z m 347 1000 b 355 987 347 996 351 987 b 598 1127 378 987 598 1080 b 536 1168 598 1143 589 1168 b 511 1164 525 1168 517 1166 b 347 1000 464 1128 347 1009 z "},"Ê":{"ha":796,"x_min":0,"x_max":0,"o":"m 221 891 b 61 898 168 891 117 895 b 61 859 54 891 56 865 b 155 837 77 859 151 852 b 161 736 161 815 161 777 l 161 157 b 155 57 161 117 161 79 b 61 35 151 42 77 35 b 61 -4 56 28 54 3 b 222 0 114 -4 159 0 b 685 -5 403 0 537 -5 b 758 220 694 54 732 146 b 724 228 754 224 738 228 b 705 220 715 228 707 225 b 620 83 684 161 663 109 b 449 46 582 60 513 46 l 384 46 b 288 60 327 46 305 46 b 279 153 279 66 279 133 l 279 411 b 377 423 279 423 339 423 b 521 412 429 423 506 422 b 559 323 533 404 538 400 b 581 312 562 316 571 312 b 602 317 590 312 600 315 l 602 574 b 579 581 598 578 589 581 b 559 571 570 581 560 578 b 410 473 536 481 540 473 l 338 473 b 279 481 308 473 279 475 l 279 735 b 286 831 279 772 279 810 b 380 846 290 845 363 846 l 496 846 b 654 719 568 846 624 827 b 673 709 655 712 663 709 b 697 716 682 709 693 712 b 658 901 685 777 667 833 b 221 891 510 901 349 891 z m 412 1165 b 396 1154 407 1165 401 1160 b 256 1009 340 1093 315 1070 b 271 986 256 1001 263 986 l 412 1073 b 553 986 412 1073 530 1001 b 567 1009 562 986 567 1001 b 429 1154 509 1072 483 1096 b 412 1165 423 1160 418 1165 z "},"Ë":{"ha":796,"x_min":0,"x_max":0,"o":"m 457 1055 b 525 987 457 1017 487 987 b 593 1055 563 987 593 1017 b 525 1123 593 1093 563 1123 b 457 1055 487 1123 457 1093 z m 212 1055 b 279 987 212 1017 241 987 b 347 1055 317 987 347 1017 b 279 1123 347 1093 317 1123 b 212 1055 241 1123 212 1093 z m 221 891 b 61 898 168 891 117 895 b 61 859 54 891 56 865 b 155 837 77 859 151 852 b 161 736 161 815 161 777 l 161 157 b 155 57 161 117 161 79 b 61 35 151 42 77 35 b 61 -4 56 28 54 3 b 222 0 114 -4 159 0 b 685 -5 403 0 537 -5 b 758 220 694 54 732 146 b 724 228 754 224 738 228 b 705 220 715 228 707 225 b 620 83 684 161 663 109 b 449 46 582 60 513 46 l 384 46 b 288 60 327 46 305 46 b 279 153 279 66 279 133 l 279 411 b 377 423 279 423 339 423 b 521 412 429 423 506 422 b 559 323 533 404 538 400 b 581 312 562 316 571 312 b 602 317 590 312 600 315 l 602 574 b 579 581 598 578 589 581 b 559 571 570 581 560 578 b 410 473 536 481 540 473 l 338 473 b 279 481 308 473 279 475 l 279 735 b 286 831 279 772 279 810 b 380 846 290 845 363 846 l 496 846 b 654 719 568 846 624 827 b 673 709 655 712 663 709 b 697 716 682 709 693 712 b 658 901 685 777 667 833 b 221 891 510 901 349 891 z "},"Ì":{"ha":439,"x_min":0,"x_max":0,"o":"m 221 891 b 61 898 168 891 117 895 b 61 859 54 891 56 865 b 155 837 77 859 151 852 b 161 736 161 815 161 777 l 161 157 b 155 57 161 117 161 79 b 61 35 151 42 77 35 b 61 -4 56 28 54 3 b 221 3 117 -1 168 3 b 380 -4 274 3 324 -1 b 380 35 387 3 385 28 b 286 57 363 35 290 42 b 279 157 279 79 279 117 l 279 736 b 286 837 279 777 279 815 b 380 859 290 852 363 859 b 380 898 385 865 387 891 b 221 891 324 895 274 891 z m 301 1000 b 137 1164 301 1009 184 1128 b 113 1168 132 1166 123 1168 b 50 1127 60 1168 50 1143 b 293 987 50 1080 270 987 b 301 1000 297 987 301 996 z "},"Í":{"ha":439,"x_min":0,"x_max":0,"o":"m 221 891 b 61 898 168 891 117 895 b 61 859 54 891 56 865 b 155 837 77 859 151 852 b 161 736 161 815 161 777 l 161 157 b 155 57 161 117 161 79 b 61 35 151 42 77 35 b 61 -4 56 28 54 3 b 221 3 117 -1 168 3 b 380 -4 274 3 324 -1 b 380 35 387 3 385 28 b 286 57 363 35 290 42 b 279 157 279 79 279 117 l 279 736 b 286 837 279 777 279 815 b 380 859 290 852 363 859 b 380 898 385 865 387 891 b 221 891 324 895 274 891 z m 156 1000 b 164 987 156 996 160 987 b 407 1127 187 987 407 1080 b 345 1168 407 1143 397 1168 b 320 1164 334 1168 326 1166 b 156 1000 273 1128 156 1009 z "},"Î":{"ha":439,"x_min":0,"x_max":0,"o":"m 221 891 b 61 898 168 891 117 895 b 61 859 54 891 56 865 b 155 837 77 859 151 852 b 161 736 161 815 161 777 l 161 157 b 155 57 161 117 161 79 b 61 35 151 42 77 35 b 61 -4 56 28 54 3 b 221 3 117 -1 168 3 b 380 -4 274 3 324 -1 b 380 35 387 3 385 28 b 286 57 363 35 290 42 b 279 157 279 79 279 117 l 279 736 b 286 837 279 777 279 815 b 380 859 290 852 363 859 b 380 898 385 865 387 891 b 221 891 324 895 274 891 z m 232 1134 b 216 1123 227 1134 221 1128 b 76 978 160 1062 134 1039 b 91 955 76 970 83 955 l 232 1042 b 373 955 232 1042 350 970 b 387 978 381 955 387 970 b 248 1123 328 1040 302 1065 b 232 1134 243 1128 237 1134 z "},"Ï":{"ha":439,"x_min":0,"x_max":0,"o":"m 283 1055 b 351 987 283 1017 313 987 b 419 1055 389 987 419 1017 b 351 1123 419 1093 389 1123 b 283 1055 313 1123 283 1093 z m 38 1055 b 106 987 38 1017 68 987 b 174 1055 144 987 174 1017 b 106 1123 174 1093 144 1123 b 38 1055 68 1123 38 1093 z m 222 891 b 62 898 170 891 118 895 b 62 859 56 891 57 865 b 156 837 79 859 152 852 b 163 736 163 815 163 777 l 163 157 b 156 57 163 117 163 79 b 62 35 152 42 79 35 b 62 -4 57 28 56 3 b 222 3 118 -1 170 3 b 381 -4 275 3 326 -1 b 381 35 388 3 387 28 b 288 57 365 35 292 42 b 281 157 281 79 281 117 l 281 736 b 288 837 281 777 281 815 b 381 859 292 852 365 859 b 381 898 387 865 388 891 b 222 891 326 895 275 891 z "},"Ð":{"ha":963,"x_min":0,"x_max":0,"o":"m 495 422 b 495 472 500 434 500 472 l 68 472 b 66 422 60 460 61 422 z m 281 734 b 288 834 281 773 281 812 b 381 849 292 848 365 849 b 760 425 576 849 760 731 b 400 39 760 160 593 39 b 289 58 350 39 300 43 b 281 156 282 66 281 137 z m 418 892 b 221 891 358 892 274 891 b 61 898 168 891 117 895 b 61 859 54 891 56 865 b 155 837 77 859 151 852 b 161 736 161 815 161 777 l 161 157 b 155 57 161 117 161 79 b 61 35 151 42 77 35 b 61 -4 56 28 54 3 l 400 -4 b 894 453 783 -4 894 222 b 418 892 894 704 715 892 z "},"Ñ":{"ha":1053,"x_min":0,"x_max":0,"o":"m 194 895 b 56 902 149 895 118 899 b 56 863 52 895 49 878 b 161 836 72 863 152 852 b 175 743 174 815 175 795 l 175 155 b 161 62 175 103 174 83 b 56 35 152 46 72 35 b 56 -4 49 20 52 3 b 201 3 118 -1 138 3 b 355 -4 260 3 301 -1 b 353 35 358 4 359 26 b 251 62 331 35 259 49 b 237 156 237 84 237 107 l 237 772 l 829 24 b 876 -7 848 0 869 -7 b 894 1 880 -7 892 -5 b 891 189 891 72 891 110 l 891 741 b 905 833 891 792 892 812 b 1010 860 914 849 994 860 b 1010 899 1017 875 1015 892 b 865 892 948 897 928 892 b 709 899 806 892 764 897 b 712 860 707 891 705 869 b 815 833 734 860 807 846 b 829 739 829 811 829 788 l 829 304 l 829 225 b 297 898 678 435 366 789 b 194 895 278 897 235 895 z m 425 1100 b 331 1051 388 1100 357 1082 b 312 1004 321 1039 312 1021 b 320 989 312 998 315 989 b 407 1040 330 994 353 1040 b 491 1008 434 1040 463 1024 b 582 978 518 993 545 978 b 675 1028 618 978 650 997 b 694 1076 685 1040 694 1058 b 686 1089 694 1081 692 1089 b 598 1038 677 1084 652 1038 b 515 1070 576 1038 544 1054 b 425 1100 488 1085 461 1100 z "},"Ò":{"ha":1015,"x_min":0,"x_max":0,"o":"m 486 859 b 814 419 696 859 814 629 b 528 33 814 236 731 33 b 201 475 317 33 201 264 b 486 859 201 656 282 859 z m 506 905 b 66 445 267 905 66 699 b 506 -14 66 176 267 -14 b 948 445 745 -14 948 191 b 506 905 948 715 745 905 z m 567 1000 b 403 1164 567 1009 450 1128 b 378 1168 397 1166 389 1168 b 316 1127 326 1168 316 1143 b 559 987 316 1080 536 987 b 567 1000 563 987 567 996 z "},"Ó":{"ha":1015,"x_min":0,"x_max":0,"o":"m 486 859 b 814 419 696 859 814 629 b 528 33 814 236 731 33 b 201 475 317 33 201 264 b 486 859 201 656 282 859 z m 506 905 b 66 445 267 905 66 699 b 506 -14 66 176 267 -14 b 948 445 745 -14 948 191 b 506 905 948 715 745 905 z m 423 1000 b 431 987 423 996 427 987 b 674 1127 454 987 674 1080 b 612 1168 674 1143 665 1168 b 587 1164 601 1168 593 1166 b 423 1000 540 1128 423 1009 z "},"Ô":{"ha":1015,"x_min":0,"x_max":0,"o":"m 486 859 b 814 419 696 859 814 629 b 528 33 814 236 731 33 b 201 475 317 33 201 264 b 486 859 201 656 282 859 z m 506 905 b 66 445 267 905 66 699 b 506 -14 66 176 267 -14 b 948 445 745 -14 948 191 b 506 905 948 715 745 905 z m 510 1165 b 494 1154 505 1165 499 1160 b 354 1009 438 1093 412 1070 b 369 986 354 1001 361 986 l 510 1073 b 651 986 510 1073 628 1001 b 665 1009 659 986 665 1001 b 526 1154 606 1072 581 1096 b 510 1165 521 1160 515 1165 z "},"Õ":{"ha":1015,"x_min":0,"x_max":0,"o":"m 486 859 b 814 419 696 859 814 629 b 528 33 814 236 731 33 b 201 475 317 33 201 264 b 486 859 201 656 282 859 z m 506 905 b 66 445 267 905 66 699 b 506 -14 66 176 267 -14 b 948 445 745 -14 948 191 b 506 905 948 715 745 905 z m 439 1099 b 346 1050 403 1099 372 1081 b 327 1002 336 1038 327 1020 b 335 987 327 997 330 987 b 422 1039 345 993 368 1039 b 506 1006 449 1039 477 1023 b 597 977 533 991 560 977 b 690 1027 633 977 665 996 b 709 1074 700 1039 709 1057 b 701 1088 709 1080 707 1088 b 613 1036 692 1082 667 1036 b 530 1069 591 1036 559 1053 b 439 1099 503 1084 476 1099 z "},"Ö":{"ha":1015,"x_min":0,"x_max":0,"o":"m 563 1055 b 631 987 563 1017 593 987 b 699 1055 669 987 699 1017 b 631 1123 699 1093 669 1123 b 563 1055 593 1123 563 1093 z m 317 1055 b 385 987 317 1017 347 987 b 453 1055 423 987 453 1017 b 385 1123 453 1093 423 1123 b 317 1055 347 1123 317 1093 z m 486 859 b 814 419 696 859 814 629 b 528 33 814 236 731 33 b 201 475 317 33 201 264 b 486 859 201 656 282 859 z m 506 905 b 66 445 267 905 66 699 b 506 -14 66 176 267 -14 b 948 445 745 -14 948 191 b 506 905 948 715 745 905 z "},"×":{"ha":629,"x_min":0,"x_max":0,"o":"m 270 335 b 75 142 264 330 75 142 b 104 87 75 129 92 87 b 113 90 107 87 110 88 b 315 290 113 90 312 288 l 514 91 b 524 88 517 88 521 88 b 553 142 538 88 553 122 b 363 339 553 142 365 338 b 553 528 368 343 553 528 b 524 582 553 541 536 582 b 515 579 519 582 517 581 l 319 384 b 117 579 316 387 117 579 b 107 582 114 582 111 582 b 75 530 95 582 75 549 z "},"Ø":{"ha":1015,"x_min":0,"x_max":0,"o":"m 766 905 l 199 14 b 239 -18 194 5 227 -14 l 806 875 b 766 905 811 883 779 902 z m 486 859 b 814 419 696 859 814 629 b 528 33 814 236 731 33 b 201 475 317 33 201 264 b 486 859 201 656 282 859 z m 506 905 b 66 445 267 905 66 699 b 506 -14 66 176 267 -14 b 948 445 745 -14 948 191 b 506 905 948 715 745 905 z "},"Ù":{"ha":981,"x_min":0,"x_max":0,"o":"m 199 891 b 39 898 146 891 95 895 b 39 859 33 891 34 865 b 133 837 56 859 129 852 b 140 736 140 815 140 777 l 140 340 b 240 84 140 232 178 144 b 481 -5 300 27 384 -5 b 836 374 693 -5 836 103 l 836 741 b 849 833 836 792 837 812 b 955 860 859 849 939 860 b 955 899 962 875 959 892 b 810 892 892 897 872 892 b 659 899 750 892 713 897 b 662 860 656 891 655 869 b 760 833 684 860 751 846 b 773 739 773 811 773 788 l 773 372 b 510 73 769 138 650 73 b 324 152 430 73 366 99 b 258 401 281 206 258 289 l 258 736 b 264 837 258 777 258 815 b 358 859 269 852 342 859 b 358 898 363 865 365 891 b 199 891 302 895 252 891 z m 570 1000 b 406 1164 570 1009 453 1128 b 381 1168 400 1166 392 1168 b 319 1127 328 1168 319 1143 b 562 987 319 1080 538 987 b 570 1000 566 987 570 996 z "},"Ú":{"ha":981,"x_min":0,"x_max":0,"o":"m 199 891 b 39 898 146 891 95 895 b 39 859 33 891 34 865 b 133 837 56 859 129 852 b 140 736 140 815 140 777 l 140 340 b 240 84 140 232 178 144 b 481 -5 300 27 384 -5 b 836 374 693 -5 836 103 l 836 741 b 849 833 836 792 837 812 b 955 860 859 849 939 860 b 955 899 962 875 959 892 b 810 892 892 897 872 892 b 659 899 750 892 713 897 b 662 860 656 891 655 869 b 760 833 684 860 751 846 b 773 739 773 811 773 788 l 773 372 b 510 73 769 138 650 73 b 324 152 430 73 366 99 b 258 401 281 206 258 289 l 258 736 b 264 837 258 777 258 815 b 358 859 269 852 342 859 b 358 898 363 865 365 891 b 199 891 302 895 252 891 z m 453 1000 b 461 987 453 996 457 987 b 704 1127 484 987 704 1080 b 642 1168 704 1143 694 1168 b 617 1164 631 1168 623 1166 b 453 1000 570 1128 453 1009 z "},"Û":{"ha":981,"x_min":0,"x_max":0,"o":"m 199 891 b 39 898 146 891 95 895 b 39 859 33 891 34 865 b 133 837 56 859 129 852 b 140 736 140 815 140 777 l 140 340 b 240 84 140 232 178 144 b 481 -5 300 27 384 -5 b 836 374 693 -5 836 103 l 836 741 b 849 833 836 792 837 812 b 955 860 859 849 939 860 b 955 899 962 875 959 892 b 810 892 892 897 872 892 b 659 899 750 892 713 897 b 662 860 656 891 655 869 b 760 833 684 860 751 846 b 773 739 773 811 773 788 l 773 372 b 510 73 769 138 650 73 b 324 152 430 73 366 99 b 258 401 281 206 258 289 l 258 736 b 264 837 258 777 258 815 b 358 859 269 852 342 859 b 358 898 363 865 365 891 b 199 891 302 895 252 891 z m 496 1165 b 480 1154 491 1165 486 1160 b 340 1009 425 1093 399 1070 b 355 986 340 1001 347 986 l 496 1073 b 637 986 496 1073 614 1001 b 651 1009 646 986 651 1001 b 513 1154 593 1072 567 1096 b 496 1165 507 1160 502 1165 z "},"Ü":{"ha":981,"x_min":0,"x_max":0,"o":"m 549 1055 b 617 987 549 1017 579 987 b 685 1055 655 987 685 1017 b 617 1123 685 1093 655 1123 b 549 1055 579 1123 549 1093 z m 304 1055 b 372 987 304 1017 334 987 b 439 1055 410 987 439 1017 b 372 1123 439 1093 410 1123 b 304 1055 334 1123 304 1093 z m 199 891 b 39 898 146 891 95 895 b 39 859 33 891 34 865 b 133 837 56 859 129 852 b 140 736 140 815 140 777 l 140 340 b 240 84 140 232 178 144 b 481 -5 300 27 384 -5 b 836 374 693 -5 836 103 l 836 741 b 849 833 836 792 837 812 b 955 860 859 849 939 860 b 955 899 962 875 959 892 b 810 892 892 897 872 892 b 659 899 750 892 713 897 b 662 860 656 891 655 869 b 760 833 684 860 751 846 b 773 739 773 811 773 788 l 773 372 b 510 73 769 138 650 73 b 324 152 430 73 366 99 b 258 401 281 206 258 289 l 258 736 b 264 837 258 777 258 815 b 358 859 269 852 342 859 b 358 898 363 865 365 891 b 199 891 302 895 252 891 z "},"Ý":{"ha":811,"x_min":0,"x_max":0,"o":"m 354 157 b 347 57 354 117 354 79 b 254 35 343 42 270 35 b 254 -4 248 28 247 3 b 414 3 309 -1 361 3 b 572 -4 467 3 517 -1 b 572 35 579 3 578 28 b 479 57 556 35 483 42 b 472 157 472 79 472 117 b 473 366 472 157 473 285 b 480 408 473 378 472 393 b 694 803 538 517 643 712 b 815 857 726 857 804 857 b 818 897 819 857 821 888 b 669 890 764 894 739 890 b 533 897 618 890 583 894 b 536 857 530 892 532 857 b 631 821 612 857 631 834 b 627 800 631 812 628 804 b 450 449 606 751 517 568 l 262 774 b 245 815 251 792 245 804 b 327 859 245 850 308 859 b 330 898 334 859 332 890 b 156 891 275 895 222 891 b -14 898 90 891 53 895 b -14 859 -20 891 -20 859 b 62 837 3 859 39 850 b 152 743 100 815 123 793 b 345 400 232 600 266 543 b 354 362 351 387 354 372 z m 393 1000 b 401 987 393 996 397 987 b 644 1127 425 987 644 1080 b 582 1168 644 1143 635 1168 b 557 1164 571 1168 563 1166 b 393 1000 510 1128 393 1009 z "},"Þ":{"ha":743,"x_min":0,"x_max":0,"o":"m 221 891 b 61 898 168 891 117 895 b 61 859 54 891 56 865 b 155 837 77 859 151 852 b 161 736 161 815 161 777 l 161 157 b 155 57 161 117 161 79 b 61 35 151 42 77 35 b 61 -4 56 28 54 3 b 221 3 117 -1 168 3 b 380 -4 274 3 324 -1 b 380 35 387 3 385 28 b 286 57 363 35 290 42 b 279 157 279 79 279 117 l 279 488 b 290 597 279 529 281 582 b 391 637 311 629 374 637 b 578 423 502 637 578 557 b 385 212 578 288 494 212 b 334 221 365 212 349 217 b 327 214 328 222 327 217 b 346 184 327 198 342 187 b 404 174 359 178 389 174 b 703 446 582 174 703 281 b 441 690 703 604 551 690 b 279 651 418 690 330 686 l 279 736 b 286 837 279 777 279 815 b 380 859 290 852 363 859 b 380 898 385 865 387 891 b 221 891 324 895 274 891 z "},"ß":{"ha":728,"x_min":0,"x_max":0,"o":"m 362 940 b 130 594 254 940 130 760 l 130 586 l 80 586 b 45 543 79 585 45 548 b 52 530 45 538 47 530 l 130 530 l 130 157 b 123 57 130 117 130 79 b 38 35 119 42 54 35 b 38 -4 33 28 31 3 b 182 3 94 -1 129 3 b 332 -4 235 3 277 -1 b 332 35 339 3 338 28 b 241 57 316 35 245 42 b 235 157 235 79 235 117 l 235 644 b 366 895 235 755 245 895 b 499 745 453 895 499 833 b 435 583 499 670 469 621 b 335 441 389 532 335 498 b 487 262 335 340 415 300 b 601 138 547 231 601 199 b 517 28 601 71 566 28 b 456 66 487 28 469 46 b 400 123 438 92 426 123 b 355 62 369 123 358 98 b 354 45 355 57 354 50 b 514 -14 368 22 431 -14 b 693 186 617 -14 693 79 b 547 359 693 279 610 326 b 414 487 483 393 414 431 b 521 606 414 528 471 560 b 601 761 563 644 601 692 b 362 940 601 888 490 940 z "},"à":{"ha":585,"x_min":0,"x_max":0,"o":"m 254 62 b 163 157 202 62 163 107 b 245 263 163 209 197 244 b 372 302 270 273 335 292 l 372 118 b 254 62 372 104 301 62 z m 327 591 b 80 480 228 591 122 519 b 71 448 75 473 71 453 b 117 391 71 420 88 391 b 180 456 151 391 172 410 b 255 540 190 509 208 540 b 372 410 321 540 372 471 l 372 373 b 355 339 372 349 369 345 b 118 254 316 321 194 281 b 50 145 88 243 50 201 b 209 -11 50 57 119 -11 b 376 80 256 -11 359 64 b 458 -8 384 38 419 -8 b 560 43 487 -8 544 28 b 567 69 564 50 567 61 b 562 80 567 73 566 80 b 517 62 557 77 541 62 b 475 126 486 62 475 90 l 475 406 b 327 591 475 510 404 591 z m 174 887 b 125 848 126 887 125 854 b 330 670 125 804 316 670 b 342 688 339 670 342 680 b 210 876 342 696 254 822 b 174 887 209 878 193 887 z "},"á":{"ha":585,"x_min":0,"x_max":0,"o":"m 254 62 b 163 157 202 62 163 107 b 245 263 163 209 197 244 b 372 302 270 273 335 292 l 372 118 b 254 62 372 104 301 62 z m 327 591 b 80 480 228 591 122 519 b 71 448 75 473 71 453 b 117 391 71 420 88 391 b 180 456 151 391 172 410 b 255 540 190 509 208 540 b 372 410 321 540 372 471 l 372 373 b 355 339 372 349 369 345 b 118 254 316 321 194 281 b 50 145 88 243 50 201 b 209 -11 50 57 119 -11 b 376 80 256 -11 359 64 b 458 -8 384 38 419 -8 b 560 43 487 -8 544 28 b 567 69 564 50 567 61 b 562 80 567 73 566 80 b 517 62 557 77 541 62 b 475 126 486 62 475 90 l 475 406 b 327 591 475 510 404 591 z m 372 887 b 335 876 353 887 336 878 b 203 688 292 822 203 696 b 216 670 203 680 206 670 b 420 848 229 670 420 804 b 372 887 420 854 419 887 z "},"â":{"ha":585,"x_min":0,"x_max":0,"o":"m 254 62 b 163 157 202 62 163 107 b 245 263 163 209 197 244 b 372 302 270 273 335 292 l 372 118 b 254 62 372 104 301 62 z m 327 591 b 80 480 228 591 122 519 b 71 448 75 473 71 453 b 117 391 71 420 88 391 b 180 456 151 391 172 410 b 255 540 190 509 208 540 b 372 410 321 540 372 471 l 372 373 b 355 339 372 349 369 345 b 118 254 316 321 194 281 b 50 145 88 243 50 201 b 209 -11 50 57 119 -11 b 376 80 256 -11 359 64 b 458 -8 384 38 419 -8 b 560 43 487 -8 544 28 b 567 69 564 50 567 61 b 562 80 567 73 566 80 b 517 62 557 77 541 62 b 475 126 486 62 475 90 l 475 406 b 327 591 475 510 404 591 z m 300 876 b 285 864 294 876 289 871 b 157 685 239 789 210 754 b 172 667 157 675 165 667 b 300 770 220 705 300 770 b 427 667 300 770 376 709 b 442 685 434 667 442 675 b 315 864 389 754 361 789 b 300 876 311 871 305 876 z "},"ã":{"ha":585,"x_min":0,"x_max":0,"o":"m 254 62 b 163 157 202 62 163 107 b 245 263 163 209 197 244 b 372 302 270 273 335 292 l 372 118 b 254 62 372 104 301 62 z m 327 591 b 80 480 228 591 122 519 b 71 448 75 473 71 453 b 117 391 71 420 88 391 b 180 456 151 391 172 410 b 255 540 190 509 208 540 b 372 410 321 540 372 471 l 372 373 b 355 339 372 349 369 345 b 118 254 316 321 194 281 b 50 145 88 243 50 201 b 209 -11 50 57 119 -11 b 376 80 256 -11 359 64 b 458 -8 384 38 419 -8 b 560 43 487 -8 544 28 b 567 69 564 50 567 61 b 562 80 567 73 566 80 b 517 62 557 77 541 62 b 475 126 486 62 475 90 l 475 406 b 327 591 475 510 404 591 z m 214 798 b 130 749 182 798 153 780 b 114 699 122 736 114 716 b 125 684 114 693 117 684 b 195 736 134 689 146 736 b 275 703 220 736 250 719 b 357 673 300 688 323 673 b 441 723 389 673 418 692 b 460 774 449 735 460 757 b 452 787 460 780 460 787 b 376 734 442 781 425 734 b 297 766 357 734 323 750 b 214 798 273 781 248 798 z "},"ä":{"ha":585,"x_min":0,"x_max":0,"o":"m 254 62 b 163 157 202 62 163 107 b 245 263 163 209 197 244 b 372 302 270 273 335 292 l 372 118 b 254 62 372 104 301 62 z m 327 591 b 80 480 228 591 122 519 b 71 448 75 473 71 453 b 117 391 71 420 88 391 b 180 456 151 391 172 410 b 255 540 190 509 208 540 b 372 410 321 540 372 471 l 372 373 b 355 339 372 349 369 345 b 118 254 316 321 194 281 b 50 145 88 243 50 201 b 209 -11 50 57 119 -11 b 376 80 256 -11 359 64 b 458 -8 384 38 419 -8 b 560 43 487 -8 544 28 b 567 69 564 50 567 61 b 562 80 567 73 566 80 b 517 62 557 77 541 62 b 475 126 486 62 475 90 l 475 406 b 327 591 475 510 404 591 z m 400 803 b 335 741 366 803 335 774 b 399 678 335 707 365 678 b 463 739 433 678 463 705 b 400 803 463 773 434 803 z m 152 803 b 87 741 118 803 87 774 b 151 678 87 707 117 678 b 214 739 184 678 214 705 b 152 803 214 773 186 803 z "},"å":{"ha":585,"x_min":0,"x_max":0,"o":"m 254 62 b 163 157 202 62 163 107 b 245 263 163 209 197 244 b 372 302 270 273 335 292 l 372 118 b 254 62 372 104 301 62 z m 327 591 b 80 480 228 591 122 519 b 71 448 75 473 71 453 b 117 391 71 420 88 391 b 180 456 151 391 172 410 b 255 540 190 509 208 540 b 372 410 321 540 372 471 l 372 373 b 355 339 372 349 369 345 b 118 254 316 321 194 281 b 50 145 88 243 50 201 b 209 -11 50 57 119 -11 b 376 80 256 -11 359 64 b 458 -8 384 38 419 -8 b 560 43 487 -8 544 28 b 567 69 564 50 567 61 b 562 80 567 73 566 80 b 517 62 557 77 541 62 b 475 126 486 62 475 90 l 475 406 b 327 591 475 510 404 591 z m 229 796 b 304 871 229 838 263 871 b 377 796 345 871 377 838 b 304 720 377 754 345 720 b 229 796 263 720 229 754 z m 184 796 b 304 674 184 730 239 674 b 422 796 369 674 422 730 b 304 917 422 863 369 917 b 184 796 239 917 184 863 z "},"æ":{"ha":886,"x_min":0,"x_max":0,"o":"m 245 263 b 351 298 269 271 316 286 b 354 262 351 289 353 277 b 378 141 358 221 368 165 b 254 62 378 100 302 62 b 163 157 202 62 163 107 b 245 263 163 209 197 245 z m 601 545 b 712 418 684 545 713 450 b 681 387 711 393 697 387 l 460 387 b 601 545 457 387 487 545 z m 624 594 b 450 507 547 594 483 543 b 324 591 427 551 382 591 b 80 480 225 591 113 511 b 71 448 76 475 71 458 b 117 391 71 420 88 391 b 180 454 151 391 172 408 b 255 540 190 507 208 540 b 359 410 321 540 359 471 b 357 366 359 393 359 378 b 338 347 354 355 351 353 b 113 252 298 330 178 285 b 50 145 81 236 50 201 b 209 -11 50 57 119 -11 b 404 104 256 -11 372 71 b 628 -11 450 27 545 -11 b 826 104 734 -11 802 65 b 834 129 830 111 834 122 b 823 148 834 140 825 148 b 674 76 806 127 749 76 b 453 336 555 76 449 163 b 795 346 469 336 753 343 b 827 410 821 347 827 370 b 624 594 827 464 787 594 z "},"ç":{"ha":574,"x_min":0,"x_max":0,"o":"m 518 524 b 505 562 518 537 510 556 b 382 594 472 583 430 594 b 53 263 241 594 53 461 b 327 -11 53 122 163 -11 b 525 104 433 -11 500 65 b 533 129 529 111 533 122 b 522 148 533 140 524 148 b 378 79 505 127 453 79 b 159 308 256 79 159 149 b 311 534 159 450 239 534 b 388 509 346 534 359 528 b 467 458 411 494 437 458 b 518 524 490 458 518 475 z m 327 -31 l 351 0 l 323 0 b 279 -69 312 -19 292 -49 b 293 -87 277 -75 290 -87 b 328 -77 307 -81 313 -77 b 370 -123 346 -77 370 -91 b 312 -168 370 -146 350 -168 b 262 -151 290 -168 278 -151 b 243 -170 254 -151 243 -160 b 247 -189 243 -178 245 -182 b 293 -201 255 -194 277 -201 b 420 -98 363 -201 420 -161 b 361 -31 420 -62 396 -31 z "},"è":{"ha":583,"x_min":0,"x_max":0,"o":"m 157 387 b 298 545 155 387 184 545 b 410 418 381 545 410 457 b 378 387 410 393 395 387 z m 151 336 b 492 346 167 336 450 343 b 525 410 518 347 525 370 b 321 594 525 464 484 594 b 54 271 202 594 54 453 b 326 -11 54 111 165 -11 b 524 104 431 -11 499 65 b 532 129 528 111 532 122 b 521 148 532 140 522 148 b 372 76 503 127 446 76 b 150 327 255 76 150 160 b 151 336 150 330 150 333 z m 195 887 b 146 848 148 887 146 854 b 351 670 146 804 338 670 b 363 688 361 670 363 680 b 232 876 363 696 275 822 b 195 887 231 878 214 887 z "},"é":{"ha":583,"x_min":0,"x_max":0,"o":"m 157 387 b 298 545 155 387 184 545 b 410 418 381 545 410 457 b 378 387 410 393 395 387 z m 151 336 b 492 346 167 336 450 343 b 525 410 518 347 525 370 b 321 594 525 464 484 594 b 54 271 202 594 54 453 b 326 -11 54 111 165 -11 b 524 104 431 -11 499 65 b 532 129 528 111 532 122 b 521 148 532 140 522 148 b 372 76 503 127 446 76 b 150 327 255 76 150 160 b 151 336 150 330 150 333 z m 407 887 b 370 876 388 887 372 878 b 239 688 327 822 239 696 b 251 670 239 680 241 670 b 456 848 264 670 456 804 b 407 887 456 854 454 887 z "},"ê":{"ha":583,"x_min":0,"x_max":0,"o":"m 157 387 b 298 545 155 387 184 545 b 410 418 381 545 410 457 b 378 387 410 393 395 387 z m 151 336 b 492 346 167 336 450 343 b 525 410 518 347 525 370 b 321 594 525 464 484 594 b 54 271 202 594 54 453 b 326 -11 54 111 165 -11 b 524 104 431 -11 499 65 b 532 129 528 111 532 122 b 521 148 532 140 522 148 b 372 76 503 127 446 76 b 150 327 255 76 150 160 b 151 336 150 330 150 333 z m 302 876 b 288 864 297 876 292 871 b 160 685 241 789 213 754 b 175 667 160 675 168 667 b 302 770 222 705 302 770 b 430 667 302 770 378 709 b 445 685 437 667 445 675 b 317 864 392 754 363 789 b 302 876 313 871 308 876 z "},"ë":{"ha":583,"x_min":0,"x_max":0,"o":"m 157 387 b 298 545 155 387 184 545 b 410 418 381 545 410 457 b 378 387 410 393 395 387 z m 151 336 b 492 346 167 336 450 343 b 525 410 518 347 525 370 b 321 594 525 464 484 594 b 54 271 202 594 54 453 b 326 -11 54 111 165 -11 b 524 104 431 -11 499 65 b 532 129 528 111 532 122 b 521 148 532 140 522 148 b 372 76 503 127 446 76 b 150 327 255 76 150 160 b 151 336 150 330 150 333 z m 438 803 b 373 741 404 803 373 774 b 437 678 373 707 403 678 b 500 739 471 678 500 705 b 438 803 500 773 472 803 z m 190 803 b 125 741 156 803 125 774 b 189 678 125 707 155 678 b 252 739 222 678 252 705 b 190 803 252 773 224 803 z "},"ì":{"ha":366,"x_min":0,"x_max":0,"o":"m 245 441 l 245 486 b 255 575 245 499 254 566 b 240 597 255 582 247 597 b 46 540 186 568 115 549 b 46 505 41 533 43 507 b 134 480 56 505 125 503 b 141 410 141 464 141 427 l 141 157 b 134 57 141 117 141 79 b 49 35 130 42 65 35 b 49 -4 43 28 42 3 b 193 3 104 -1 140 3 b 338 -4 245 3 282 -1 b 338 35 345 3 343 28 b 252 57 321 35 256 42 b 245 157 245 79 245 117 z m 76 887 b 27 848 28 887 27 854 b 232 670 27 804 218 670 b 244 688 241 670 244 680 b 113 876 244 696 156 822 b 76 887 111 878 95 887 z "},"í":{"ha":366,"x_min":0,"x_max":0,"o":"m 245 441 l 245 486 b 255 575 245 499 254 566 b 240 597 255 582 247 597 b 46 540 186 568 115 549 b 46 505 41 533 43 507 b 134 480 56 505 125 503 b 141 410 141 464 141 427 l 141 157 b 134 57 141 117 141 79 b 49 35 130 42 65 35 b 49 -4 43 28 42 3 b 193 3 104 -1 140 3 b 338 -4 245 3 282 -1 b 338 35 345 3 343 28 b 252 57 321 35 256 42 b 245 157 245 79 245 117 z m 282 887 b 245 876 263 887 247 878 b 114 688 202 822 114 696 b 126 670 114 680 117 670 b 331 848 140 670 331 804 b 282 887 331 854 330 887 z "},"î":{"ha":366,"x_min":0,"x_max":0,"o":"m 245 441 l 245 486 b 255 575 245 499 254 566 b 240 597 255 582 247 597 b 46 540 186 568 115 549 b 46 505 41 533 43 507 b 134 480 56 505 125 503 b 141 410 141 464 141 427 l 141 157 b 134 57 141 117 141 79 b 49 35 130 42 65 35 b 49 -4 43 28 42 3 b 193 3 104 -1 140 3 b 338 -4 245 3 282 -1 b 338 35 345 3 343 28 b 252 57 321 35 256 42 b 245 157 245 79 245 117 z m 212 876 b 197 864 206 876 201 871 b 69 685 151 789 122 754 b 84 667 69 675 77 667 b 212 770 132 705 212 770 b 339 667 212 770 288 709 b 354 685 346 667 354 675 b 227 864 301 754 273 789 b 212 876 222 871 217 876 z "},"ï":{"ha":369,"x_min":0,"x_max":0,"o":"m 297 807 b 228 741 260 807 228 777 b 296 674 228 704 259 674 b 363 739 332 674 363 703 b 297 807 363 776 334 807 z m 80 807 b 11 741 43 807 11 777 b 79 674 11 704 42 674 b 146 739 115 674 146 703 b 80 807 146 776 117 807 z m 245 441 l 245 486 b 255 575 245 499 254 566 b 240 597 255 582 247 597 b 46 540 186 568 115 549 b 46 505 41 533 43 507 b 134 480 56 505 125 503 b 141 410 141 464 141 427 l 141 157 b 134 57 141 117 141 79 b 49 35 130 42 65 35 b 49 -4 43 28 42 3 b 193 3 104 -1 140 3 b 338 -4 245 3 282 -1 b 338 35 345 3 343 28 b 252 57 321 35 256 42 b 245 157 245 79 245 117 z "},"ð":{"ha":701,"x_min":0,"x_max":0,"o":"m 335 595 b 54 286 146 595 54 433 b 347 -9 54 123 163 -9 b 627 335 490 -9 627 115 b 471 713 627 473 563 608 b 361 817 437 752 400 787 l 494 906 b 469 948 503 914 480 941 l 319 847 b 129 933 257 889 192 919 b 110 901 118 933 110 910 b 270 814 175 874 228 844 l 151 734 b 174 690 141 726 164 697 l 310 782 b 450 574 399 705 430 626 b 335 595 423 590 374 595 z m 317 551 b 481 446 391 551 444 518 b 509 274 496 418 509 349 b 351 35 509 141 458 35 b 171 308 241 35 171 175 b 317 551 171 433 209 551 z "},"ñ":{"ha":722,"x_min":0,"x_max":0,"o":"m 437 594 b 254 495 372 594 281 525 b 250 492 252 494 251 492 b 247 498 247 492 247 496 b 255 575 247 509 254 566 b 240 597 255 582 247 597 b 46 540 186 568 115 549 b 46 505 41 533 43 507 b 134 480 56 505 125 503 b 141 404 141 464 141 422 l 141 157 b 134 57 141 117 141 79 b 49 35 130 42 65 35 b 49 -4 43 28 42 3 b 193 3 104 -1 140 3 b 338 -4 245 3 282 -1 b 338 35 345 3 343 28 b 252 57 321 35 256 42 b 245 157 245 79 245 117 l 245 441 b 374 515 245 453 324 515 b 507 293 480 515 507 461 l 507 157 b 500 57 507 117 507 79 b 415 35 496 42 431 35 b 415 -4 410 28 408 3 b 559 3 471 -1 506 3 b 704 -4 612 3 648 -1 b 704 35 711 3 709 28 b 618 57 688 35 623 42 b 612 157 612 79 612 117 l 612 307 b 437 594 612 503 583 594 z m 286 800 b 202 751 254 800 225 783 b 186 701 194 739 186 719 b 197 686 186 696 189 686 b 267 739 206 692 218 739 b 347 705 292 739 321 722 b 429 675 372 690 395 675 b 513 726 461 675 490 694 b 532 777 521 738 532 760 b 524 789 532 783 532 789 b 448 736 514 784 496 736 b 369 769 429 736 395 753 b 286 800 345 784 320 800 z "},"ò":{"ha":690,"x_min":0,"x_max":0,"o":"m 330 551 b 518 269 450 551 518 400 b 361 35 518 153 476 35 b 172 316 239 35 172 184 b 330 551 172 433 214 551 z m 345 595 b 56 289 180 595 56 464 b 347 -9 56 119 168 -9 b 635 300 511 -9 635 125 b 345 595 635 469 524 595 z m 264 887 b 216 848 217 887 216 854 b 420 670 216 804 407 670 b 433 688 430 670 433 680 b 301 876 433 696 345 822 b 264 887 300 878 283 887 z "},"ó":{"ha":690,"x_min":0,"x_max":0,"o":"m 330 551 b 518 269 450 551 518 400 b 361 35 518 153 476 35 b 172 316 239 35 172 184 b 330 551 172 433 214 551 z m 345 595 b 56 289 180 595 56 464 b 347 -9 56 119 168 -9 b 635 300 511 -9 635 125 b 345 595 635 469 524 595 z m 457 887 b 420 876 438 887 422 878 b 289 688 377 822 289 696 b 301 670 289 680 292 670 b 506 848 315 670 506 804 b 457 887 506 854 505 887 z "},"ô":{"ha":690,"x_min":0,"x_max":0,"o":"m 330 551 b 518 269 450 551 518 400 b 361 35 518 153 476 35 b 172 316 239 35 172 184 b 330 551 172 433 214 551 z m 345 595 b 56 289 180 595 56 464 b 347 -9 56 119 168 -9 b 635 300 511 -9 635 125 b 345 595 635 469 524 595 z m 349 876 b 334 864 343 876 338 871 b 206 685 288 789 259 754 b 221 667 206 675 214 667 b 349 770 269 705 349 770 b 476 667 349 770 425 709 b 491 685 483 667 491 675 b 363 864 438 754 410 789 b 349 876 359 871 354 876 z "},"õ":{"ha":690,"x_min":0,"x_max":0,"o":"m 330 551 b 518 269 450 551 518 400 b 361 35 518 153 476 35 b 172 316 239 35 172 184 b 330 551 172 433 214 551 z m 345 595 b 56 289 180 595 56 464 b 347 -9 56 119 168 -9 b 635 300 511 -9 635 125 b 345 595 635 469 524 595 z m 279 799 b 195 750 247 799 218 781 b 179 700 187 738 179 718 b 190 685 179 694 182 685 b 260 738 199 690 212 738 b 340 704 285 738 315 720 b 422 674 365 689 388 674 b 506 724 454 674 483 693 b 525 776 514 736 525 758 b 517 788 525 781 525 788 b 441 735 507 783 490 735 b 362 768 422 735 388 751 b 279 799 338 783 313 799 z "},"ö":{"ha":690,"x_min":0,"x_max":0,"o":"m 330 551 b 518 269 450 551 518 400 b 361 35 518 153 476 35 b 172 316 239 35 172 184 b 330 551 172 433 214 551 z m 345 595 b 56 289 180 595 56 464 b 347 -9 56 119 168 -9 b 635 300 511 -9 635 125 b 345 595 635 469 524 595 z m 471 803 b 406 741 437 803 406 774 b 469 678 406 707 435 678 b 533 739 503 678 533 705 b 471 803 533 773 505 803 z m 222 803 b 157 741 189 803 157 774 b 221 678 157 707 187 678 b 285 739 255 678 285 705 b 222 803 285 773 256 803 z "},"÷":{"ha":812,"x_min":0,"x_max":0,"o":"m 90 297 l 711 297 b 732 357 722 308 732 335 b 720 373 732 368 726 373 l 104 373 b 81 311 90 362 81 316 b 90 297 81 297 90 297 z m 342 594 b 410 526 342 556 372 526 b 477 594 448 526 477 556 b 410 662 477 632 448 662 b 342 594 372 662 342 632 z m 342 75 b 410 7 342 37 372 7 b 477 75 448 7 477 37 b 410 142 477 113 448 142 b 342 75 372 142 342 113 z "},"ø":{"ha":690,"x_min":0,"x_max":0,"o":"m 175 -11 l 541 566 b 505 593 545 574 514 589 l 138 18 b 175 -11 134 9 164 -5 z m 331 551 b 519 269 452 551 519 400 b 362 35 519 153 477 35 b 174 316 240 35 174 184 b 331 551 174 433 216 551 z m 346 595 b 57 289 182 595 57 464 b 349 -9 57 119 170 -9 b 636 300 513 -9 636 125 b 346 595 636 469 525 595 z "},"ù":{"ha":699,"x_min":0,"x_max":0,"o":"m 475 434 l 475 141 b 350 66 475 109 410 66 b 214 277 255 66 214 133 l 214 418 l 214 476 b 224 570 214 515 218 559 b 209 597 224 576 216 597 b 23 570 160 582 92 572 b 23 534 18 563 19 538 b 99 507 41 534 85 532 b 110 434 110 487 110 452 l 110 260 b 279 -9 110 146 136 -9 b 472 80 349 -9 434 39 b 475 73 472 80 475 80 l 475 11 b 486 -11 475 1 479 -11 b 662 27 487 -11 591 23 b 673 49 669 27 673 46 b 669 64 673 53 671 62 b 589 88 665 65 595 62 b 579 191 581 126 579 176 l 579 414 l 579 476 b 589 564 579 515 583 553 b 574 597 589 571 581 597 b 388 570 525 582 457 572 b 388 534 382 563 384 538 b 464 507 406 534 450 532 b 475 434 475 487 475 452 z m 225 887 b 176 848 178 887 176 854 b 381 670 176 804 368 670 b 393 688 391 670 393 680 b 262 876 393 696 305 822 b 225 887 260 878 244 887 z "},"ú":{"ha":699,"x_min":0,"x_max":0,"o":"m 475 434 l 475 141 b 350 66 475 109 410 66 b 214 277 255 66 214 133 l 214 418 l 214 476 b 224 570 214 515 218 559 b 209 597 224 576 216 597 b 23 570 160 582 92 572 b 23 534 18 563 19 538 b 99 507 41 534 85 532 b 110 434 110 487 110 452 l 110 260 b 279 -9 110 146 136 -9 b 472 80 349 -9 434 39 b 475 73 472 80 475 80 l 475 11 b 486 -11 475 1 479 -11 b 662 27 487 -11 591 23 b 673 49 669 27 673 46 b 669 64 673 53 671 62 b 589 88 665 65 595 62 b 579 191 581 126 579 176 l 579 414 l 579 476 b 589 564 579 515 583 553 b 574 597 589 571 581 597 b 388 570 525 582 457 572 b 388 534 382 563 384 538 b 464 507 406 534 450 532 b 475 434 475 487 475 452 z m 467 887 b 430 876 448 887 431 878 b 298 688 387 822 298 696 b 311 670 298 680 301 670 b 515 848 324 670 515 804 b 467 887 515 854 514 887 z "},"û":{"ha":699,"x_min":0,"x_max":0,"o":"m 475 434 l 475 141 b 350 66 475 109 410 66 b 214 277 255 66 214 133 l 214 418 l 214 476 b 224 570 214 515 218 559 b 209 597 224 576 216 597 b 23 570 160 582 92 572 b 23 534 18 563 19 538 b 99 507 41 534 85 532 b 110 434 110 487 110 452 l 110 260 b 279 -9 110 146 136 -9 b 472 80 349 -9 434 39 b 475 73 472 80 475 80 l 475 11 b 486 -11 475 1 479 -11 b 662 27 487 -11 591 23 b 673 49 669 27 673 46 b 669 64 673 53 671 62 b 589 88 665 65 595 62 b 579 191 581 126 579 176 l 579 414 l 579 476 b 589 564 579 515 583 553 b 574 597 589 571 581 597 b 388 570 525 582 457 572 b 388 534 382 563 384 538 b 464 507 406 534 450 532 b 475 434 475 487 475 452 z m 346 876 b 331 864 340 876 335 871 b 203 685 285 789 256 754 b 218 667 203 675 212 667 b 346 770 266 705 346 770 b 473 667 346 770 422 709 b 488 685 480 667 488 675 b 361 864 435 754 407 789 b 346 876 357 871 351 876 z "},"ü":{"ha":699,"x_min":0,"x_max":0,"o":"m 475 434 l 475 141 b 350 66 475 109 410 66 b 214 277 255 66 214 133 l 214 418 l 214 476 b 224 570 214 515 218 559 b 209 597 224 576 216 597 b 23 570 160 582 92 572 b 23 534 18 563 19 538 b 99 507 41 534 85 532 b 110 434 110 487 110 452 l 110 260 b 279 -9 110 146 136 -9 b 472 80 349 -9 434 39 b 475 73 472 80 475 80 l 475 11 b 486 -11 475 1 479 -11 b 662 27 487 -11 591 23 b 673 49 669 27 673 46 b 669 64 673 53 671 62 b 589 88 665 65 595 62 b 579 191 581 126 579 176 l 579 414 l 579 476 b 589 564 579 515 583 553 b 574 597 589 571 581 597 b 388 570 525 582 457 572 b 388 534 382 563 384 538 b 464 507 406 534 450 532 b 475 434 475 487 475 452 z m 457 803 b 392 741 423 803 392 774 b 456 678 392 707 422 678 b 519 739 490 678 519 705 b 457 803 519 773 491 803 z m 209 803 b 144 741 175 803 144 774 b 208 678 144 707 174 678 b 271 739 241 678 271 705 b 209 803 271 773 243 803 z "},"ý":{"ha":636,"x_min":0,"x_max":0,"o":"m 138 576 b 3 583 83 576 28 581 b 3 544 0 581 0 544 b 76 517 19 544 62 545 b 290 3 156 343 214 197 b 225 -134 286 -12 247 -106 b 71 -212 171 -208 134 -212 b 54 -251 64 -220 54 -235 b 114 -309 54 -300 88 -309 b 232 -233 159 -309 201 -279 b 339 8 281 -161 305 -75 b 543 498 418 201 463 307 b 629 544 559 536 618 544 b 632 583 635 544 637 575 b 518 576 605 581 570 576 b 396 583 463 576 416 581 b 396 544 389 576 389 544 b 475 500 442 544 475 528 b 467 457 475 491 473 473 b 347 149 415 330 347 149 l 203 515 b 201 521 202 518 201 519 b 269 544 201 541 259 544 b 274 583 275 544 277 575 b 138 576 251 581 190 576 z m 483 887 b 446 876 464 887 448 878 b 315 688 403 822 315 696 b 327 670 315 680 317 670 b 532 848 340 670 532 804 b 483 887 532 854 530 887 z "},"þ":{"ha":671,"x_min":0,"x_max":0,"o":"m 373 594 b 208 517 319 594 241 545 b 203 514 206 515 205 514 b 201 521 201 514 201 519 l 201 802 b 216 920 201 876 216 920 b 201 941 216 929 208 941 b 8 887 144 916 76 894 b 7 852 3 886 5 852 b 90 827 45 852 81 846 b 96 757 96 811 96 776 l 96 -145 b 90 -245 96 -186 96 -224 b 4 -267 85 -260 20 -267 b 4 -307 -1 -274 -3 -300 b 148 -300 60 -304 95 -300 b 293 -307 201 -300 237 -304 b 293 -267 300 -300 298 -274 b 208 -245 277 -267 212 -260 b 201 -145 201 -224 201 -186 l 201 -14 b 206 4 201 -3 206 4 b 301 -11 228 -3 266 -11 b 618 315 454 -11 618 140 b 373 594 618 431 541 594 z m 315 514 b 505 264 418 514 505 426 b 327 37 505 155 439 37 b 201 136 279 37 201 65 l 201 461 b 315 514 201 480 259 514 z "},"ÿ":{"ha":636,"x_min":0,"x_max":0,"o":"m 138 576 b 3 583 83 576 28 581 b 3 544 0 581 0 544 b 76 517 19 544 62 545 b 290 3 156 343 214 197 b 225 -134 286 -12 247 -106 b 71 -212 171 -208 134 -212 b 54 -251 64 -220 54 -235 b 114 -309 54 -300 88 -309 b 232 -233 159 -309 201 -279 b 339 8 281 -161 305 -75 b 543 498 418 201 463 307 b 629 544 559 536 618 544 b 632 583 635 544 637 575 b 518 576 605 581 570 576 b 396 583 463 576 416 581 b 396 544 389 576 389 544 b 475 500 442 544 475 528 b 467 457 475 491 473 473 b 347 149 415 330 347 149 l 203 515 b 201 521 202 518 201 519 b 269 544 201 541 259 544 b 274 583 275 544 277 575 b 138 576 251 581 190 576 z m 467 803 b 401 741 433 803 401 774 b 465 678 401 707 431 678 b 529 739 499 678 529 705 b 467 803 529 773 500 803 z m 218 803 b 153 741 184 803 153 774 b 217 678 153 707 183 678 b 281 739 251 678 281 705 b 218 803 281 773 252 803 z "},"Ā":{"ha":850,"x_min":0,"x_max":0,"o":"m 129 189 b 65 61 110 140 92 96 b -16 35 52 43 0 35 b -16 -4 -20 26 -20 0 b 129 3 46 -1 66 3 b 260 -4 189 3 206 -1 b 258 35 263 4 262 31 b 164 73 247 35 164 41 b 183 170 164 91 167 122 b 244 335 206 235 244 335 b 251 339 244 335 248 339 b 397 343 312 343 342 343 b 532 342 431 343 496 345 b 540 336 536 342 540 336 b 632 72 540 336 632 113 b 627 53 632 64 631 57 b 551 35 614 42 567 35 b 549 -4 544 28 543 3 b 707 3 612 -1 644 3 b 856 -4 766 3 802 -1 b 853 35 857 0 860 26 b 761 81 842 35 774 49 b 727 171 758 87 746 121 l 450 895 b 442 899 446 897 446 899 b 391 860 430 899 397 873 b 129 189 308 648 129 189 z m 395 735 l 514 407 b 510 400 514 407 513 400 b 396 396 468 397 438 396 b 273 399 365 396 308 397 b 270 404 270 399 270 404 z m 595 1025 b 604 1082 609 1040 613 1076 l 270 1082 b 262 1025 258 1074 248 1031 z "},"ā":{"ha":585,"x_min":0,"x_max":0,"o":"m 254 62 b 163 157 202 62 163 107 b 245 263 163 209 197 244 b 372 302 270 273 335 292 l 372 118 b 254 62 372 104 301 62 z m 327 591 b 80 480 228 591 122 519 b 71 448 75 473 71 453 b 117 391 71 420 88 391 b 180 456 151 391 172 410 b 255 540 190 509 208 540 b 372 410 321 540 372 471 l 372 373 b 355 339 372 349 369 345 b 118 254 316 321 194 281 b 50 145 88 243 50 201 b 209 -11 50 57 119 -11 b 376 80 256 -11 359 64 b 458 -8 384 38 419 -8 b 560 43 487 -8 544 28 b 567 69 564 50 567 61 b 562 80 567 73 566 80 b 517 62 557 77 541 62 b 475 126 486 62 475 90 l 475 406 b 327 591 475 510 404 591 z m 437 712 b 445 769 450 727 454 762 l 141 769 b 133 712 129 761 119 718 z "},"Ă":{"ha":850,"x_min":0,"x_max":0,"o":"m 129 189 b 65 61 110 140 92 96 b -16 35 52 43 0 35 b -16 -4 -20 26 -20 0 b 129 3 46 -1 66 3 b 260 -4 189 3 206 -1 b 258 35 263 4 262 31 b 164 73 247 35 164 41 b 183 170 164 91 167 122 b 244 335 206 235 244 335 b 251 339 244 335 248 339 b 397 343 312 343 342 343 b 532 342 431 343 496 345 b 540 336 536 342 540 336 b 632 72 540 336 632 113 b 627 53 632 64 631 57 b 551 35 614 42 567 35 b 549 -4 544 28 543 3 b 707 3 612 -1 644 3 b 856 -4 766 3 802 -1 b 853 35 857 0 860 26 b 761 81 842 35 774 49 b 727 171 758 87 746 121 l 450 895 b 442 899 446 897 446 899 b 391 860 430 899 397 873 b 129 189 308 648 129 189 z m 395 735 l 514 407 b 510 400 514 407 513 400 b 396 396 468 397 438 396 b 273 399 365 396 308 397 b 270 404 270 399 270 404 z m 560 1130 b 442 1046 543 1077 502 1046 b 324 1130 382 1046 342 1077 b 294 1107 311 1130 294 1116 b 296 1099 294 1104 294 1101 b 442 983 315 1028 377 983 b 589 1099 507 983 570 1028 b 590 1107 590 1101 590 1104 b 560 1130 590 1116 574 1130 z "},"ă":{"ha":585,"x_min":0,"x_max":0,"o":"m 254 62 b 163 157 202 62 163 107 b 245 263 163 209 197 244 b 372 302 270 273 335 292 l 372 118 b 254 62 372 104 301 62 z m 327 591 b 80 480 228 591 122 519 b 71 448 75 473 71 453 b 117 391 71 420 88 391 b 180 456 151 391 172 410 b 255 540 190 509 208 540 b 372 410 321 540 372 471 l 372 373 b 355 339 372 349 369 345 b 118 254 316 321 194 281 b 50 145 88 243 50 201 b 209 -11 50 57 119 -11 b 376 80 256 -11 359 64 b 458 -8 384 38 419 -8 b 560 43 487 -8 544 28 b 567 69 564 50 567 61 b 562 80 567 73 566 80 b 517 62 557 77 541 62 b 475 126 486 62 475 90 l 475 406 b 327 591 475 510 404 591 z m 289 736 b 171 834 232 736 184 776 b 165 838 171 837 168 838 b 141 821 157 838 141 827 b 142 811 141 819 142 814 b 289 674 155 734 216 674 b 435 810 362 674 423 738 b 437 821 435 812 437 819 b 412 838 437 827 420 838 b 407 834 410 838 407 837 b 289 736 393 776 346 736 z "},"Ą":{"ha":850,"x_min":0,"x_max":0,"o":"m 856 -4 b 853 35 857 0 860 26 b 761 81 842 35 774 49 b 727 171 758 87 746 121 l 450 895 b 442 899 446 897 446 899 b 391 860 430 899 397 873 b 129 189 308 648 129 189 b 65 61 110 140 92 96 b -16 35 52 43 0 35 b -16 -4 -20 26 -20 0 b 129 3 46 -1 66 3 b 260 -4 187 3 206 -1 b 258 35 263 4 262 31 b 164 73 247 35 165 41 b 183 170 164 91 167 122 b 244 335 206 235 244 335 b 251 339 244 335 248 339 b 397 343 312 343 342 343 b 532 342 431 343 496 345 b 540 336 536 342 540 336 b 632 72 540 336 632 113 b 627 53 632 64 631 57 b 551 35 614 42 567 35 b 549 -4 544 28 543 3 b 694 3 606 -1 640 3 l 697 3 b 545 -198 624 -43 545 -123 b 642 -302 545 -235 566 -302 b 784 -213 703 -302 754 -252 b 791 -189 788 -208 791 -195 b 784 -171 791 -178 785 -171 b 674 -222 776 -171 743 -222 b 618 -164 628 -222 618 -184 b 758 1 618 -104 699 -34 b 856 -4 791 0 818 -3 z m 395 735 l 514 407 b 510 400 514 407 513 400 b 396 396 468 397 438 396 b 273 399 365 396 308 397 b 270 404 270 399 270 404 z "},"ą":{"ha":585,"x_min":0,"x_max":0,"o":"m 254 62 b 163 157 202 62 163 107 b 245 263 163 209 197 244 b 372 302 270 273 335 292 l 372 118 b 254 62 372 104 301 62 z m 376 80 b 425 1 378 47 401 15 b 285 -198 359 -50 285 -138 b 381 -302 285 -235 305 -302 b 524 -213 442 -302 494 -252 b 530 -189 528 -208 530 -195 b 524 -171 530 -178 525 -171 b 414 -222 515 -171 483 -222 b 358 -164 368 -222 358 -184 b 511 9 358 -91 460 -27 b 560 43 528 20 547 34 b 567 69 564 50 567 61 b 562 80 567 73 566 80 b 517 62 557 77 541 62 b 475 126 486 62 475 90 l 475 406 b 327 591 475 510 404 591 b 80 480 228 591 122 519 b 71 448 75 473 71 453 b 117 391 71 420 88 391 b 180 456 151 391 172 410 b 255 540 190 509 208 540 b 372 410 321 540 372 471 l 372 373 b 355 339 372 349 369 345 b 118 254 316 321 194 281 b 50 145 88 243 50 201 b 209 -11 50 57 119 -11 b 376 80 256 -11 359 64 z "},"Ć":{"ha":914,"x_min":0,"x_max":0,"o":"m 524 905 b 65 437 256 905 65 690 b 518 -8 65 197 250 -8 b 810 53 643 -8 735 11 b 857 248 829 69 857 221 b 814 259 845 256 827 260 b 731 102 804 214 784 149 b 552 37 692 66 635 37 b 199 465 316 37 199 254 b 530 860 199 655 330 860 b 796 662 757 860 788 704 b 812 658 800 659 804 658 b 842 675 826 658 844 667 b 811 876 842 689 811 876 b 524 905 711 898 613 905 z m 483 1000 b 491 987 483 996 487 987 b 734 1127 514 987 734 1080 b 671 1168 734 1143 724 1168 b 647 1164 661 1168 652 1166 b 483 1000 600 1128 483 1009 z "},"ć":{"ha":574,"x_min":0,"x_max":0,"o":"m 518 524 b 505 562 518 537 510 556 b 382 594 472 583 430 594 b 53 263 241 594 53 461 b 327 -11 53 122 163 -11 b 525 104 433 -11 500 65 b 533 129 529 111 533 122 b 522 148 533 140 524 148 b 378 79 505 127 453 79 b 159 308 256 79 159 149 b 311 534 159 450 239 534 b 388 509 346 534 359 528 b 467 458 411 494 437 458 b 518 524 490 458 518 475 z m 430 887 b 393 876 411 887 395 878 b 262 688 350 822 262 696 b 274 670 262 680 264 670 b 479 848 288 670 479 804 b 430 887 479 854 477 887 z "},"Ĉ":{"ha":914,"x_min":0,"x_max":0,"o":"m 524 905 b 65 437 256 905 65 690 b 518 -8 65 197 250 -8 b 810 53 643 -8 735 11 b 857 248 829 69 857 221 b 814 259 845 256 827 260 b 731 102 804 214 784 149 b 552 37 692 66 635 37 b 199 465 316 37 199 254 b 530 860 199 655 330 860 b 796 662 757 860 788 704 b 812 658 800 659 804 658 b 842 675 826 658 844 667 b 811 876 842 689 811 876 b 524 905 711 898 613 905 z m 538 1165 b 522 1154 533 1165 528 1160 b 382 1009 467 1093 441 1070 b 397 986 382 1001 389 986 l 538 1073 b 680 986 538 1073 656 1001 b 693 1009 688 986 693 1001 b 555 1154 635 1072 609 1096 b 538 1165 549 1160 544 1165 z "},"ĉ":{"ha":574,"x_min":0,"x_max":0,"o":"m 518 524 b 505 562 518 537 510 556 b 382 594 472 583 430 594 b 53 263 241 594 53 461 b 327 -11 53 122 163 -11 b 525 104 433 -11 500 65 b 533 129 529 111 533 122 b 522 148 533 140 524 148 b 378 79 505 127 453 79 b 159 308 256 79 159 149 b 311 534 159 450 239 534 b 388 509 346 534 359 528 b 467 458 411 494 437 458 b 518 524 490 458 518 475 z m 323 876 b 308 864 317 876 312 871 b 180 685 262 789 233 754 b 195 667 180 675 189 667 b 323 770 243 705 323 770 b 450 667 323 770 399 709 b 465 685 457 667 465 675 b 338 864 412 754 384 789 b 323 876 334 871 328 876 z "},"Ċ":{"ha":914,"x_min":0,"x_max":0,"o":"m 524 905 b 65 437 256 905 65 690 b 518 -8 65 197 250 -8 b 810 53 643 -8 735 11 b 857 248 829 69 857 221 b 814 259 845 256 827 260 b 731 102 804 214 784 149 b 552 37 692 66 635 37 b 199 465 316 37 199 254 b 530 860 199 655 330 860 b 796 662 757 860 788 704 b 812 658 800 659 804 658 b 842 675 826 658 844 667 b 811 876 842 689 811 876 b 524 905 711 898 613 905 z m 452 1055 b 519 987 452 1017 481 987 b 587 1055 557 987 587 1017 b 519 1123 587 1093 557 1123 b 452 1055 481 1123 452 1093 z "},"ċ":{"ha":574,"x_min":0,"x_max":0,"o":"m 518 524 b 505 562 518 537 510 556 b 382 594 472 583 430 594 b 53 263 241 594 53 461 b 327 -11 53 122 163 -11 b 525 104 433 -11 500 65 b 533 129 529 111 533 122 b 522 148 533 140 524 148 b 378 79 505 127 453 79 b 159 308 256 79 159 149 b 311 534 159 450 239 534 b 388 509 346 534 359 528 b 467 458 411 494 437 458 b 518 524 490 458 518 475 z m 267 804 b 335 736 267 766 297 736 b 403 804 373 736 403 766 b 335 872 403 842 373 872 b 267 804 297 872 267 842 z "},"Č":{"ha":914,"x_min":0,"x_max":0,"o":"m 518 986 b 534 997 524 986 529 991 b 674 1142 590 1058 616 1081 b 659 1165 674 1150 667 1165 l 518 1078 b 377 1165 518 1078 400 1150 b 363 1142 369 1165 363 1150 b 502 997 422 1080 448 1055 b 518 986 507 991 513 986 z m 524 905 b 65 437 256 905 65 690 b 518 -8 65 197 250 -8 b 810 53 643 -8 735 11 b 857 248 829 69 857 221 b 814 259 845 256 827 260 b 731 102 804 214 784 149 b 552 37 692 66 635 37 b 199 465 316 37 199 254 b 530 860 199 655 330 860 b 796 662 757 860 788 704 b 812 658 800 659 804 658 b 842 675 826 658 844 667 b 811 876 842 689 811 876 b 524 905 711 898 613 905 z "},"č":{"ha":574,"x_min":0,"x_max":0,"o":"m 518 524 b 505 562 518 537 510 556 b 382 594 472 583 430 594 b 53 263 241 594 53 461 b 327 -11 53 122 163 -11 b 525 104 433 -11 500 65 b 533 129 529 111 533 122 b 522 148 533 140 524 148 b 378 79 505 127 453 79 b 159 308 256 79 159 149 b 311 534 159 450 239 534 b 388 509 346 534 359 528 b 467 458 411 494 437 458 b 518 524 490 458 518 475 z m 338 674 b 353 686 343 674 349 680 b 480 865 399 761 427 796 b 465 883 480 875 472 883 b 338 770 412 837 338 770 b 210 883 338 770 263 837 b 195 865 203 883 195 875 b 323 686 248 796 277 761 b 338 674 327 680 332 674 z "},"Ď":{"ha":963,"x_min":0,"x_max":0,"o":"m 452 986 b 468 997 457 986 463 991 b 608 1142 524 1058 549 1081 b 593 1165 608 1150 601 1165 l 452 1078 b 311 1165 452 1078 334 1150 b 297 1142 302 1165 297 1150 b 435 997 355 1080 381 1055 b 452 986 441 991 446 986 z m 281 734 b 288 834 281 773 281 812 b 381 849 292 848 365 849 b 760 425 576 849 760 731 b 400 39 760 160 593 39 b 289 58 350 39 300 43 b 281 156 282 66 281 137 z m 418 892 b 221 891 358 892 274 891 b 61 898 168 891 117 895 b 61 859 54 891 56 865 b 155 837 77 859 151 852 b 161 736 161 815 161 777 l 161 157 b 155 57 161 117 161 79 b 61 35 151 42 77 35 b 61 -4 56 28 54 3 l 400 -4 b 894 453 783 -4 894 222 b 418 892 894 704 715 892 z "},"ď":{"ha":722,"x_min":0,"x_max":0,"o":"m 376 594 b 53 279 254 594 53 457 b 292 -11 53 114 168 -11 b 472 71 357 -11 452 49 b 476 62 475 73 476 69 l 476 15 b 487 -11 476 5 479 -11 b 663 27 488 -11 593 23 b 674 47 670 27 674 45 b 670 64 674 52 673 62 b 590 88 666 65 601 64 b 581 221 582 107 581 168 l 581 802 b 595 920 581 876 595 920 b 581 941 595 929 587 941 b 388 887 524 916 456 894 b 387 852 382 886 385 852 b 469 827 425 852 461 846 b 476 757 476 811 476 776 l 476 609 b 469 581 476 593 475 581 b 376 594 456 586 404 594 z m 332 537 b 476 471 408 537 476 502 l 476 127 b 358 73 476 106 419 73 b 167 312 235 73 167 184 b 332 537 167 426 229 537 z m 686 956 b 618 899 644 956 618 924 b 656 792 618 853 656 856 b 614 682 656 751 639 713 b 640 667 614 675 632 667 b 735 872 694 727 735 804 b 716 948 735 917 724 935 b 686 956 708 952 696 956 z "},"Đ":{"ha":963,"x_min":0,"x_max":0,"o":"m 495 422 b 495 472 500 434 500 472 l 68 472 b 66 422 60 460 61 422 z m 281 734 b 288 834 281 773 281 812 b 381 849 292 848 365 849 b 760 425 576 849 760 731 b 400 39 760 160 593 39 b 289 58 350 39 300 43 b 281 156 282 66 281 137 z m 418 892 b 221 891 358 892 274 891 b 61 898 168 891 117 895 b 61 859 54 891 56 865 b 155 837 77 859 151 852 b 161 736 161 815 161 777 l 161 157 b 155 57 161 117 161 79 b 61 35 151 42 77 35 b 61 -4 56 28 54 3 l 400 -4 b 894 453 783 -4 894 222 b 418 892 894 704 715 892 z "},"đ":{"ha":699,"x_min":0,"x_max":0,"o":"m 297 760 b 289 728 292 750 289 735 b 296 712 289 723 290 712 l 656 712 b 665 749 662 723 665 742 b 656 760 665 754 662 760 z m 376 594 b 53 279 254 594 53 457 b 292 -11 53 114 168 -11 b 472 71 357 -11 452 49 b 476 62 475 73 476 69 l 476 15 b 487 -11 476 5 479 -11 b 663 27 488 -11 593 23 b 674 47 670 27 674 45 b 670 64 674 52 673 62 b 590 88 666 65 601 64 b 581 221 582 107 581 168 l 581 802 b 595 920 581 876 595 920 b 581 941 595 929 587 941 b 388 887 524 916 456 894 b 387 852 382 886 385 852 b 469 827 425 852 461 846 b 476 757 476 811 476 776 l 476 609 b 469 581 476 593 475 581 b 376 594 456 586 404 594 z m 332 537 b 476 471 408 537 476 502 l 476 127 b 358 73 476 106 419 73 b 167 312 235 73 167 184 b 332 537 167 426 229 537 z "},"Ē":{"ha":796,"x_min":0,"x_max":0,"o":"m 221 891 b 61 898 168 891 117 895 b 61 859 54 891 56 865 b 155 837 77 859 151 852 b 161 736 161 815 161 777 l 161 157 b 155 57 161 117 161 79 b 61 35 151 42 77 35 b 61 -4 56 28 54 3 b 222 0 114 -4 159 0 b 685 -5 403 0 537 -5 b 758 220 694 54 732 146 b 724 228 754 224 738 228 b 705 220 715 228 707 225 b 620 83 684 161 663 109 b 449 46 582 60 513 46 l 384 46 b 288 60 327 46 305 46 b 279 153 279 66 279 133 l 279 411 b 377 423 279 423 339 423 b 521 412 429 423 506 422 b 559 323 533 404 538 400 b 581 312 562 316 571 312 b 602 317 590 312 600 315 l 602 574 b 579 581 598 578 589 581 b 559 571 570 581 560 578 b 410 473 536 481 540 473 l 338 473 b 279 481 308 473 279 475 l 279 735 b 286 831 279 772 279 810 b 380 846 290 845 363 846 l 496 846 b 654 719 568 846 624 827 b 673 709 655 712 663 709 b 697 716 682 709 693 712 b 658 901 685 777 667 833 b 221 891 510 901 349 891 z m 525 1025 b 533 1082 538 1040 543 1076 l 199 1082 b 191 1025 187 1074 178 1031 z "},"ē":{"ha":583,"x_min":0,"x_max":0,"o":"m 157 387 b 298 545 155 387 184 545 b 410 418 381 545 410 457 b 378 387 410 393 395 387 z m 151 336 b 492 346 167 336 450 343 b 525 410 518 347 525 370 b 321 594 525 464 484 594 b 54 271 202 594 54 453 b 326 -11 54 111 165 -11 b 524 104 431 -11 499 65 b 532 129 528 111 532 122 b 521 148 532 140 522 148 b 372 76 503 127 446 76 b 150 327 255 76 150 160 b 151 336 150 330 150 333 z m 441 712 b 449 769 454 727 458 762 l 145 769 b 137 712 133 761 123 718 z "},"Ĕ":{"ha":796,"x_min":0,"x_max":0,"o":"m 221 891 b 61 898 168 891 117 895 b 61 859 54 891 56 865 b 155 837 77 859 151 852 b 161 736 161 815 161 777 l 161 157 b 155 57 161 117 161 79 b 61 35 151 42 77 35 b 61 -4 56 28 54 3 b 222 0 114 -4 159 0 b 685 -5 403 0 537 -5 b 758 220 694 54 732 146 b 724 228 754 224 738 228 b 705 220 715 228 707 225 b 620 83 684 161 663 109 b 449 46 582 60 513 46 l 384 46 b 288 60 327 46 305 46 b 279 153 279 66 279 133 l 279 411 b 377 423 279 423 339 423 b 521 412 429 423 506 422 b 559 323 533 404 538 400 b 581 312 562 316 571 312 b 602 317 590 312 600 315 l 602 574 b 579 581 598 578 589 581 b 559 571 570 581 560 578 b 410 473 536 481 540 473 l 338 473 b 279 481 308 473 279 475 l 279 735 b 286 831 279 772 279 810 b 380 846 290 845 363 846 l 496 846 b 654 719 568 846 624 827 b 673 709 655 712 663 709 b 697 716 682 709 693 712 b 658 901 685 777 667 833 b 221 891 510 901 349 891 z m 519 1130 b 401 1046 502 1077 461 1046 b 283 1130 342 1046 301 1077 b 254 1107 270 1130 254 1116 b 255 1099 254 1104 254 1101 b 401 983 274 1028 336 983 b 548 1099 467 983 529 1028 b 549 1107 549 1101 549 1104 b 519 1130 549 1116 533 1130 z "},"ĕ":{"ha":583,"x_min":0,"x_max":0,"o":"m 157 387 b 298 545 155 387 184 545 b 410 418 381 545 410 457 b 378 387 410 393 395 387 z m 151 336 b 492 346 167 336 450 343 b 525 410 518 347 525 370 b 321 594 525 464 484 594 b 54 271 202 594 54 453 b 326 -11 54 111 165 -11 b 524 104 431 -11 499 65 b 532 129 528 111 532 122 b 521 148 532 140 522 148 b 372 76 503 127 446 76 b 150 327 255 76 150 160 b 151 336 150 330 150 333 z m 330 736 b 212 834 273 736 225 776 b 206 838 212 837 209 838 b 182 821 198 838 182 827 b 183 811 182 819 183 814 b 330 674 195 734 256 674 b 476 810 403 674 464 738 b 477 821 476 812 477 819 b 453 838 477 827 461 838 b 448 834 450 838 448 837 b 330 736 434 776 387 736 z "},"Ė":{"ha":796,"x_min":0,"x_max":0,"o":"m 221 891 b 61 898 168 891 117 895 b 61 859 54 891 56 865 b 155 837 77 859 151 852 b 161 736 161 815 161 777 l 161 157 b 155 57 161 117 161 79 b 61 35 151 42 77 35 b 61 -4 56 28 54 3 b 222 0 114 -4 159 0 b 685 -5 403 0 537 -5 b 758 220 694 54 732 146 b 724 228 754 224 738 228 b 705 220 715 228 707 225 b 620 83 684 161 663 109 b 449 46 582 60 513 46 l 384 46 b 288 60 327 46 305 46 b 279 153 279 66 279 133 l 279 411 b 377 423 279 423 339 423 b 521 412 429 423 506 422 b 559 323 533 404 538 400 b 581 312 562 316 571 312 b 602 317 590 312 600 315 l 602 574 b 579 581 598 578 589 581 b 559 571 570 581 560 578 b 410 473 536 481 540 473 l 338 473 b 279 481 308 473 279 475 l 279 735 b 286 831 279 772 279 810 b 380 846 290 845 363 846 l 496 846 b 654 719 568 846 624 827 b 673 709 655 712 663 709 b 697 716 682 709 693 712 b 658 901 685 777 667 833 b 221 891 510 901 349 891 z m 332 1055 b 400 987 332 1017 362 987 b 468 1055 438 987 468 1017 b 400 1123 468 1093 438 1123 b 332 1055 362 1123 332 1093 z "},"ė":{"ha":583,"x_min":0,"x_max":0,"o":"m 157 387 b 298 545 155 387 184 545 b 410 418 381 545 410 457 b 378 387 410 393 395 387 z m 151 336 b 492 346 167 336 450 343 b 525 410 518 347 525 370 b 321 594 525 464 484 594 b 54 271 202 594 54 453 b 326 -11 54 111 165 -11 b 524 104 431 -11 499 65 b 532 129 528 111 532 122 b 521 148 532 140 522 148 b 372 76 503 127 446 76 b 150 327 255 76 150 160 b 151 336 150 330 150 333 z m 267 804 b 335 736 267 766 297 736 b 403 804 373 736 403 766 b 335 872 403 842 373 872 b 267 804 297 872 267 842 z "},"Ę":{"ha":796,"x_min":0,"x_max":0,"o":"m 221 891 b 61 898 168 891 117 895 b 61 859 54 891 56 865 b 155 837 77 859 151 852 b 161 736 161 815 161 777 l 161 157 b 155 57 161 117 161 79 b 61 35 151 42 77 35 b 61 -4 56 28 54 3 b 222 0 114 -4 159 0 b 583 -4 403 0 472 -3 b 442 -199 515 -52 442 -130 b 538 -304 442 -236 463 -304 b 681 -214 600 -304 651 -254 b 686 -190 685 -209 686 -197 b 681 -172 686 -179 682 -172 b 571 -224 673 -172 640 -224 b 515 -165 525 -224 515 -186 b 685 -5 515 -107 605 -5 b 758 220 694 54 732 146 b 724 228 754 224 738 228 b 705 220 715 228 707 225 b 620 83 684 161 663 109 b 449 46 582 60 513 46 l 384 46 b 288 60 327 46 305 46 b 279 153 279 66 279 133 l 279 411 b 377 423 279 423 339 423 b 521 412 429 423 506 422 b 559 323 533 404 538 400 b 581 312 562 316 571 312 b 602 317 590 312 600 315 l 602 574 b 579 581 598 578 589 581 b 559 571 570 581 560 578 b 410 473 536 481 540 473 l 338 473 b 279 481 308 473 279 475 l 279 735 b 286 831 279 772 279 810 b 380 846 290 845 363 846 l 496 846 b 654 719 568 846 624 827 b 673 709 655 712 663 709 b 697 716 682 709 693 712 b 658 901 685 777 667 833 b 221 891 510 901 349 891 z "},"ę":{"ha":585,"x_min":0,"x_max":0,"o":"m 458 34 b 524 104 487 58 511 85 b 532 129 528 111 532 122 b 521 148 532 140 522 148 b 372 76 503 127 446 76 b 151 336 252 76 146 163 b 492 346 167 336 450 343 b 525 410 518 347 525 370 b 321 594 525 464 484 594 b 54 271 202 594 54 453 b 326 -11 54 111 165 -11 b 358 -8 336 -11 347 -9 b 252 -199 304 -62 252 -145 b 349 -304 252 -236 273 -304 b 491 -214 410 -304 461 -254 b 496 -190 495 -209 496 -197 b 491 -172 496 -179 492 -172 b 381 -224 483 -172 450 -224 b 326 -165 335 -224 326 -186 b 458 34 326 -87 391 -23 z m 157 387 b 298 545 155 387 184 545 b 410 418 381 545 411 450 b 378 387 408 393 395 387 z "},"Ě":{"ha":796,"x_min":0,"x_max":0,"o":"m 416 986 b 433 997 422 986 427 991 b 572 1142 488 1058 514 1081 b 557 1165 572 1150 566 1165 l 416 1078 b 275 1165 416 1078 298 1150 b 262 1142 267 1165 262 1150 b 400 997 320 1080 346 1055 b 416 986 406 991 411 986 z m 221 891 b 61 898 168 891 117 895 b 61 859 54 891 56 865 b 155 837 77 859 151 852 b 161 736 161 815 161 777 l 161 157 b 155 57 161 117 161 79 b 61 35 151 42 77 35 b 61 -4 56 28 54 3 b 222 0 114 -4 159 0 b 685 -5 403 0 537 -5 b 758 220 694 54 732 146 b 724 228 754 224 738 228 b 705 220 715 228 707 225 b 620 83 684 161 663 109 b 449 46 582 60 513 46 l 384 46 b 288 60 327 46 305 46 b 279 153 279 66 279 133 l 279 411 b 377 423 279 423 339 423 b 521 412 429 423 506 422 b 559 323 533 404 538 400 b 581 312 562 316 571 312 b 602 317 590 312 600 315 l 602 574 b 579 581 598 578 589 581 b 559 571 570 581 560 578 b 410 473 536 481 540 473 l 338 473 b 279 481 308 473 279 475 l 279 735 b 286 831 279 772 279 810 b 380 846 290 845 363 846 l 496 846 b 654 719 568 846 624 827 b 673 709 655 712 663 709 b 697 716 682 709 693 712 b 658 901 685 777 667 833 b 221 891 510 901 349 891 z "},"ě":{"ha":583,"x_min":0,"x_max":0,"o":"m 157 387 b 298 545 155 387 184 545 b 410 418 381 545 410 457 b 378 387 410 393 395 387 z m 151 336 b 492 346 167 336 450 343 b 525 410 518 347 525 370 b 321 594 525 464 484 594 b 54 271 202 594 54 453 b 326 -11 54 111 165 -11 b 524 104 431 -11 499 65 b 532 129 528 111 532 122 b 521 148 532 140 522 148 b 372 76 503 127 446 76 b 150 327 255 76 150 160 b 151 336 150 330 150 333 z m 326 674 b 340 686 331 674 336 680 b 468 865 387 761 415 796 b 453 883 468 875 460 883 b 326 770 400 837 326 770 b 198 883 326 770 251 837 b 183 865 191 883 183 875 b 311 686 236 796 264 761 b 326 674 315 680 320 674 z "},"Ĝ":{"ha":977,"x_min":0,"x_max":0,"o":"m 726 237 l 726 100 b 716 80 726 91 724 84 b 552 37 675 60 623 37 b 199 465 315 37 199 254 b 530 860 199 655 330 860 b 796 662 757 860 788 704 b 812 658 800 659 804 658 b 842 675 826 658 844 667 b 811 876 842 689 811 876 b 524 905 711 898 613 905 b 65 437 256 905 65 690 b 518 -8 65 197 250 -8 b 829 62 697 -8 770 31 b 856 87 852 75 856 79 b 842 141 856 100 842 113 l 842 237 b 849 338 842 278 842 316 b 937 359 853 353 921 359 b 937 399 943 366 944 392 b 785 392 882 396 838 392 b 627 399 732 392 682 396 b 627 359 620 392 621 366 b 719 338 643 359 715 353 b 726 237 726 316 726 278 z m 522 1165 b 506 1154 517 1165 511 1160 b 366 1009 450 1093 425 1070 b 381 986 366 1001 373 986 l 522 1073 b 663 986 522 1073 640 1001 b 677 1009 671 986 677 1001 b 538 1154 618 1072 593 1096 b 522 1165 533 1160 528 1165 z "},"ĝ":{"ha":632,"x_min":0,"x_max":0,"o":"m 292 555 b 418 381 376 555 418 465 b 302 227 418 307 377 227 b 172 396 220 227 172 313 b 292 555 172 473 214 555 z m 346 -5 b 525 -110 475 -5 525 -71 b 320 -255 525 -184 414 -255 b 138 -103 205 -255 138 -191 b 220 -12 138 -68 189 -30 b 346 -5 229 -7 321 -5 z m 408 91 l 248 91 b 167 138 194 91 167 125 b 217 198 167 160 193 184 b 293 186 231 193 270 186 b 522 385 423 186 522 290 b 484 509 522 448 491 502 b 490 513 484 511 486 513 b 579 507 490 513 545 509 b 610 563 593 515 610 552 b 597 576 610 568 606 574 l 452 556 b 420 566 439 559 446 556 b 297 595 396 575 355 595 b 68 391 167 595 68 498 b 180 217 68 324 114 254 b 64 125 156 202 87 152 b 175 -1 64 57 127 14 b 31 -142 129 -24 31 -83 b 266 -308 31 -254 156 -309 b 618 -52 454 -307 618 -163 b 408 91 618 24 515 91 z m 307 917 b 292 905 301 917 296 911 b 164 726 245 830 217 795 b 179 708 164 716 172 708 b 307 811 227 746 307 811 b 434 708 307 811 382 750 b 449 726 441 708 449 716 b 321 905 396 795 368 830 b 307 917 317 911 312 917 z "},"Ğ":{"ha":977,"x_min":0,"x_max":0,"o":"m 726 237 l 726 100 b 716 80 726 91 724 84 b 552 37 675 60 623 37 b 199 465 315 37 199 254 b 530 860 199 655 330 860 b 796 662 757 860 788 704 b 812 658 800 659 804 658 b 842 675 826 658 844 667 b 811 876 842 689 811 876 b 524 905 711 898 613 905 b 65 437 256 905 65 690 b 518 -8 65 197 250 -8 b 829 62 697 -8 770 31 b 856 87 852 75 856 79 b 842 141 856 100 842 113 l 842 237 b 849 338 842 278 842 316 b 937 359 853 353 921 359 b 937 399 943 366 944 392 b 785 392 882 396 838 392 b 627 399 732 392 682 396 b 627 359 620 392 621 366 b 719 338 643 359 715 353 b 726 237 726 316 726 278 z m 635 1130 b 517 1046 617 1077 576 1046 b 399 1130 457 1046 416 1077 b 369 1107 385 1130 369 1116 b 370 1099 369 1104 369 1101 b 517 983 389 1028 452 983 b 663 1099 582 983 644 1028 b 665 1107 665 1101 665 1104 b 635 1130 665 1116 648 1130 z "},"ğ":{"ha":632,"x_min":0,"x_max":0,"o":"m 292 555 b 418 381 376 555 418 465 b 302 227 418 307 377 227 b 172 396 220 227 172 313 b 292 555 172 473 214 555 z m 346 -5 b 525 -110 475 -5 525 -71 b 320 -255 525 -184 414 -255 b 138 -103 205 -255 138 -191 b 220 -12 138 -68 189 -30 b 346 -5 229 -7 321 -5 z m 408 91 l 248 91 b 167 138 194 91 167 125 b 217 198 167 160 193 184 b 293 186 231 193 270 186 b 522 385 423 186 522 290 b 484 509 522 448 491 502 b 490 513 484 511 486 513 b 579 507 490 513 545 509 b 610 563 593 515 610 552 b 597 576 610 568 606 574 l 452 556 b 420 566 439 559 446 556 b 297 595 396 575 355 595 b 68 391 167 595 68 498 b 180 217 68 324 114 254 b 64 125 156 202 87 152 b 175 -1 64 57 127 14 b 31 -142 129 -24 31 -83 b 266 -308 31 -254 156 -309 b 618 -52 454 -307 618 -163 b 408 91 618 24 515 91 z m 321 736 b 203 834 264 736 217 776 b 198 838 203 837 201 838 b 174 821 190 838 174 827 b 175 811 174 819 175 814 b 321 674 187 734 248 674 b 468 810 395 674 456 738 b 469 821 468 812 469 819 b 445 838 469 827 453 838 b 439 834 442 838 439 837 b 321 736 426 776 378 736 z "},"Ġ":{"ha":977,"x_min":0,"x_max":0,"o":"m 726 237 l 726 100 b 716 80 726 91 724 84 b 552 37 675 60 623 37 b 199 465 315 37 199 254 b 530 860 199 655 330 860 b 796 662 757 860 788 704 b 812 658 800 659 804 658 b 842 675 826 658 844 667 b 811 876 842 689 811 876 b 524 905 711 898 613 905 b 65 437 256 905 65 690 b 518 -8 65 197 250 -8 b 829 62 697 -8 770 31 b 856 87 852 75 856 79 b 842 141 856 100 842 113 l 842 237 b 849 338 842 278 842 316 b 937 359 853 353 921 359 b 937 399 943 366 944 392 b 785 392 882 396 838 392 b 627 399 732 392 682 396 b 627 359 620 392 621 366 b 719 338 643 359 715 353 b 726 237 726 316 726 278 z m 452 1055 b 519 987 452 1017 481 987 b 587 1055 557 987 587 1017 b 519 1123 587 1093 557 1123 b 452 1055 481 1123 452 1093 z "},"ġ":{"ha":632,"x_min":0,"x_max":0,"o":"m 292 555 b 418 381 376 555 418 465 b 302 227 418 307 377 227 b 172 396 220 227 172 313 b 292 555 172 473 214 555 z m 346 -5 b 525 -110 475 -5 525 -71 b 320 -255 525 -184 414 -255 b 138 -103 205 -255 138 -191 b 220 -12 138 -68 189 -30 b 346 -5 229 -7 321 -5 z m 408 91 l 248 91 b 167 138 194 91 167 125 b 217 198 167 160 193 184 b 293 186 231 193 270 186 b 522 385 423 186 522 290 b 484 509 522 448 491 502 b 490 513 484 511 486 513 b 579 507 490 513 545 509 b 610 563 593 515 610 552 b 597 576 610 568 606 574 l 452 556 b 420 566 439 559 446 556 b 297 595 396 575 355 595 b 68 391 167 595 68 498 b 180 217 68 324 114 254 b 64 125 156 202 87 152 b 175 -1 64 57 127 14 b 31 -142 129 -24 31 -83 b 266 -308 31 -254 156 -309 b 618 -52 454 -307 618 -163 b 408 91 618 24 515 91 z m 240 804 b 308 736 240 766 270 736 b 376 804 346 736 376 766 b 308 872 376 842 346 872 b 240 804 270 872 240 842 z "},"Ģ":{"ha":977,"x_min":0,"x_max":0,"o":"m 726 237 l 726 100 b 716 80 726 91 724 84 b 552 37 675 60 623 37 b 199 465 315 37 199 254 b 530 860 199 655 330 860 b 796 662 757 860 788 704 b 812 658 800 659 804 658 b 842 675 826 658 844 667 b 811 876 842 689 811 876 b 524 905 711 898 613 905 b 65 437 256 905 65 690 b 518 -8 65 197 250 -8 b 829 62 697 -8 770 31 b 856 87 852 75 856 79 b 842 141 856 100 842 113 l 842 237 b 849 338 842 278 842 316 b 937 359 853 353 921 359 b 937 399 943 366 944 392 b 785 392 882 396 838 392 b 627 399 732 392 682 396 b 627 359 620 392 621 366 b 719 338 643 359 715 353 b 726 237 726 316 726 278 z m 517 -62 b 441 -122 456 -62 441 -110 b 488 -201 441 -178 488 -172 b 418 -290 488 -241 437 -281 b 439 -311 418 -296 429 -308 b 574 -130 509 -281 574 -210 b 560 -75 574 -110 568 -87 b 517 -62 549 -68 533 -62 z "},"ģ":{"ha":632,"x_min":0,"x_max":0,"o":"m 292 555 b 418 381 376 555 418 465 b 302 227 418 307 377 227 b 172 396 220 227 172 313 b 292 555 172 473 214 555 z m 346 -5 b 525 -110 475 -5 525 -71 b 320 -255 525 -184 414 -255 b 138 -103 205 -255 138 -191 b 220 -12 138 -68 189 -30 b 346 -5 229 -7 321 -5 z m 408 91 l 248 91 b 167 138 194 91 167 125 b 217 198 167 160 193 184 b 293 186 231 193 270 186 b 522 385 423 186 522 290 b 484 509 522 448 491 502 b 490 513 484 511 486 513 b 579 507 490 513 545 509 b 610 563 593 515 610 552 b 597 576 610 568 606 574 l 452 556 b 420 566 439 559 446 556 b 297 595 396 575 355 595 b 68 391 167 595 68 498 b 180 217 68 324 114 254 b 64 125 156 202 87 152 b 175 -1 64 57 127 14 b 31 -142 129 -24 31 -83 b 266 -308 31 -254 156 -309 b 618 -52 454 -307 618 -163 b 408 91 618 24 515 91 z m 376 730 b 326 811 376 770 326 774 b 388 891 326 844 388 884 b 361 901 388 895 378 901 b 350 898 355 901 351 899 b 239 727 316 880 239 821 b 269 655 239 705 252 669 b 376 730 350 655 376 696 z "},"Ĥ":{"ha":985,"x_min":0,"x_max":0,"o":"m 221 891 b 61 898 168 891 117 895 b 61 854 54 891 56 861 b 155 833 77 854 151 848 b 161 732 161 811 161 773 l 161 161 b 155 61 161 121 161 83 b 61 39 151 46 77 39 b 61 -4 56 33 54 3 b 221 3 117 -1 168 3 b 380 -4 274 3 324 -1 b 380 39 387 3 385 33 b 286 61 363 39 290 46 b 279 161 279 83 279 121 l 279 430 b 281 433 279 430 279 431 b 495 441 286 435 307 441 b 703 435 564 441 639 437 b 705 430 703 435 705 433 l 705 161 b 699 61 705 121 705 83 b 605 39 694 46 621 39 b 605 -4 600 33 598 3 b 765 3 661 -1 712 3 b 924 -4 818 3 868 -1 b 924 39 930 3 929 33 b 830 61 907 39 834 46 b 823 161 823 83 823 121 l 823 732 b 830 833 823 773 823 811 b 924 854 834 848 907 854 b 924 898 929 861 930 891 b 765 891 868 895 818 891 b 605 898 712 891 661 895 b 605 854 598 891 600 861 b 699 833 621 854 694 848 b 705 732 705 811 705 773 l 705 496 b 703 491 705 494 703 491 b 495 487 642 490 559 487 b 282 491 419 487 349 490 b 279 495 282 491 279 492 l 279 732 b 286 833 279 773 279 811 b 380 854 290 848 363 854 b 380 898 385 861 387 891 b 221 891 324 895 274 891 z m 498 1165 b 481 1154 492 1165 487 1160 b 342 1009 426 1093 400 1070 b 357 986 342 1001 349 986 l 498 1073 b 639 986 498 1073 616 1001 b 652 1009 647 986 652 1001 b 514 1154 594 1072 568 1096 b 498 1165 509 1160 503 1165 z "},"ĥ":{"ha":700,"x_min":0,"x_max":0,"o":"m 418 594 b 235 495 353 594 262 525 b 231 492 233 494 232 492 b 227 495 228 492 227 494 l 227 802 b 241 920 227 876 241 920 b 227 941 241 929 233 941 b 34 887 170 916 102 894 b 33 852 28 886 31 852 b 115 827 71 852 107 846 b 122 757 122 811 122 774 l 122 157 b 115 57 122 117 122 79 b 30 35 111 42 46 35 b 30 -4 24 28 23 3 b 174 3 85 -1 121 3 b 319 -4 227 3 263 -1 b 319 35 326 3 324 28 b 233 57 302 35 237 42 b 227 157 227 79 227 117 l 227 441 b 355 515 227 453 305 515 b 488 293 461 515 488 461 l 488 157 b 481 57 488 117 488 79 b 396 35 477 42 412 35 b 396 -4 391 28 389 3 b 540 3 452 -1 487 3 b 685 -4 593 3 629 -1 b 685 35 692 3 690 28 b 600 57 669 35 604 42 b 593 157 593 79 593 117 l 593 307 b 418 594 593 503 564 594 z m 170 1165 b 153 1154 164 1165 159 1160 b 14 1009 98 1093 72 1070 b 28 986 14 1001 20 986 l 170 1073 b 311 986 170 1073 288 1001 b 324 1009 319 986 324 1001 b 186 1154 266 1072 240 1096 b 170 1165 180 1160 175 1165 z "},"Ħ":{"ha":985,"x_min":0,"x_max":0,"o":"m 117 637 l 865 637 b 873 671 873 650 873 663 b 867 689 873 678 872 689 l 118 689 b 110 655 110 677 110 663 b 117 637 110 648 111 637 z m 221 891 b 61 898 168 891 117 895 b 61 854 54 891 56 861 b 155 833 77 854 151 848 b 161 732 161 811 161 773 l 161 161 b 155 61 161 121 161 83 b 61 39 151 46 77 39 b 61 -4 56 33 54 3 b 221 3 117 -1 168 3 b 380 -4 274 3 324 -1 b 380 39 387 3 385 33 b 286 61 363 39 290 46 b 279 161 279 83 279 121 l 279 430 b 281 433 279 430 279 431 b 495 441 286 435 307 441 b 703 435 564 441 639 437 b 705 430 703 435 705 433 l 705 161 b 699 61 705 121 705 83 b 605 39 694 46 621 39 b 605 -4 600 33 598 3 b 765 3 661 -1 712 3 b 924 -4 818 3 868 -1 b 924 39 930 3 929 33 b 830 61 907 39 834 46 b 823 161 823 83 823 121 l 823 732 b 830 833 823 773 823 811 b 924 854 834 848 907 854 b 924 898 929 861 930 891 b 765 891 868 895 818 891 b 605 898 712 891 661 895 b 605 854 598 891 600 861 b 699 833 621 854 694 848 b 705 732 705 811 705 773 l 705 496 b 703 491 705 494 703 491 b 495 487 642 490 559 487 b 282 491 419 487 349 490 b 279 495 282 491 279 492 l 279 732 b 286 833 279 773 279 811 b 380 854 290 848 363 854 b 380 898 385 861 387 891 b 221 891 324 895 274 891 z "},"ħ":{"ha":700,"x_min":0,"x_max":0,"o":"m 39 760 b 31 728 34 750 31 735 b 38 712 31 723 33 712 l 399 712 b 407 749 404 723 407 742 b 399 760 407 754 404 760 z m 416 594 b 233 495 351 594 260 525 b 229 492 232 494 231 492 b 225 495 227 492 225 494 l 225 802 b 240 920 225 876 240 920 b 225 941 240 929 232 941 b 33 887 168 916 100 894 b 31 852 27 886 30 852 b 114 827 69 852 106 846 b 121 757 121 811 121 774 l 121 157 b 114 57 121 117 121 79 b 28 35 110 42 45 35 b 28 -4 23 28 22 3 b 172 3 84 -1 119 3 b 317 -4 225 3 262 -1 b 317 35 324 3 323 28 b 232 57 301 35 236 42 b 225 157 225 79 225 117 l 225 441 b 354 515 225 453 304 515 b 487 293 460 515 487 461 l 487 157 b 480 57 487 117 487 79 b 395 35 476 42 411 35 b 395 -4 389 28 388 3 b 538 3 450 -1 486 3 b 684 -4 591 3 628 -1 b 684 35 690 3 689 28 b 598 57 667 35 602 42 b 591 157 591 79 591 117 l 591 307 b 416 594 591 503 563 594 z "},"Ĩ":{"ha":439,"x_min":0,"x_max":0,"o":"m 220 891 b 60 898 167 891 115 895 b 60 859 53 891 54 865 b 153 837 76 859 149 852 b 160 736 160 815 160 777 l 160 157 b 153 57 160 117 160 79 b 60 35 149 42 76 35 b 60 -4 54 28 53 3 b 220 3 115 -1 167 3 b 378 -4 273 3 323 -1 b 378 35 385 3 384 28 b 285 57 362 35 289 42 b 278 157 278 79 278 117 l 278 736 b 285 837 278 777 278 815 b 378 859 289 852 362 859 b 378 898 384 865 385 891 b 220 891 323 895 273 891 z m 157 1100 b 64 1051 121 1100 90 1082 b 45 1004 54 1039 45 1021 b 53 989 45 998 47 989 b 140 1040 62 994 85 1040 b 224 1008 167 1040 195 1024 b 315 978 251 993 278 978 b 408 1028 351 978 382 997 b 427 1076 418 1040 427 1058 b 419 1089 427 1081 425 1089 b 331 1038 410 1084 385 1038 b 248 1070 309 1038 277 1054 b 157 1100 221 1085 194 1100 z "},"ĩ":{"ha":366,"x_min":0,"x_max":0,"o":"m 256 441 l 256 486 b 266 575 256 499 264 566 b 251 597 266 582 258 597 b 57 540 197 568 126 549 b 57 505 52 533 54 507 b 145 480 66 505 136 503 b 152 410 152 464 152 427 l 152 157 b 145 57 152 117 152 79 b 60 35 141 42 76 35 b 60 -4 54 28 53 3 b 203 3 115 -1 151 3 b 349 -4 256 3 293 -1 b 349 35 355 3 354 28 b 263 57 332 35 267 42 b 256 157 256 79 256 117 z m 137 798 b 53 749 104 798 76 780 b 37 699 45 736 37 716 b 47 684 37 693 39 684 b 118 736 57 689 69 736 b 198 703 142 736 172 719 b 279 673 222 688 245 673 b 363 723 312 673 340 692 b 382 774 372 735 382 757 b 374 787 382 780 382 787 b 298 734 365 781 347 734 b 220 766 279 734 245 750 b 137 798 195 781 171 798 z "},"Ī":{"ha":439,"x_min":0,"x_max":0,"o":"m 222 891 b 62 898 170 891 118 895 b 62 859 56 891 57 865 b 156 837 79 859 152 852 b 163 736 163 815 163 777 l 163 157 b 156 57 163 117 163 79 b 62 35 152 42 79 35 b 62 -4 57 28 56 3 b 222 3 118 -1 170 3 b 381 -4 275 3 326 -1 b 381 35 388 3 387 28 b 288 57 365 35 292 42 b 281 157 281 79 281 117 l 281 736 b 288 837 281 777 281 815 b 381 859 292 852 365 859 b 381 898 387 865 388 891 b 222 891 326 895 275 891 z m 395 1025 b 403 1082 408 1040 412 1076 l 69 1082 b 61 1025 57 1074 47 1031 z "},"ī":{"ha":366,"x_min":0,"x_max":0,"o":"m 256 441 l 256 486 b 266 575 256 499 264 566 b 251 597 266 582 258 597 b 57 540 197 568 126 549 b 57 505 52 533 54 507 b 145 480 66 505 136 503 b 152 410 152 464 152 427 l 152 157 b 145 57 152 117 152 79 b 60 35 141 42 76 35 b 60 -4 54 28 53 3 b 203 3 115 -1 151 3 b 349 -4 256 3 293 -1 b 349 35 355 3 354 28 b 263 57 332 35 267 42 b 256 157 256 79 256 117 z m 332 712 b 340 769 346 727 350 762 l 37 769 b 28 712 24 761 15 718 z "},"Ĭ":{"ha":439,"x_min":0,"x_max":0,"o":"m 221 891 b 61 898 168 891 117 895 b 61 859 54 891 56 865 b 155 837 77 859 151 852 b 161 736 161 815 161 777 l 161 157 b 155 57 161 117 161 79 b 61 35 151 42 77 35 b 61 -4 56 28 54 3 b 221 3 117 -1 168 3 b 380 -4 274 3 324 -1 b 380 35 387 3 385 28 b 286 57 363 35 290 42 b 279 157 279 79 279 117 l 279 736 b 286 837 279 777 279 815 b 380 859 290 852 363 859 b 380 898 385 865 387 891 b 221 891 324 895 274 891 z m 346 1130 b 228 1046 328 1077 288 1046 b 110 1130 168 1046 127 1077 b 80 1107 96 1130 80 1116 b 81 1099 80 1104 80 1101 b 228 983 100 1028 163 983 b 374 1099 293 983 355 1028 b 376 1107 376 1101 376 1104 b 346 1130 376 1116 359 1130 z "},"ĭ":{"ha":366,"x_min":0,"x_max":0,"o":"m 255 441 l 255 486 b 264 575 255 499 263 566 b 250 597 264 582 256 597 b 56 540 195 568 125 549 b 56 505 50 533 53 507 b 144 480 65 505 134 503 b 151 410 151 464 151 427 l 151 157 b 144 57 151 117 151 79 b 58 35 140 42 75 35 b 58 -4 53 28 52 3 b 202 3 114 -1 149 3 b 347 -4 255 3 292 -1 b 347 35 354 3 353 28 b 262 57 331 35 266 42 b 255 157 255 79 255 117 z m 210 736 b 92 834 153 736 106 776 b 87 838 92 837 90 838 b 62 821 79 838 62 827 b 64 811 62 819 64 814 b 210 674 76 734 137 674 b 357 810 283 674 345 738 b 358 821 357 812 358 819 b 334 838 358 827 342 838 b 328 834 331 838 328 837 b 210 736 315 776 267 736 z "},"Į":{"ha":445,"x_min":0,"x_max":0,"o":"m 225 891 b 62 898 163 891 125 895 b 57 876 60 895 57 884 b 62 859 57 868 60 859 b 153 830 79 859 146 846 b 163 709 161 799 163 734 l 163 183 b 153 62 163 159 161 94 b 62 35 146 46 79 35 b 57 16 60 35 57 24 b 62 -4 57 8 60 -1 b 225 3 125 -1 163 3 l 250 3 b 92 -199 178 -45 92 -126 b 189 -304 92 -236 113 -304 b 331 -214 250 -304 301 -254 b 336 -190 335 -209 336 -197 b 331 -172 336 -179 332 -172 b 221 -224 323 -172 290 -224 b 165 -165 175 -224 165 -186 b 311 0 165 -106 251 -35 b 382 -4 332 -1 358 -3 b 385 15 384 0 385 8 b 380 35 385 23 384 35 b 293 62 369 35 297 47 b 281 189 283 99 281 140 l 281 704 b 293 830 281 753 283 793 b 380 859 297 845 369 859 b 385 878 384 859 385 869 b 382 898 385 884 384 894 b 225 891 328 895 285 891 z "},"į":{"ha":363,"x_min":0,"x_max":0,"o":"m 43 -4 b 191 3 99 -1 136 3 b 228 1 205 3 217 1 b 71 -199 156 -46 71 -126 b 167 -304 71 -236 91 -304 b 309 -214 228 -304 279 -254 b 315 -190 313 -209 315 -197 b 309 -172 315 -179 311 -172 b 199 -224 301 -172 269 -224 b 144 -165 153 -224 144 -186 b 286 -1 144 -107 227 -38 b 336 -4 298 -3 321 -3 b 332 35 339 4 339 35 b 251 62 321 35 255 47 b 240 183 241 99 240 138 l 240 463 b 247 560 240 509 241 517 b 240 589 248 567 248 589 b 233 587 239 589 235 587 b 46 552 183 572 107 562 b 38 518 39 551 38 519 b 117 487 38 510 87 524 b 136 414 134 468 136 425 l 136 157 b 126 62 136 138 134 96 b 43 35 122 47 60 35 b 43 -4 37 35 37 3 z m 122 804 b 190 736 122 766 152 736 b 258 804 228 736 258 766 b 190 872 258 842 228 872 b 122 804 152 872 122 842 z "},"İ":{"ha":439,"x_min":0,"x_max":0,"o":"m 221 891 b 61 898 168 891 117 895 b 61 859 54 891 56 865 b 155 837 77 859 151 852 b 161 736 161 815 161 777 l 161 157 b 155 57 161 117 161 79 b 61 35 151 42 77 35 b 61 -4 56 28 54 3 b 221 3 117 -1 168 3 b 380 -4 274 3 324 -1 b 380 35 387 3 385 28 b 286 57 363 35 290 42 b 279 157 279 79 279 117 l 279 736 b 286 837 279 777 279 815 b 380 859 290 852 363 859 b 380 898 385 865 387 891 b 221 891 324 895 274 891 z m 153 1055 b 221 987 153 1017 183 987 b 289 1055 259 987 289 1017 b 221 1123 289 1093 259 1123 b 153 1055 183 1123 153 1093 z "},"ı":{"ha":366,"x_min":0,"x_max":0,"o":"m 245 441 l 245 486 b 255 575 245 499 254 566 b 240 597 255 582 247 597 b 46 540 186 568 115 549 b 46 505 41 533 43 507 b 134 480 56 505 125 503 b 141 410 141 464 141 427 l 141 157 b 134 57 141 117 141 79 b 49 35 130 42 65 35 b 49 -4 43 28 42 3 b 193 3 104 -1 140 3 b 338 -4 245 3 282 -1 b 338 35 345 3 343 28 b 252 57 321 35 256 42 b 245 157 245 79 245 117 z "},"Ĳ":{"ha":774,"x_min":0,"x_max":0,"o":"m 564 891 b 404 898 511 891 460 895 b 404 859 397 891 399 865 b 498 837 420 859 494 852 b 505 736 505 815 505 777 l 505 157 b 400 -244 505 -171 457 -244 b 339 -216 377 -244 354 -229 b 274 -176 320 -198 298 -176 b 209 -252 231 -176 209 -210 b 220 -283 209 -262 213 -277 b 305 -308 236 -296 285 -308 b 623 164 488 -308 623 -175 l 623 736 b 629 837 623 777 623 815 b 723 859 633 852 707 859 b 723 898 728 865 730 891 b 564 891 667 895 617 891 z m 220 891 b 60 898 167 891 115 895 b 60 859 53 891 54 865 b 153 837 76 859 149 852 b 160 736 160 815 160 777 l 160 157 b 153 57 160 117 160 79 b 60 35 149 42 76 35 b 60 -4 54 28 53 3 b 220 3 115 -1 167 3 b 378 -4 273 3 323 -1 b 378 35 385 3 384 28 b 285 57 362 35 289 42 b 278 157 278 79 278 117 l 278 736 b 285 837 278 777 278 815 b 378 859 289 852 362 859 b 378 898 384 865 385 891 b 220 891 323 895 273 891 z "},"ĳ":{"ha":642,"x_min":0,"x_max":0,"o":"m 442 61 b 294 -283 442 -164 372 -228 b 294 -293 293 -285 293 -290 b 312 -313 297 -300 305 -309 b 547 92 404 -275 547 -168 l 547 439 l 547 486 b 556 575 547 503 555 566 b 541 597 556 582 548 597 b 347 540 487 568 416 549 b 347 505 342 533 345 507 b 435 480 357 505 426 503 b 442 410 442 464 442 427 z m 407 804 b 475 736 407 766 437 736 b 543 804 513 736 543 766 b 475 872 543 842 513 872 b 407 804 437 872 407 842 z m 245 441 l 245 486 b 255 575 245 499 254 566 b 240 597 255 582 247 597 b 46 540 186 568 115 549 b 46 505 41 533 43 507 b 134 480 56 505 125 503 b 141 410 141 464 141 427 l 141 157 b 134 57 141 117 141 79 b 49 35 130 42 65 35 b 49 -4 43 28 42 3 b 193 3 104 -1 140 3 b 338 -4 245 3 282 -1 b 338 35 345 3 343 28 b 252 57 321 35 256 42 b 245 157 245 79 245 117 z m 115 804 b 183 736 115 766 145 736 b 251 804 221 736 251 766 b 183 872 251 842 221 872 b 115 804 145 872 115 842 z "},"Ĵ":{"ha":425,"x_min":0,"x_max":0,"o":"m 214 891 b 54 898 161 891 110 895 b 54 859 47 891 49 865 b 148 837 71 859 144 852 b 155 736 155 815 155 777 l 155 157 b 50 -244 155 -171 107 -244 b -11 -216 27 -244 4 -229 b -76 -176 -30 -198 -52 -176 b -141 -252 -119 -176 -141 -210 b -130 -283 -141 -262 -137 -277 b -45 -308 -114 -296 -65 -308 b 273 164 138 -308 273 -175 l 273 736 b 279 837 273 777 273 815 b 373 859 283 852 357 859 b 373 898 378 865 380 891 b 214 891 317 895 267 891 z m 221 1165 b 205 1154 216 1165 210 1160 b 65 1009 149 1093 123 1070 b 80 986 65 1001 72 986 l 221 1073 b 362 986 221 1073 339 1001 b 376 1009 370 986 376 1001 b 237 1154 317 1072 292 1096 b 221 1165 232 1160 227 1165 z "},"ĵ":{"ha":324,"x_min":0,"x_max":0,"o":"m 129 61 b -19 -283 129 -164 58 -228 b -19 -293 -20 -285 -20 -290 b -1 -313 -16 -300 -8 -309 b 233 92 91 -275 233 -168 l 233 439 l 233 486 b 243 575 233 503 241 566 b 228 597 243 582 235 597 b 34 540 174 568 103 549 b 34 505 28 533 31 507 b 122 480 43 505 113 503 b 129 410 129 464 129 427 z m 182 876 b 167 864 176 876 171 871 b 39 685 121 789 92 754 b 54 667 39 675 47 667 b 182 770 102 705 182 770 b 309 667 182 770 258 709 b 324 685 316 667 324 675 b 197 864 271 754 243 789 b 182 876 193 871 187 876 z "},"Ķ":{"ha":891,"x_min":0,"x_max":0,"o":"m 221 891 b 61 898 168 891 117 895 b 61 854 54 891 56 861 b 155 833 77 854 151 848 b 161 732 161 811 161 773 l 161 161 b 155 61 161 121 161 83 b 61 39 151 46 77 39 b 61 -4 56 33 54 3 b 221 3 117 -1 168 3 b 380 -4 274 3 324 -1 b 380 39 387 3 385 33 b 286 61 363 39 290 46 b 279 161 279 83 279 121 l 279 414 b 292 416 282 415 288 416 b 304 412 297 416 301 416 b 609 69 457 237 581 98 b 701 11 647 31 682 18 b 894 -4 728 1 803 -4 b 895 35 895 -1 902 28 b 747 98 821 41 781 66 b 400 483 643 197 530 331 b 400 494 397 487 397 490 b 713 806 518 608 597 678 b 848 856 760 856 836 854 b 850 898 854 856 853 890 b 704 890 796 895 764 890 b 548 898 654 890 598 895 b 548 856 544 886 544 864 b 624 826 560 856 624 860 b 605 784 624 812 613 795 b 433 600 564 731 538 704 b 279 463 377 545 308 480 l 279 732 b 286 833 279 773 279 811 b 380 854 290 848 363 854 b 380 898 385 861 387 891 b 221 891 324 895 274 891 z m 487 -62 b 411 -122 426 -62 411 -110 b 458 -201 411 -178 458 -172 b 388 -290 458 -241 407 -281 b 410 -311 388 -296 399 -308 b 544 -130 479 -281 544 -210 b 530 -75 544 -110 538 -87 b 487 -62 519 -68 503 -62 z "},"ķ":{"ha":703,"x_min":0,"x_max":0,"o":"m 225 157 l 225 277 b 245 264 225 277 240 271 b 439 54 323 180 439 54 b 606 -5 460 33 526 -5 b 694 3 643 -5 685 -1 b 693 35 699 9 696 31 b 568 72 658 34 604 43 b 324 338 536 99 426 228 b 544 506 404 406 529 495 b 648 537 572 526 629 537 b 648 576 652 543 654 568 b 529 570 618 572 575 570 b 399 576 486 570 438 572 b 396 537 392 574 389 547 b 461 514 408 536 461 534 b 336 401 461 500 407 461 b 225 319 290 362 248 327 l 225 802 b 240 920 225 876 240 920 b 225 941 240 929 232 941 b 33 887 168 916 100 894 b 31 852 27 886 30 852 b 114 827 69 852 106 846 b 121 757 121 811 121 776 l 121 157 b 114 57 121 117 121 79 b 28 35 110 42 45 35 b 28 -4 23 28 22 3 b 172 3 84 -1 119 3 b 317 -4 225 3 262 -1 b 317 35 324 3 323 28 b 232 57 301 35 236 42 b 225 157 225 79 225 117 z m 355 -62 b 279 -122 294 -62 279 -110 b 327 -201 279 -178 327 -172 b 256 -290 327 -241 275 -281 b 278 -311 256 -296 267 -308 b 412 -130 347 -281 412 -210 b 399 -75 412 -110 407 -87 b 355 -62 388 -68 372 -62 z "},"ĸ":{"ha":723,"x_min":0,"x_max":0,"o":"m 245 486 b 255 575 245 499 254 566 b 240 597 255 582 247 597 b 46 540 186 568 115 549 b 46 505 41 533 43 507 b 134 480 56 505 125 503 b 141 410 141 464 141 427 l 141 157 b 134 57 141 117 141 79 b 49 35 130 42 65 35 b 49 -4 43 28 42 3 b 193 3 104 -1 140 3 b 338 -4 245 3 282 -1 b 338 35 345 3 343 28 b 252 57 321 35 256 42 b 245 157 245 79 245 117 l 245 277 b 266 264 245 277 260 271 b 460 54 343 180 460 54 b 627 -5 480 33 547 -5 b 715 3 663 -5 705 -1 b 713 35 719 9 716 31 b 589 72 678 34 624 43 b 345 338 556 99 446 228 b 564 506 425 406 549 495 b 669 537 593 526 650 537 b 669 576 673 543 674 568 b 549 570 639 572 595 570 b 419 576 506 570 458 572 b 416 537 412 574 410 547 b 481 514 429 536 481 534 b 357 401 481 500 427 461 b 245 319 311 362 269 327 z "},"Ĺ":{"ha":765,"x_min":0,"x_max":0,"o":"m 279 157 l 279 736 b 286 837 279 777 279 815 b 380 859 290 852 363 859 b 380 898 385 865 387 891 b 221 891 324 895 274 891 b 61 898 168 891 117 895 b 61 859 54 891 56 865 b 155 837 77 859 151 852 b 161 736 161 815 161 777 l 161 157 b 155 57 161 117 161 79 b 61 35 151 42 77 35 b 61 -4 56 28 54 3 b 222 0 114 -4 159 0 b 685 -5 403 0 537 -5 b 758 220 694 54 732 146 b 724 228 754 224 738 228 b 705 220 715 228 707 225 b 620 83 684 148 654 106 b 461 46 582 57 513 46 l 384 46 b 288 60 327 46 305 46 b 279 157 279 66 279 137 z m 182 1000 b 190 987 182 996 186 987 b 433 1127 213 987 433 1080 b 370 1168 433 1143 423 1168 b 346 1164 359 1168 351 1166 b 182 1000 298 1128 182 1009 z "},"ĺ":{"ha":346,"x_min":0,"x_max":0,"o":"m 121 757 l 121 157 b 114 57 121 117 121 79 b 28 35 110 42 45 35 b 28 -4 23 28 22 3 b 172 3 84 -1 119 3 b 317 -4 225 3 262 -1 b 317 35 324 3 323 28 b 232 57 301 35 236 42 b 225 157 225 79 225 117 l 225 802 b 240 920 225 876 240 920 b 225 941 240 929 232 941 b 33 887 168 916 100 894 b 31 852 27 886 30 852 b 114 827 69 852 106 846 b 121 757 121 811 121 776 z m 99 1000 b 107 987 99 996 103 987 b 350 1127 130 987 350 1080 b 288 1168 350 1143 340 1168 b 263 1164 277 1168 269 1166 b 99 1000 216 1128 99 1009 z "},"Ļ":{"ha":765,"x_min":0,"x_max":0,"o":"m 279 157 l 279 736 b 286 837 279 777 279 815 b 380 859 290 852 363 859 b 380 898 385 865 387 891 b 221 891 324 895 274 891 b 61 898 168 891 117 895 b 61 859 54 891 56 865 b 155 837 77 859 151 852 b 161 736 161 815 161 777 l 161 157 b 155 57 161 117 161 79 b 61 35 151 42 77 35 b 61 -4 56 28 54 3 b 222 0 114 -4 159 0 b 685 -5 403 0 537 -5 b 758 220 694 54 732 146 b 724 228 754 224 738 228 b 705 220 715 228 707 225 b 620 83 684 148 654 106 b 461 46 582 57 513 46 l 384 46 b 288 60 327 46 305 46 b 279 157 279 66 279 137 z m 437 -62 b 361 -122 376 -62 361 -110 b 408 -201 361 -178 408 -172 b 338 -290 408 -241 357 -281 b 359 -311 338 -296 349 -308 b 494 -130 429 -281 494 -210 b 480 -75 494 -110 488 -87 b 437 -62 469 -68 453 -62 z "},"ļ":{"ha":346,"x_min":0,"x_max":0,"o":"m 119 757 l 119 157 b 113 57 119 117 119 79 b 27 35 109 42 43 35 b 27 -4 22 28 20 3 b 171 3 83 -1 118 3 b 316 -4 224 3 260 -1 b 316 35 323 3 321 28 b 231 57 300 35 235 42 b 224 157 224 79 224 117 l 224 802 b 239 920 224 876 239 920 b 224 941 239 929 231 941 b 31 887 167 916 99 894 b 30 852 26 886 28 852 b 113 827 68 852 104 846 b 119 757 119 811 119 776 z m 183 -62 b 107 -122 122 -62 107 -110 b 155 -201 107 -178 155 -172 b 84 -290 155 -241 103 -281 b 106 -311 84 -296 95 -308 b 240 -130 175 -281 240 -210 b 227 -75 240 -110 235 -87 b 183 -62 216 -68 199 -62 z "},"Ľ":{"ha":789,"x_min":0,"x_max":0,"o":"m 279 157 l 279 736 b 286 837 279 777 279 815 b 380 859 290 852 363 859 b 380 898 385 865 387 891 b 221 891 324 895 274 891 b 61 898 168 891 117 895 b 61 859 54 891 56 865 b 155 837 77 859 151 852 b 161 736 161 815 161 777 l 161 157 b 155 57 161 117 161 79 b 61 35 151 42 77 35 b 61 -4 56 28 54 3 b 222 0 114 -4 159 0 b 685 -5 403 0 537 -5 b 758 220 694 54 732 146 b 724 228 754 224 738 228 b 705 220 715 228 707 225 b 620 83 684 148 654 106 b 461 46 582 57 513 46 l 384 46 b 288 60 327 46 305 46 b 279 157 279 66 279 137 z m 530 918 b 463 861 488 918 463 886 b 500 754 463 815 500 818 b 458 644 500 713 483 675 b 484 629 458 637 476 629 b 579 834 538 689 579 766 b 560 910 579 879 568 897 b 530 918 552 914 540 918 z "},"ľ":{"ha":370,"x_min":0,"x_max":0,"o":"m 121 757 l 121 157 b 114 57 121 117 121 79 b 28 35 110 42 45 35 b 28 -4 23 28 22 3 b 172 3 84 -1 119 3 b 317 -4 225 3 262 -1 b 317 35 324 3 323 28 b 232 57 301 35 236 42 b 225 157 225 79 225 117 l 225 802 b 240 920 225 876 240 920 b 225 941 240 929 232 941 b 33 887 168 916 100 894 b 31 852 27 886 30 852 b 114 827 69 852 106 846 b 121 757 121 811 121 776 z m 338 960 b 270 903 296 960 270 928 b 308 796 270 857 308 860 b 266 686 308 755 290 718 b 292 671 266 680 283 671 b 387 876 346 731 387 808 b 368 952 387 921 376 939 b 338 960 359 956 347 960 z "},"Ŀ":{"ha":765,"x_min":0,"x_max":0,"o":"m 279 157 l 279 736 b 286 837 279 777 279 815 b 380 859 290 852 363 859 b 380 898 385 865 387 891 b 221 891 324 895 274 891 b 61 898 168 891 117 895 b 61 859 54 891 56 865 b 155 837 77 859 151 852 b 161 736 161 815 161 777 l 161 157 b 155 57 161 117 161 79 b 61 35 151 42 77 35 b 61 -4 56 28 54 3 b 222 0 114 -4 159 0 b 685 -5 403 0 537 -5 b 758 220 694 54 732 146 b 724 228 754 224 738 228 b 705 220 715 228 707 225 b 620 83 684 148 654 106 b 461 46 582 57 513 46 l 384 46 b 288 60 327 46 305 46 b 279 157 279 66 279 137 z m 538 426 b 606 358 538 388 568 358 b 674 426 644 358 674 388 b 606 494 674 464 644 494 b 538 426 568 494 538 464 z "},"ŀ":{"ha":524,"x_min":0,"x_max":0,"o":"m 121 757 l 121 157 b 114 57 121 117 121 79 b 28 35 110 42 45 35 b 28 -4 23 28 22 3 b 172 3 84 -1 119 3 b 317 -4 225 3 262 -1 b 317 35 324 3 323 28 b 232 57 301 35 236 42 b 225 157 225 79 225 117 l 225 802 b 240 920 225 876 240 920 b 225 941 240 929 232 941 b 33 887 168 916 100 894 b 31 852 27 886 30 852 b 114 827 69 852 106 846 b 121 757 121 811 121 776 z m 365 399 b 433 331 365 361 395 331 b 500 399 471 331 500 361 b 433 467 500 437 471 467 b 365 399 395 467 365 437 z "},"Ł":{"ha":765,"x_min":0,"x_max":0,"o":"m 279 157 l 279 736 b 286 837 279 777 279 815 b 380 859 290 852 363 859 b 380 898 385 865 387 891 b 221 891 324 895 274 891 b 61 898 168 891 117 895 b 61 859 54 891 56 865 b 155 837 77 859 151 852 b 161 736 161 815 161 777 l 161 157 b 155 57 161 117 161 79 b 61 35 151 42 77 35 b 61 -4 56 28 54 3 b 222 0 114 -4 159 0 b 685 -5 403 0 537 -5 b 758 220 694 54 732 146 b 724 228 754 224 738 228 b 705 220 715 228 707 225 b 620 83 684 148 654 106 b 461 46 582 57 513 46 l 384 46 b 288 60 327 46 305 46 b 279 157 279 66 279 137 z m 521 606 l 46 281 b 69 241 41 277 61 250 l 545 564 b 521 606 551 568 528 600 z "},"ł":{"ha":346,"x_min":0,"x_max":0,"o":"m 47 353 l 316 537 b 294 574 321 543 301 567 l 27 391 b 47 353 22 385 39 361 z m 121 757 l 121 157 b 114 57 121 117 121 79 b 28 35 110 42 45 35 b 28 -4 23 28 22 3 b 172 3 84 -1 119 3 b 317 -4 225 3 262 -1 b 317 35 324 3 323 28 b 232 57 301 35 236 42 b 225 157 225 79 225 117 l 225 802 b 240 920 225 876 240 920 b 225 941 240 929 232 941 b 33 887 168 916 100 894 b 31 852 27 886 30 852 b 114 827 69 852 106 846 b 121 757 121 811 121 776 z "},"Ń":{"ha":1053,"x_min":0,"x_max":0,"o":"m 194 895 b 56 902 149 895 118 899 b 56 863 52 895 49 878 b 161 836 72 863 152 852 b 175 743 174 815 175 795 l 175 155 b 161 62 175 103 174 83 b 56 35 152 46 72 35 b 56 -4 49 20 52 3 b 201 3 118 -1 138 3 b 355 -4 260 3 301 -1 b 353 35 358 4 359 26 b 251 62 331 35 259 49 b 237 156 237 84 237 107 l 237 772 l 829 24 b 876 -7 848 0 869 -7 b 894 1 880 -7 892 -5 b 891 189 891 72 891 110 l 891 741 b 905 833 891 792 892 812 b 1010 860 914 849 994 860 b 1010 899 1017 875 1015 892 b 865 892 948 897 928 892 b 709 899 806 892 764 897 b 712 860 707 891 705 869 b 815 833 734 860 807 846 b 829 739 829 811 829 788 l 829 304 l 829 225 b 297 898 678 435 366 789 b 194 895 278 897 235 895 z m 418 1000 b 426 987 418 996 422 987 b 669 1127 449 987 669 1080 b 606 1168 669 1143 659 1168 b 582 1164 595 1168 587 1166 b 418 1000 534 1128 418 1009 z "},"ń":{"ha":722,"x_min":0,"x_max":0,"o":"m 437 594 b 254 495 372 594 281 525 b 250 492 252 494 251 492 b 247 498 247 492 247 496 b 255 575 247 509 254 566 b 240 597 255 582 247 597 b 46 540 186 568 115 549 b 46 505 41 533 43 507 b 134 480 56 505 125 503 b 141 404 141 464 141 422 l 141 157 b 134 57 141 117 141 79 b 49 35 130 42 65 35 b 49 -4 43 28 42 3 b 193 3 104 -1 140 3 b 338 -4 245 3 282 -1 b 338 35 345 3 343 28 b 252 57 321 35 256 42 b 245 157 245 79 245 117 l 245 441 b 374 515 245 453 324 515 b 507 293 480 515 507 461 l 507 157 b 500 57 507 117 507 79 b 415 35 496 42 431 35 b 415 -4 410 28 408 3 b 559 3 471 -1 506 3 b 704 -4 612 3 648 -1 b 704 35 711 3 709 28 b 618 57 688 35 623 42 b 612 157 612 79 612 117 l 612 307 b 437 594 612 503 583 594 z m 494 890 b 457 879 475 890 458 880 b 326 690 414 825 326 699 b 338 673 326 682 328 673 b 543 850 351 673 543 807 b 494 890 543 857 541 890 z "},"Ņ":{"ha":1053,"x_min":0,"x_max":0,"o":"m 194 895 b 56 902 149 895 118 899 b 56 863 52 895 49 878 b 161 836 72 863 152 852 b 175 743 174 815 175 795 l 175 155 b 161 62 175 103 174 83 b 56 35 152 46 72 35 b 56 -4 49 20 52 3 b 201 3 118 -1 138 3 b 355 -4 260 3 301 -1 b 353 35 358 4 359 26 b 251 62 331 35 259 49 b 237 156 237 84 237 107 l 237 772 l 829 24 b 876 -7 848 0 869 -7 b 894 1 880 -7 892 -5 b 891 189 891 72 891 110 l 891 741 b 905 833 891 792 892 812 b 1010 860 914 849 994 860 b 1010 899 1017 875 1015 892 b 865 892 948 897 928 892 b 709 899 806 892 764 897 b 712 860 707 891 705 869 b 815 833 734 860 807 846 b 829 739 829 811 829 788 l 829 304 l 829 225 b 297 898 678 435 366 789 b 194 895 278 897 235 895 z m 530 -62 b 454 -122 469 -62 454 -110 b 502 -201 454 -178 502 -172 b 431 -290 502 -241 450 -281 b 453 -311 431 -296 442 -308 b 587 -130 522 -281 587 -210 b 574 -75 587 -110 582 -87 b 530 -62 563 -68 547 -62 z "},"ņ":{"ha":722,"x_min":0,"x_max":0,"o":"m 435 594 b 252 495 370 594 279 525 b 248 492 251 494 250 492 b 245 498 245 492 245 496 b 254 575 245 509 252 566 b 239 597 254 582 245 597 b 45 540 184 568 114 549 b 45 505 39 533 42 507 b 133 480 54 505 123 503 b 140 404 140 464 140 422 l 140 157 b 133 57 140 117 140 79 b 47 35 129 42 64 35 b 47 -4 42 28 41 3 b 191 3 103 -1 138 3 b 336 -4 244 3 281 -1 b 336 35 343 3 342 28 b 251 57 320 35 255 42 b 244 157 244 79 244 117 l 244 441 b 373 515 244 453 323 515 b 506 293 479 515 506 461 l 506 157 b 499 57 506 117 506 79 b 414 35 495 42 430 35 b 414 -4 408 28 407 3 b 557 3 469 -1 505 3 b 703 -4 610 3 647 -1 b 703 35 709 3 708 28 b 617 57 686 35 621 42 b 610 157 610 79 610 117 l 610 307 b 435 594 610 503 582 594 z m 377 -62 b 301 -122 316 -62 301 -110 b 349 -201 301 -178 349 -172 b 278 -290 349 -241 297 -281 b 300 -311 278 -296 289 -308 b 434 -130 369 -281 434 -210 b 420 -75 434 -110 429 -87 b 377 -62 410 -68 393 -62 z "},"Ň":{"ha":1053,"x_min":0,"x_max":0,"o":"m 511 986 b 528 997 517 986 522 991 b 667 1142 583 1058 609 1081 b 652 1165 667 1150 661 1165 l 511 1078 b 370 1165 511 1078 393 1150 b 357 1142 362 1165 357 1150 b 495 997 415 1080 441 1055 b 511 986 500 991 506 986 z m 194 895 b 56 902 149 895 118 899 b 56 863 52 895 49 878 b 161 836 72 863 152 852 b 175 743 174 815 175 795 l 175 155 b 161 62 175 103 174 83 b 56 35 152 46 72 35 b 56 -4 49 20 52 3 b 201 3 118 -1 138 3 b 355 -4 260 3 301 -1 b 353 35 358 4 359 26 b 251 62 331 35 259 49 b 237 156 237 84 237 107 l 237 772 l 829 24 b 876 -7 848 0 869 -7 b 894 1 880 -7 892 -5 b 891 189 891 72 891 110 l 891 741 b 905 833 891 792 892 812 b 1010 860 914 849 994 860 b 1010 899 1017 875 1015 892 b 865 892 948 897 928 892 b 709 899 806 892 764 897 b 712 860 707 891 705 869 b 815 833 734 860 807 846 b 829 739 829 811 829 788 l 829 304 l 829 225 b 297 898 678 435 366 789 b 194 895 278 897 235 895 z "},"ň":{"ha":722,"x_min":0,"x_max":0,"o":"m 437 594 b 254 495 372 594 281 525 b 250 492 252 494 251 492 b 247 498 247 492 247 496 b 255 575 247 509 254 566 b 240 597 255 582 247 597 b 46 540 186 568 115 549 b 46 505 41 533 43 507 b 134 480 56 505 125 503 b 141 404 141 464 141 422 l 141 157 b 134 57 141 117 141 79 b 49 35 130 42 65 35 b 49 -4 43 28 42 3 b 193 3 104 -1 140 3 b 338 -4 245 3 282 -1 b 338 35 345 3 343 28 b 252 57 321 35 256 42 b 245 157 245 79 245 117 l 245 441 b 374 515 245 453 324 515 b 507 293 480 515 507 461 l 507 157 b 500 57 507 117 507 79 b 415 35 496 42 431 35 b 415 -4 410 28 408 3 b 559 3 471 -1 506 3 b 704 -4 612 3 648 -1 b 704 35 711 3 709 28 b 618 57 688 35 623 42 b 612 157 612 79 612 117 l 612 307 b 437 594 612 503 583 594 z m 388 677 b 403 689 393 677 399 682 b 530 868 449 764 477 799 b 515 886 530 878 522 886 b 388 773 463 840 388 773 b 260 886 388 773 313 840 b 245 868 254 886 245 878 b 373 689 298 799 327 764 b 388 677 377 682 382 677 z "},"ŉ":{"ha":722,"x_min":0,"x_max":0,"o":"m 439 594 b 256 495 374 594 283 525 b 252 492 255 494 254 492 b 250 498 250 492 250 496 b 258 575 250 509 256 566 b 243 597 258 582 250 597 b 49 540 189 568 118 549 b 49 505 43 533 46 507 b 137 480 58 505 127 503 b 144 404 144 464 144 422 l 144 157 b 137 57 144 117 144 79 b 52 35 133 42 68 35 b 52 -4 46 28 45 3 b 195 3 107 -1 142 3 b 340 -4 248 3 285 -1 b 340 35 347 3 346 28 b 255 57 324 35 259 42 b 248 157 248 79 248 117 l 248 441 b 377 515 248 453 327 515 b 510 293 483 515 510 461 l 510 157 b 503 57 510 117 510 79 b 418 35 499 42 434 35 b 418 -4 412 28 411 3 b 562 3 473 -1 509 3 b 707 -4 614 3 651 -1 b 707 35 713 3 712 28 b 621 57 690 35 625 42 b 614 157 614 79 614 117 l 614 307 b 439 594 614 503 586 594 z m 5 914 b -62 857 -37 914 -62 882 b -24 750 -62 811 -24 814 b -66 640 -24 709 -42 671 b -41 625 -66 633 -49 625 b 54 830 14 685 54 762 b 35 906 54 875 43 892 b 5 914 27 910 15 914 z "},"Ŋ":{"ha":1053,"x_min":0,"x_max":0,"o":"m 807 52 b 669 -244 791 -187 719 -244 b 608 -216 646 -244 623 -229 b 543 -176 589 -198 567 -176 b 477 -252 499 -176 477 -210 b 488 -283 477 -262 481 -277 b 574 -308 505 -296 553 -308 b 891 164 757 -308 891 -175 l 891 741 b 905 833 891 792 892 812 b 1010 860 914 849 994 860 b 1010 899 1017 875 1015 892 b 865 892 948 897 928 892 b 709 899 806 892 764 897 b 712 860 707 891 705 869 b 815 833 734 860 807 846 b 829 739 829 811 829 788 l 829 304 l 829 225 b 297 898 678 435 366 789 b 194 895 278 897 235 895 b 56 902 149 895 118 899 b 56 863 52 895 49 878 b 161 836 72 863 152 852 b 175 743 174 815 175 795 l 175 155 b 161 62 175 103 174 83 b 56 35 152 46 72 35 b 56 -4 49 20 52 3 b 201 3 118 -1 138 3 b 355 -4 260 3 301 -1 b 353 35 358 4 359 26 b 251 62 331 35 259 49 b 237 156 237 84 237 107 l 237 772 z "},"ŋ":{"ha":707,"x_min":0,"x_max":0,"o":"m 507 62 b 359 -283 507 -163 437 -228 b 359 -293 358 -285 358 -290 b 377 -313 362 -300 370 -309 b 612 92 469 -275 612 -168 l 612 307 b 437 594 612 503 583 594 b 254 495 372 594 281 525 b 250 492 252 494 251 492 b 247 498 247 492 247 496 b 255 575 247 509 254 566 b 240 597 255 582 247 597 b 46 540 186 568 115 549 b 46 505 41 533 43 507 b 134 480 56 505 125 503 b 141 410 141 464 141 427 l 141 157 b 134 57 141 117 141 79 b 49 35 130 42 65 35 b 49 -4 43 28 42 3 b 193 3 104 -1 140 3 b 338 -4 245 3 282 -1 b 338 35 345 3 343 28 b 252 57 321 35 256 42 b 245 157 245 79 245 117 l 245 441 b 374 515 245 453 324 515 b 507 293 480 515 507 461 z "},"Ō":{"ha":1015,"x_min":0,"x_max":0,"o":"m 486 859 b 814 419 696 859 814 629 b 528 33 814 236 731 33 b 201 475 317 33 201 264 b 486 859 201 656 282 859 z m 506 905 b 66 445 267 905 66 699 b 506 -14 66 176 267 -14 b 948 445 745 -14 948 191 b 506 905 948 715 745 905 z m 671 1025 b 680 1082 685 1040 689 1076 l 346 1082 b 338 1025 334 1074 324 1031 z "},"ō":{"ha":690,"x_min":0,"x_max":0,"o":"m 330 551 b 518 269 450 551 518 400 b 361 35 518 153 476 35 b 172 316 239 35 172 184 b 330 551 172 433 214 551 z m 345 595 b 56 289 180 595 56 464 b 347 -9 56 119 168 -9 b 635 300 511 -9 635 125 b 345 595 635 469 524 595 z m 500 712 b 509 769 514 727 518 762 l 205 769 b 197 712 193 761 183 718 z "},"Ŏ":{"ha":1015,"x_min":0,"x_max":0,"o":"m 486 859 b 814 419 696 859 814 629 b 528 33 814 236 731 33 b 201 475 317 33 201 264 b 486 859 201 656 282 859 z m 506 905 b 66 445 267 905 66 699 b 506 -14 66 176 267 -14 b 948 445 745 -14 948 191 b 506 905 948 715 745 905 z m 624 1130 b 506 1046 606 1077 566 1046 b 388 1130 446 1046 406 1077 b 358 1107 374 1130 358 1116 b 359 1099 358 1104 358 1101 b 506 983 378 1028 441 983 b 652 1099 571 983 633 1028 b 654 1107 654 1101 654 1104 b 624 1130 654 1116 637 1130 z "},"ŏ":{"ha":690,"x_min":0,"x_max":0,"o":"m 330 551 b 518 269 450 551 518 400 b 361 35 518 153 476 35 b 172 316 239 35 172 184 b 330 551 172 433 214 551 z m 345 595 b 56 289 180 595 56 464 b 347 -9 56 119 168 -9 b 635 300 511 -9 635 125 b 345 595 635 469 524 595 z m 342 736 b 224 834 285 736 237 776 b 218 838 224 837 221 838 b 194 821 210 838 194 827 b 195 811 194 819 195 814 b 342 674 208 734 269 674 b 488 810 415 674 476 738 b 490 821 488 812 490 819 b 465 838 490 827 473 838 b 460 834 463 838 460 837 b 342 736 446 776 399 736 z "},"Ő":{"ha":1015,"x_min":0,"x_max":0,"o":"m 486 859 b 814 419 696 859 814 629 b 528 33 814 236 731 33 b 201 475 317 33 201 264 b 486 859 201 656 282 859 z m 506 905 b 66 445 267 905 66 699 b 506 -14 66 176 267 -14 b 948 445 745 -14 948 191 b 506 905 948 715 745 905 z m 574 1006 b 582 994 574 1002 578 994 b 825 1134 605 994 825 1086 b 762 1175 825 1150 815 1175 b 738 1171 751 1175 743 1173 b 574 1006 690 1135 574 1016 z m 368 1006 b 376 994 368 1002 372 994 b 618 1134 399 994 618 1086 b 556 1175 618 1150 609 1175 b 532 1171 545 1175 537 1173 b 368 1006 484 1135 368 1016 z "},"ő":{"ha":690,"x_min":0,"x_max":0,"o":"m 330 551 b 518 269 450 551 518 400 b 361 35 518 153 476 35 b 172 316 239 35 172 184 b 330 551 172 433 214 551 z m 345 595 b 56 289 180 595 56 464 b 347 -9 56 119 168 -9 b 635 300 511 -9 635 125 b 345 595 635 469 524 595 z m 397 887 b 361 876 378 887 362 878 b 229 688 317 822 229 696 b 241 670 229 680 232 670 b 446 848 255 670 446 804 b 397 887 446 854 445 887 z m 566 887 b 529 876 547 887 530 878 b 397 688 486 822 397 696 b 410 670 397 680 400 670 b 614 848 423 670 614 804 b 566 887 614 854 613 887 z "},"Œ":{"ha":1379,"x_min":0,"x_max":0,"o":"m 806 0 b 1268 -5 986 0 1120 -5 b 1341 220 1278 54 1316 146 b 1308 228 1337 224 1321 228 b 1289 220 1298 228 1290 225 b 1203 83 1267 161 1246 109 b 1032 46 1165 60 1096 46 l 967 46 b 871 60 910 46 888 46 b 863 153 863 66 863 133 l 863 411 b 960 423 863 423 922 423 b 1104 412 1012 423 1089 422 b 1142 323 1116 404 1122 400 b 1164 312 1145 316 1154 312 b 1185 317 1173 312 1183 315 l 1185 574 b 1162 581 1181 578 1172 581 b 1142 571 1153 581 1143 578 b 993 473 1119 481 1123 473 l 921 473 b 863 481 891 473 863 475 l 863 735 b 869 831 863 772 863 810 b 963 846 873 845 947 846 l 1080 846 b 1237 719 1152 846 1207 827 b 1256 709 1238 712 1246 709 b 1280 716 1265 709 1276 712 b 1241 901 1268 777 1251 833 b 804 891 1093 901 932 891 b 499 905 716 890 533 905 b 66 445 270 905 66 699 b 492 -9 66 191 254 -9 b 646 -4 526 -9 625 -5 b 806 0 685 -1 743 0 z m 484 859 b 697 804 579 859 652 852 b 745 671 736 764 745 719 l 745 254 b 712 85 745 180 745 134 b 526 33 681 38 601 33 b 201 475 316 33 201 264 b 484 859 201 656 288 859 z "},"œ":{"ha":1055,"x_min":0,"x_max":0,"o":"m 770 545 b 882 418 853 545 883 450 b 850 387 880 393 867 387 l 629 387 b 770 545 627 387 656 545 z m 330 551 b 518 269 450 551 518 400 b 361 35 518 153 476 35 b 172 316 239 35 172 184 b 330 551 172 433 214 551 z m 844 76 b 623 336 746 76 623 137 b 964 346 677 338 926 345 b 997 410 990 347 997 370 b 793 594 997 464 956 594 b 590 469 723 594 644 547 b 345 595 541 547 456 595 b 56 289 180 595 56 464 b 347 -9 56 119 168 -9 b 574 106 441 -9 522 35 b 798 -11 621 34 700 -11 b 996 104 903 -11 971 65 b 1004 129 1000 111 1004 122 b 993 148 1004 140 994 148 b 844 76 975 127 918 76 z "},"Ŕ":{"ha":842,"x_min":0,"x_max":0,"o":"m 414 894 b 221 891 334 894 274 891 b 61 898 168 891 117 895 b 61 859 54 891 56 865 b 155 837 77 859 151 852 b 161 736 161 815 161 777 l 161 157 b 155 57 161 117 161 79 b 61 35 151 42 77 35 b 61 -4 56 28 54 3 b 221 3 117 -1 168 3 b 380 -4 274 3 324 -1 b 380 35 387 3 385 28 b 286 57 363 35 290 42 b 279 157 279 79 279 117 l 279 410 l 351 410 b 392 393 370 410 384 406 b 608 72 477 260 587 99 b 696 12 640 30 677 19 b 875 -4 723 3 784 -4 b 876 35 876 -1 883 28 b 723 117 802 41 762 65 b 505 435 633 235 576 316 b 689 659 595 467 689 562 b 414 894 689 814 537 894 z m 563 647 b 353 452 563 528 458 452 l 279 452 l 279 735 b 286 837 279 776 279 821 b 354 850 292 849 338 850 b 563 647 505 850 563 765 z m 324 1000 b 332 987 324 996 328 987 b 575 1127 355 987 575 1080 b 513 1168 575 1143 566 1168 b 488 1164 502 1168 494 1166 b 324 1000 441 1128 324 1009 z "},"ŕ":{"ha":519,"x_min":0,"x_max":0,"o":"m 411 593 b 251 448 350 593 278 506 b 245 450 250 446 245 445 b 255 575 245 465 254 566 b 240 597 255 582 247 597 b 46 540 186 568 115 549 b 46 505 41 533 43 507 b 134 480 56 505 125 503 b 141 410 141 464 141 427 l 141 157 b 134 57 141 117 141 79 b 49 35 130 42 65 35 b 49 -4 43 28 42 3 b 201 3 104 -1 148 3 b 369 -4 254 3 313 -1 b 369 35 376 3 374 28 b 252 57 353 35 256 42 b 245 157 245 79 245 117 l 245 366 b 354 488 245 397 296 488 b 404 472 378 488 392 480 b 454 446 419 463 435 446 b 499 517 468 446 499 467 b 494 553 499 532 496 545 b 411 593 481 575 446 593 z m 426 894 b 389 883 407 894 391 884 b 258 694 346 829 258 703 b 270 677 258 686 260 677 b 475 854 283 677 475 811 b 426 894 475 861 473 894 z "},"Ŗ":{"ha":842,"x_min":0,"x_max":0,"o":"m 414 894 b 221 891 334 894 274 891 b 61 898 168 891 117 895 b 61 859 54 891 56 865 b 155 837 77 859 151 852 b 161 736 161 815 161 777 l 161 157 b 155 57 161 117 161 79 b 61 35 151 42 77 35 b 61 -4 56 28 54 3 b 221 3 117 -1 168 3 b 380 -4 274 3 324 -1 b 380 35 387 3 385 28 b 286 57 363 35 290 42 b 279 157 279 79 279 117 l 279 410 l 351 410 b 392 393 370 410 384 406 b 608 72 477 260 587 99 b 696 12 640 30 677 19 b 875 -4 723 3 784 -4 b 876 35 876 -1 883 28 b 723 117 802 41 762 65 b 505 435 633 235 576 316 b 689 659 595 467 689 562 b 414 894 689 814 537 894 z m 563 647 b 353 452 563 528 458 452 l 279 452 l 279 735 b 286 837 279 776 279 821 b 354 850 292 849 338 850 b 563 647 505 850 563 765 z m 499 -62 b 423 -122 438 -62 423 -110 b 471 -201 423 -178 471 -172 b 400 -290 471 -241 419 -281 b 422 -311 400 -296 411 -308 b 556 -130 491 -281 556 -210 b 543 -75 556 -110 551 -87 b 499 -62 532 -68 515 -62 z "},"ŗ":{"ha":519,"x_min":0,"x_max":0,"o":"m 410 593 b 250 448 349 593 277 506 b 244 450 248 446 244 445 b 254 575 244 465 252 566 b 239 597 254 582 245 597 b 45 540 184 568 114 549 b 45 505 39 533 42 507 b 133 480 54 505 123 503 b 140 410 140 464 140 427 l 140 157 b 133 57 140 117 140 79 b 47 35 129 42 64 35 b 47 -4 42 28 41 3 b 199 3 103 -1 146 3 b 368 -4 252 3 312 -1 b 368 35 374 3 373 28 b 251 57 351 35 255 42 b 244 157 244 79 244 117 l 244 366 b 353 488 244 397 294 488 b 403 472 377 488 391 480 b 453 446 418 463 434 446 b 498 517 467 446 498 467 b 492 553 498 532 495 545 b 410 593 480 575 445 593 z m 197 -62 b 121 -122 136 -62 121 -110 b 168 -201 121 -178 168 -172 b 98 -290 168 -241 117 -281 b 119 -311 98 -296 109 -308 b 254 -130 189 -281 254 -210 b 240 -75 254 -110 248 -87 b 197 -62 229 -68 213 -62 z "},"Ř":{"ha":842,"x_min":0,"x_max":0,"o":"m 414 894 b 221 891 334 894 274 891 b 61 898 168 891 117 895 b 61 859 54 891 56 865 b 155 837 77 859 151 852 b 161 736 161 815 161 777 l 161 157 b 155 57 161 117 161 79 b 61 35 151 42 77 35 b 61 -4 56 28 54 3 b 221 3 117 -1 168 3 b 380 -4 274 3 324 -1 b 380 35 387 3 385 28 b 286 57 363 35 290 42 b 279 157 279 79 279 117 l 279 410 l 351 410 b 392 393 370 410 384 406 b 608 72 477 260 587 99 b 696 12 640 30 677 19 b 875 -4 723 3 784 -4 b 876 35 876 -1 883 28 b 723 117 802 41 762 65 b 505 435 633 235 576 316 b 689 659 595 467 689 562 b 414 894 689 814 537 894 z m 563 647 b 353 452 563 528 458 452 l 279 452 l 279 735 b 286 837 279 776 279 821 b 354 850 292 849 338 850 b 563 647 505 850 563 765 z m 420 986 b 437 997 426 986 431 991 b 576 1142 492 1058 518 1081 b 562 1165 576 1150 570 1165 l 420 1078 b 279 1165 420 1078 302 1150 b 266 1142 271 1165 266 1150 b 404 997 324 1080 350 1055 b 420 986 410 991 415 986 z "},"ř":{"ha":519,"x_min":0,"x_max":0,"o":"m 411 593 b 251 448 350 593 278 506 b 245 450 250 446 245 445 b 255 575 245 465 254 566 b 240 597 255 582 247 597 b 46 540 186 568 115 549 b 46 505 41 533 43 507 b 134 480 56 505 125 503 b 141 410 141 464 141 427 l 141 157 b 134 57 141 117 141 79 b 49 35 130 42 65 35 b 49 -4 43 28 42 3 b 201 3 104 -1 148 3 b 369 -4 254 3 313 -1 b 369 35 376 3 374 28 b 252 57 353 35 256 42 b 245 157 245 79 245 117 l 245 366 b 354 488 245 397 296 488 b 404 472 378 488 392 480 b 454 446 419 463 435 446 b 499 517 468 446 499 467 b 494 553 499 532 496 545 b 411 593 481 575 446 593 z m 290 681 b 305 693 296 681 301 686 b 433 872 351 768 380 803 b 418 890 433 882 425 890 b 290 777 365 844 290 777 b 163 890 290 777 216 844 b 148 872 156 890 148 882 b 275 693 201 803 229 768 b 290 681 279 686 285 681 z "},"Ś":{"ha":681,"x_min":0,"x_max":0,"o":"m 354 903 b 88 665 218 903 88 808 b 324 393 88 528 220 454 b 505 198 418 339 505 311 b 342 33 505 92 430 33 b 117 240 179 33 127 189 b 102 252 115 247 111 252 b 66 236 90 252 75 244 b 95 26 66 220 79 106 b 339 -14 161 12 247 -14 b 623 235 484 -14 623 85 b 387 496 623 369 476 439 b 197 707 297 553 197 598 b 345 857 197 772 233 857 b 534 663 460 857 526 731 b 549 658 538 659 545 658 b 578 673 559 658 579 663 b 559 865 575 709 570 795 b 354 903 469 886 438 903 z m 279 1000 b 288 987 279 996 283 987 b 530 1127 311 987 530 1080 b 468 1168 530 1143 521 1168 b 444 1164 457 1168 449 1166 b 279 1000 396 1128 279 1009 z "},"ś":{"ha":500,"x_min":0,"x_max":0,"o":"m 264 593 b 68 427 164 593 68 528 b 171 282 68 355 117 313 b 336 126 250 236 336 209 b 239 28 336 64 294 28 b 92 157 167 28 109 100 b 80 160 88 160 84 160 b 56 152 73 160 61 156 b 79 11 56 117 68 39 b 237 -15 138 0 175 -15 b 446 172 347 -15 446 62 b 290 338 446 258 351 301 b 172 465 229 374 172 395 b 269 551 172 514 203 551 b 382 426 327 551 369 476 b 406 419 389 420 399 419 b 419 426 412 419 419 420 b 403 575 418 475 412 533 b 264 593 343 582 317 593 z m 412 888 b 376 878 393 888 377 879 b 244 689 332 823 244 697 b 256 671 244 681 247 671 b 461 849 270 671 461 806 b 412 888 461 856 460 888 z "},"Ŝ":{"ha":681,"x_min":0,"x_max":0,"o":"m 354 903 b 88 665 218 903 88 808 b 324 393 88 528 220 454 b 505 198 418 339 505 311 b 342 33 505 92 430 33 b 117 240 179 33 127 189 b 102 252 115 247 111 252 b 66 236 90 252 75 244 b 95 26 66 220 79 106 b 339 -14 161 12 247 -14 b 623 235 484 -14 623 85 b 387 496 623 369 476 439 b 197 707 297 553 197 598 b 345 857 197 772 233 857 b 534 663 460 857 526 731 b 549 658 538 659 545 658 b 578 673 559 658 579 663 b 559 865 575 709 570 795 b 354 903 469 886 438 903 z m 347 1165 b 331 1154 342 1165 336 1160 b 191 1009 275 1093 250 1070 b 206 986 191 1001 198 986 l 347 1073 b 488 986 347 1073 465 1001 b 502 1009 496 986 502 1001 b 363 1154 444 1072 418 1096 b 347 1165 358 1160 353 1165 z "},"ŝ":{"ha":500,"x_min":0,"x_max":0,"o":"m 264 593 b 68 427 164 593 68 528 b 171 282 68 355 117 313 b 336 126 250 236 336 209 b 239 28 336 64 294 28 b 92 157 167 28 109 100 b 80 160 88 160 84 160 b 56 152 73 160 61 156 b 79 11 56 117 68 39 b 237 -15 138 0 175 -15 b 446 172 347 -15 446 62 b 290 338 446 258 351 301 b 172 465 229 374 172 395 b 269 551 172 514 203 551 b 382 426 327 551 369 476 b 406 419 389 420 399 419 b 419 426 412 419 419 420 b 403 575 418 475 412 533 b 264 593 343 582 317 593 z m 259 876 b 244 864 254 876 248 871 b 117 685 198 789 170 754 b 132 667 117 675 125 667 b 259 770 179 705 259 770 b 387 667 259 770 335 709 b 401 685 393 667 401 675 b 274 864 349 754 320 789 b 259 876 270 871 264 876 z "},"Ş":{"ha":681,"x_min":0,"x_max":0,"o":"m 354 903 b 88 665 218 903 88 808 b 324 393 88 528 220 454 b 505 198 418 339 505 311 b 342 33 505 92 430 33 b 117 240 179 33 127 189 b 102 252 115 247 111 252 b 66 236 90 252 75 244 b 95 26 66 220 79 106 b 339 -14 161 12 247 -14 b 623 235 484 -14 623 85 b 387 496 623 369 476 439 b 197 707 297 553 197 598 b 345 857 197 772 233 857 b 534 663 460 857 526 731 b 549 658 538 659 545 658 b 578 673 559 658 579 663 b 559 865 575 709 570 795 b 354 903 469 886 438 903 z m 338 -42 l 368 -5 l 334 -5 b 282 -87 321 -28 297 -62 b 298 -107 279 -94 296 -107 b 340 -96 315 -100 323 -96 b 389 -151 361 -96 389 -113 b 320 -203 389 -178 365 -203 b 262 -183 294 -203 281 -183 b 239 -205 252 -183 239 -194 b 244 -228 239 -214 243 -220 b 298 -241 254 -235 279 -241 b 449 -121 381 -241 449 -195 b 378 -42 449 -79 420 -42 z "},"ş":{"ha":500,"x_min":0,"x_max":0,"o":"m 266 593 b 69 427 165 593 69 528 b 172 282 69 355 118 313 b 338 126 251 236 338 209 b 240 28 338 64 296 28 b 94 157 168 28 110 100 b 81 160 90 160 85 160 b 57 152 75 160 62 156 b 80 11 57 117 69 39 b 239 -15 140 0 176 -15 b 448 172 349 -15 448 62 b 292 338 448 258 353 301 b 174 465 231 374 174 395 b 270 551 174 514 205 551 b 384 426 328 551 370 476 b 407 419 391 420 400 419 b 420 426 414 419 420 420 b 404 575 419 475 414 533 b 266 593 345 582 319 593 z m 254 -39 l 278 -8 l 250 -8 b 206 -77 239 -27 218 -57 b 220 -95 203 -83 217 -95 b 255 -85 233 -90 240 -85 b 297 -132 273 -85 297 -99 b 239 -176 297 -155 277 -176 b 189 -159 217 -176 205 -159 b 170 -178 180 -159 170 -168 b 174 -197 170 -186 172 -190 b 220 -209 182 -202 203 -209 b 347 -106 290 -209 347 -170 b 288 -39 347 -71 323 -39 z "},"Š":{"ha":681,"x_min":0,"x_max":0,"o":"m 354 903 b 88 665 218 903 88 808 b 324 393 88 528 220 454 b 505 198 418 339 505 311 b 342 33 505 92 430 33 b 117 240 179 33 127 189 b 102 252 115 247 111 252 b 66 236 90 252 75 244 b 95 26 66 220 79 106 b 339 -14 161 12 247 -14 b 623 235 484 -14 623 85 b 387 496 623 369 476 439 b 197 707 297 553 197 598 b 345 857 197 772 233 857 b 534 663 460 857 526 731 b 549 658 538 659 545 658 b 578 673 559 658 579 663 b 559 865 575 709 570 795 b 354 903 469 886 438 903 z m 362 986 b 378 997 368 986 373 991 b 518 1142 434 1058 460 1081 b 503 1165 518 1150 511 1165 l 362 1078 b 221 1165 362 1078 244 1150 b 208 1142 213 1165 208 1150 b 346 997 266 1080 292 1055 b 362 986 351 991 357 986 z "},"š":{"ha":500,"x_min":0,"x_max":0,"o":"m 264 593 b 68 427 164 593 68 528 b 171 282 68 355 117 313 b 336 126 250 236 336 209 b 239 28 336 64 294 28 b 92 157 167 28 109 100 b 80 160 88 160 84 160 b 56 152 73 160 61 156 b 79 11 56 117 68 39 b 237 -15 138 0 175 -15 b 446 172 347 -15 446 62 b 290 338 446 258 351 301 b 172 465 229 374 172 395 b 269 551 172 514 203 551 b 382 426 327 551 369 476 b 406 419 389 420 399 419 b 419 426 412 419 419 420 b 403 575 418 475 412 533 b 264 593 343 582 317 593 z m 267 675 b 282 688 273 675 278 681 b 410 867 328 762 357 798 b 395 884 410 876 401 884 b 267 772 342 838 267 772 b 140 884 267 772 193 838 b 125 867 133 884 125 876 b 252 688 178 798 206 762 b 267 675 256 681 262 675 z "},"Ţ":{"ha":849,"x_min":0,"x_max":0,"o":"m 690 897 l 160 897 b 84 916 138 897 100 907 b 53 920 76 920 61 924 b 18 686 43 837 33 758 b 43 677 22 682 31 675 b 62 684 50 677 60 680 b 193 849 81 779 125 849 l 368 849 l 368 157 b 361 57 368 117 368 79 b 267 35 357 42 283 35 b 267 -4 262 28 260 3 b 427 3 323 -1 374 3 b 586 -4 480 3 530 -1 b 586 35 593 3 591 28 b 492 57 570 35 496 42 b 486 157 486 79 486 117 l 486 849 l 658 849 b 788 684 726 849 769 779 b 807 677 791 680 800 677 b 833 686 819 675 829 682 b 798 920 818 758 807 837 b 772 917 789 924 785 924 b 690 897 755 909 712 897 z m 411 -33 l 441 4 l 407 4 b 355 -77 395 -19 370 -53 b 372 -98 353 -84 369 -98 b 414 -87 388 -91 396 -87 b 463 -141 434 -87 463 -103 b 393 -194 463 -168 438 -194 b 335 -174 368 -194 354 -174 b 312 -195 326 -174 312 -184 b 317 -218 312 -205 316 -210 b 372 -232 327 -225 353 -232 b 522 -111 454 -232 522 -186 b 452 -33 522 -69 494 -33 z "},"ţ":{"ha":422,"x_min":0,"x_max":0,"o":"m 218 586 l 218 764 b 197 762 218 769 203 769 b 114 671 194 758 140 701 l 114 586 l 64 586 b 28 543 62 585 28 548 b 35 530 28 538 31 530 l 114 530 l 114 137 b 255 -9 114 20 186 -9 b 395 65 321 -9 376 43 b 400 85 396 66 400 77 b 396 95 400 90 399 94 b 308 64 387 88 349 64 b 218 175 248 64 218 103 l 218 530 l 381 530 b 400 571 393 543 400 559 b 393 586 400 579 400 586 z m 241 -31 l 266 0 l 237 0 b 194 -69 227 -19 206 -49 b 208 -87 191 -75 205 -87 b 243 -77 221 -81 228 -77 b 285 -123 260 -77 285 -91 b 227 -168 285 -146 264 -168 b 176 -151 205 -168 193 -151 b 157 -170 168 -151 157 -160 b 161 -189 157 -178 160 -182 b 208 -201 170 -194 191 -201 b 335 -98 278 -201 335 -161 b 275 -31 335 -62 311 -31 z "},"Ť":{"ha":849,"x_min":0,"x_max":0,"o":"m 689 897 l 159 897 b 83 916 137 897 99 907 b 52 920 75 920 60 924 b 16 686 42 837 31 758 b 42 677 20 682 30 675 b 61 684 49 677 58 680 b 191 849 80 779 123 849 l 366 849 l 366 157 b 359 57 366 117 366 79 b 266 35 355 42 282 35 b 266 -4 260 28 259 3 b 426 3 321 -1 373 3 b 585 -4 479 3 529 -1 b 585 35 591 3 590 28 b 491 57 568 35 495 42 b 484 157 484 79 484 117 l 484 849 l 656 849 b 787 684 724 849 768 779 b 806 677 789 680 799 677 b 831 686 818 675 827 682 b 796 920 817 758 806 837 b 770 917 788 924 784 924 b 689 897 754 909 711 897 z m 423 1005 b 439 1016 429 1005 434 1010 b 579 1161 495 1077 521 1100 b 564 1184 579 1169 572 1184 l 423 1097 b 282 1184 423 1097 305 1169 b 269 1161 274 1184 269 1169 b 407 1016 327 1099 353 1074 b 423 1005 412 1010 418 1005 z "},"ť":{"ha":422,"x_min":0,"x_max":0,"o":"m 217 586 l 217 764 b 195 762 217 769 202 769 b 113 671 193 758 138 701 l 113 586 l 62 586 b 27 543 61 585 27 548 b 34 530 27 538 30 530 l 113 530 l 113 137 b 254 -9 113 20 184 -9 b 393 65 320 -9 374 43 b 399 85 395 66 399 77 b 395 95 399 90 397 94 b 307 64 385 88 347 64 b 217 175 247 64 217 103 l 217 530 l 380 530 b 399 571 392 543 399 559 b 392 586 399 579 399 586 z m 362 928 b 294 871 320 928 294 895 b 332 764 294 825 332 827 b 290 654 332 723 315 685 b 316 639 290 647 308 639 b 411 844 370 699 411 776 b 392 920 411 888 400 906 b 362 928 384 924 372 928 z "},"Ŧ":{"ha":849,"x_min":0,"x_max":0,"o":"m 642 422 b 642 472 647 434 647 472 l 214 472 b 213 422 206 460 208 422 z m 689 897 l 159 897 b 83 916 137 897 99 907 b 52 920 75 920 60 924 b 16 686 42 837 31 758 b 42 677 20 682 30 675 b 61 684 49 677 58 680 b 191 849 80 779 123 849 l 366 849 l 366 157 b 359 57 366 117 366 79 b 266 35 355 42 282 35 b 266 -4 260 28 259 3 b 426 3 321 -1 373 3 b 585 -4 479 3 529 -1 b 585 35 591 3 590 28 b 491 57 568 35 495 42 b 484 157 484 79 484 117 l 484 849 l 656 849 b 787 684 724 849 768 779 b 806 677 789 680 799 677 b 831 686 818 675 827 682 b 796 920 817 758 806 837 b 770 917 788 924 784 924 b 689 897 754 909 711 897 z "},"ŧ":{"ha":422,"x_min":0,"x_max":0,"o":"m 38 418 b 30 381 30 406 30 389 b 37 363 30 374 31 363 l 391 363 b 399 404 396 376 399 396 b 391 418 399 411 396 418 z m 217 586 l 217 764 b 195 762 217 769 202 769 b 113 671 193 758 138 701 l 113 586 l 62 586 b 27 543 61 585 27 548 b 34 530 27 538 30 530 l 113 530 l 113 137 b 254 -9 113 20 184 -9 b 393 65 320 -9 374 43 b 399 85 395 66 399 77 b 395 95 399 90 397 94 b 307 64 385 88 347 64 b 217 175 247 64 217 103 l 217 530 l 380 530 b 399 571 392 543 399 559 b 392 586 399 579 399 586 z "},"Ũ":{"ha":981,"x_min":0,"x_max":0,"o":"m 199 891 b 39 898 146 891 95 895 b 39 859 33 891 34 865 b 133 837 56 859 129 852 b 140 736 140 815 140 777 l 140 340 b 240 84 140 232 178 144 b 481 -5 300 27 384 -5 b 836 374 693 -5 836 103 l 836 741 b 849 833 836 792 837 812 b 955 860 859 849 939 860 b 955 899 962 875 959 892 b 810 892 892 897 872 892 b 659 899 750 892 713 897 b 662 860 656 891 655 869 b 760 833 684 860 751 846 b 773 739 773 811 773 788 l 773 372 b 510 73 769 138 650 73 b 324 152 430 73 366 99 b 258 401 281 206 258 289 l 258 736 b 264 837 258 777 258 815 b 358 859 269 852 342 859 b 358 898 363 865 365 891 b 199 891 302 895 252 891 z m 429 1100 b 335 1051 392 1100 361 1082 b 316 1004 326 1039 316 1021 b 324 989 316 998 319 989 b 411 1040 334 994 357 1040 b 495 1008 438 1040 467 1024 b 586 978 522 993 549 978 b 680 1028 623 978 654 997 b 699 1076 689 1040 699 1058 b 690 1089 699 1081 696 1089 b 602 1038 681 1084 656 1038 b 519 1070 581 1038 548 1054 b 429 1100 492 1085 465 1100 z "},"ũ":{"ha":699,"x_min":0,"x_max":0,"o":"m 475 434 l 475 141 b 350 66 475 109 410 66 b 214 277 255 66 214 133 l 214 418 l 214 476 b 224 570 214 515 218 559 b 209 597 224 576 216 597 b 23 570 160 582 92 572 b 23 534 18 563 19 538 b 99 507 41 534 85 532 b 110 434 110 487 110 452 l 110 260 b 279 -9 110 146 136 -9 b 472 80 349 -9 434 39 b 475 73 472 80 475 80 l 475 11 b 486 -11 475 1 479 -11 b 662 27 487 -11 591 23 b 673 49 669 27 673 46 b 669 64 673 53 671 62 b 589 88 665 65 595 62 b 579 191 581 126 579 176 l 579 414 l 579 476 b 589 564 579 515 583 553 b 574 597 589 571 581 597 b 388 570 525 582 457 572 b 388 534 382 563 384 538 b 464 507 406 534 450 532 b 475 434 475 487 475 452 z m 285 799 b 201 750 252 799 224 781 b 184 700 193 738 184 718 b 195 685 184 694 187 685 b 266 738 205 690 217 738 b 346 704 290 738 320 720 b 427 674 370 689 393 674 b 511 724 460 674 488 693 b 530 776 519 736 530 758 b 522 788 530 781 530 788 b 446 735 513 783 495 735 b 368 768 427 735 393 751 b 285 799 343 783 319 799 z "},"Ū":{"ha":981,"x_min":0,"x_max":0,"o":"m 199 891 b 39 898 146 891 95 895 b 39 859 33 891 34 865 b 133 837 56 859 129 852 b 140 736 140 815 140 777 l 140 340 b 240 84 140 232 178 144 b 481 -5 300 27 384 -5 b 836 374 693 -5 836 103 l 836 741 b 849 833 836 792 837 812 b 955 860 859 849 939 860 b 955 899 962 875 959 892 b 810 892 892 897 872 892 b 659 899 750 892 713 897 b 662 860 656 891 655 869 b 760 833 684 860 751 846 b 773 739 773 811 773 788 l 773 372 b 510 73 769 138 650 73 b 324 152 430 73 366 99 b 258 401 281 206 258 289 l 258 736 b 264 837 258 777 258 815 b 358 859 269 852 342 859 b 358 898 363 865 365 891 b 199 891 302 895 252 891 z m 658 1025 b 666 1082 671 1040 675 1076 l 332 1082 b 324 1025 320 1074 311 1031 z "},"ū":{"ha":699,"x_min":0,"x_max":0,"o":"m 475 434 l 475 141 b 350 66 475 109 410 66 b 214 277 255 66 214 133 l 214 418 l 214 476 b 224 570 214 515 218 559 b 209 597 224 576 216 597 b 23 570 160 582 92 572 b 23 534 18 563 19 538 b 99 507 41 534 85 532 b 110 434 110 487 110 452 l 110 260 b 279 -9 110 146 136 -9 b 472 80 349 -9 434 39 b 475 73 472 80 475 80 l 475 11 b 486 -11 475 1 479 -11 b 662 27 487 -11 591 23 b 673 49 669 27 673 46 b 669 64 673 53 671 62 b 589 88 665 65 595 62 b 579 191 581 126 579 176 l 579 414 l 579 476 b 589 564 579 515 583 553 b 574 597 589 571 581 597 b 388 570 525 582 457 572 b 388 534 382 563 384 538 b 464 507 406 534 450 532 b 475 434 475 487 475 452 z m 487 712 b 495 769 500 727 505 762 l 191 769 b 183 712 179 761 170 718 z "},"Ŭ":{"ha":981,"x_min":0,"x_max":0,"o":"m 199 891 b 39 898 146 891 95 895 b 39 859 33 891 34 865 b 133 837 56 859 129 852 b 140 736 140 815 140 777 l 140 340 b 240 84 140 232 178 144 b 481 -5 300 27 384 -5 b 836 374 693 -5 836 103 l 836 741 b 849 833 836 792 837 812 b 955 860 859 849 939 860 b 955 899 962 875 959 892 b 810 892 892 897 872 892 b 659 899 750 892 713 897 b 662 860 656 891 655 869 b 760 833 684 860 751 846 b 773 739 773 811 773 788 l 773 372 b 510 73 769 138 650 73 b 324 152 430 73 366 99 b 258 401 281 206 258 289 l 258 736 b 264 837 258 777 258 815 b 358 859 269 852 342 859 b 358 898 363 865 365 891 b 199 891 302 895 252 891 z m 610 1130 b 492 1046 593 1077 552 1046 b 374 1130 433 1046 392 1077 b 345 1107 361 1130 345 1116 b 346 1099 345 1104 345 1101 b 492 983 365 1028 427 983 b 639 1099 557 983 620 1028 b 640 1107 640 1101 640 1104 b 610 1130 640 1116 624 1130 z "},"ŭ":{"ha":699,"x_min":0,"x_max":0,"o":"m 475 434 l 475 141 b 350 66 475 109 410 66 b 214 277 255 66 214 133 l 214 418 l 214 476 b 224 570 214 515 218 559 b 209 597 224 576 216 597 b 23 570 160 582 92 572 b 23 534 18 563 19 538 b 99 507 41 534 85 532 b 110 434 110 487 110 452 l 110 260 b 279 -9 110 146 136 -9 b 472 80 349 -9 434 39 b 475 73 472 80 475 80 l 475 11 b 486 -11 475 1 479 -11 b 662 27 487 -11 591 23 b 673 49 669 27 673 46 b 669 64 673 53 671 62 b 589 88 665 65 595 62 b 579 191 581 126 579 176 l 579 414 l 579 476 b 589 564 579 515 583 553 b 574 597 589 571 581 597 b 388 570 525 582 457 572 b 388 534 382 563 384 538 b 464 507 406 534 450 532 b 475 434 475 487 475 452 z m 357 736 b 239 834 300 736 252 776 b 233 838 239 837 236 838 b 209 821 225 838 209 827 b 210 811 209 819 210 814 b 357 674 222 734 283 674 b 503 810 430 674 491 738 b 505 821 503 812 505 819 b 480 838 505 827 488 838 b 475 834 477 838 475 837 b 357 736 461 776 414 736 z "},"Ů":{"ha":981,"x_min":0,"x_max":0,"o":"m 199 891 b 39 898 146 891 95 895 b 39 859 33 891 34 865 b 133 837 56 859 129 852 b 140 736 140 815 140 777 l 140 340 b 240 84 140 232 178 144 b 481 -5 300 27 384 -5 b 836 374 693 -5 836 103 l 836 741 b 849 833 836 792 837 812 b 955 860 859 849 939 860 b 955 899 962 875 959 892 b 810 892 892 897 872 892 b 659 899 750 892 713 897 b 662 860 656 891 655 869 b 760 833 684 860 751 846 b 773 739 773 811 773 788 l 773 372 b 510 73 769 138 650 73 b 324 152 430 73 366 99 b 258 401 281 206 258 289 l 258 736 b 264 837 258 777 258 815 b 358 859 269 852 342 859 b 358 898 363 865 365 891 b 199 891 302 895 252 891 z m 422 1109 b 498 1184 422 1152 457 1184 b 571 1109 538 1184 571 1152 b 498 1034 571 1067 538 1034 b 422 1109 457 1034 422 1067 z m 377 1109 b 498 987 377 1043 433 987 b 616 1109 563 987 616 1043 b 498 1230 616 1176 563 1230 b 377 1109 433 1230 377 1176 z "}}}
